<?xml version="1.0" standalone="no"?> 
<!DOCTYPE svg PUBLIC "-//W3C//DTD SVG 1.1//EN" "http://www.w3.org/Graphics/SVG/1.1/DTD/svg11.dtd" >
<svg xmlns="http://www.w3.org/2000/svg">
<defs>
  <font id="bbva-cm-icons" horiz-adv-x="261">
    <font-face font-family="bbva-cm-icons"
      units-per-em="261" ascent="261"
      descent="0" />
    <missing-glyph horiz-adv-x="0" />
    <glyph glyph-name="alarm"
      unicode="&#xF101;"
      horiz-adv-x="261" d=" M66.0530769230769 139.2334615384616L88.3384615384615 143.55L144.5538461538462 86.9330769230769L138.4303846153846 66.3542307692308L66.0530769230769 139.2334615384616L66.0530769230769 139.2334615384616zM171.4569230769231 75.7903846153846L212.3134615384615 116.8476923076923C225.1626923076923 129.6969230769231 232.4907692307692 147.0634615384615 232.6915384615385 165.3334615384616C232.8923076923077 179.2869230769231 228.6761538461539 192.9392307692308 220.7457692307693 204.383076923077L240.9230769230769 224.7611538461538L224.8615384615385 240.923076923077L204.885 220.7457692307692C193.3407692307692 229.2784615384616 179.2869230769231 233.7957692307692 164.8315384615385 233.4946153846154C146.7623076923077 233.0930769230769 129.5965384615385 225.6646153846154 116.9480769230769 212.715L76.1919230769231 171.7580769230769L23.3896153846154 157.6038461538462C19.7757692307692 156.6 19.0730769230769 153.7892307692308 21.6830769230769 151.1792307692308L61.4353846153846 111.6276923076923C61.2346153846154 111.4269230769231 61.0338461538462 111.2261538461538 60.8330769230769 111.0253846153846C47.3815384615385 97.4734615384615 47.3815384615385 75.5896153846154 60.8330769230769 62.0376923076923C74.1842307692308 48.5861538461539 95.8673076923077 48.4857692307693 109.3188461538462 61.8369230769231C109.4192307692308 61.9373076923077 109.4192307692308 61.9373076923077 109.5196153846154 62.0376923076923L110.1219230769231 62.64L150.3761538461539 21.5826923076923C152.9861538461539 18.9726923076923 155.8973076923077 19.6753846153846 156.9011538461539 23.2892307692308L171.4569230769231 75.7903846153846L171.4569230769231 75.7903846153846z" />
    <glyph glyph-name="app-store"
      unicode="&#xF102;"
      horiz-adv-x="261" d=" M176.8776923076923 244.9384615384615C176.8776923076923 238.9153846153846 175.4723076923077 232.29 172.6615384615385 225.1626923076923C169.8507692307692 218.0353846153846 165.3334615384615 211.41 159.21 205.2865384615385C153.99 200.0665384615385 148.77 196.6534615384616 143.55 194.8465384615385C140.2373076923077 193.8426923076923 135.3184615384616 193.0396153846154 128.5926923076923 192.4373076923077C128.7934615384615 206.6919230769231 132.5076923076923 219.1396153846154 139.8357692307692 229.5796153846154S159.21 247.1469230769231 176.0746153846154 251.0619230769231C176.4761538461538 249.8573076923077 176.676923076923 248.7530769230769 176.7773076923077 247.8496153846154C176.7773076923077 246.7453846153846 176.8776923076923 245.8419230769231 176.8776923076923 244.9384615384615M132.7084615384615 186.615C136.9246153846154 186.615 143.8511538461538 188.2211538461539 153.4880769230769 191.5338461538462C163.125 194.8465384615385 171.3565384615384 196.4526923076923 178.4838461538462 196.4526923076923C190.0280769230769 196.4526923076923 200.3676923076923 193.3407692307693 209.4023076923077 187.1169230769231C214.5219230769231 183.503076923077 219.5411538461538 178.6846153846154 224.46 172.5611538461539C216.9311538461539 166.1365384615385 211.41 160.515 207.8965384615385 155.4957692307693C201.5723076923077 146.4611538461539 198.4603846153846 136.523076923077 198.4603846153846 125.5811538461539C198.4603846153846 113.6353846153846 201.7730769230769 102.8942307692308 208.4988461538461 93.2573076923077C215.2246153846154 83.6203846153847 222.8538461538462 77.5973076923077 231.3865384615385 75.0876923076924C227.7726923076923 63.5434615384616 221.85 51.3969230769231 213.6184615384616 38.8488461538462C201.0703846153846 19.9765384615385 188.7230769230769 10.44 176.3757692307692 10.44C171.4569230769231 10.44 164.7311538461539 12.0461538461539 156.098076923077 15.0576923076924C147.465 18.1696153846154 140.2373076923077 19.6753846153846 134.3146153846154 19.6753846153846C128.3919230769231 19.6753846153846 121.4653846153847 18.0692307692308 113.6353846153847 14.7565384615385C105.8053846153847 11.5442307692308 99.3807692307693 9.8376923076923 94.4619230769231 9.8376923076923C79.7053846153847 9.8376923076923 65.1496153846154 22.3857692307693 50.9953846153847 47.3815384615385C36.7407692307693 72.0761538461539 29.7138461538462 96.3692307692308 29.7138461538462 120.1603846153846C29.7138461538462 142.245 35.1346153846154 160.3142307692308 45.9761538461539 174.1673076923077S70.5703846153847 195.0473076923077 87.1338461538462 195.0473076923077C94.1607692307693 195.0473076923077 102.6934615384616 193.6419230769231 112.7319230769231 190.6303846153846C122.7703846153846 188.0203846153846 129.3957692307693 186.615 132.7084615384615 186.615" />
    <glyph glyph-name="audio"
      unicode="&#xF103;"
      horiz-adv-x="261" d=" M133.4111538461538 239.3169230769231L61.1342307692308 180.6923076923077H20.9803846153846C15.4592307692308 180.6923076923077 10.9419230769231 176.175 10.9419230769231 170.6538461538462V90.3461538461538C10.9419230769231 84.825 15.4592307692308 80.3076923076923 20.9803846153846 80.3076923076923H61.1342307692308L133.4111538461538 21.7834615384615C137.8280769230769 18.4707692307692 141.4419230769231 20.1773076923077 141.4419230769231 25.8992307692308V235.2011538461539C141.4419230769231 240.8226923076923 137.7276923076923 242.5292307692308 133.4111538461538 239.3169230769231z M183.1015384615385 171.8584615384616L161.7196153846154 150.5769230769231C173.4646153846154 138.8319230769231 173.565 119.7588461538462 161.82 108.0138461538462C161.82 108.0138461538462 161.82 108.0138461538462 161.7196153846154 107.9134615384616L183.1015384615385 86.6319230769231C206.6919230769231 110.1219230769231 206.6919230769231 148.2680769230769 183.1015384615385 171.8584615384616C183.1015384615385 171.8584615384616 183.1015384615385 171.8584615384616 183.1015384615385 171.8584615384616z M225.765 214.5219230769231L204.3830769230769 193.2403846153846C239.7184615384616 157.905 239.7184615384616 100.5853846153846 204.3830769230769 65.25C204.3830769230769 65.25 204.3830769230769 65.25 204.3830769230769 65.25L225.765 43.9684615384616C272.0423076923077 90.8480769230769 271.3396153846154 166.8392307692308 225.765 214.5219230769231z" />
    <glyph glyph-name="bbva-contigo"
      unicode="&#xF104;"
      horiz-adv-x="261" d=" M134.0134615384616 99.7823076923077L150.4765384615385 99.7823076923077L161.4184615384616 110.7242307692308L134.0134615384616 110.7242307692308z M240.9230769230769 230.8846153846154H20.0769230769231C14.5557692307692 230.8846153846154 10.0384615384615 226.4676923076923 10.0384615384615 220.9465384615385V10.0384615384615L50.1923076923077 50.1923076923077H240.9230769230769C246.4442307692308 50.1923076923077 250.9615384615385 54.6092307692308 250.9615384615385 60.1303846153846V220.9465384615385C250.9615384615385 226.4676923076923 246.4442307692308 230.8846153846154 240.9230769230769 230.8846153846154zM136.1215384615385 200.7692307692308C151.2796153846154 200.7692307692308 163.5265384615385 188.5223076923077 163.5265384615385 173.3642307692308S151.2796153846154 145.9592307692308 136.1215384615385 145.9592307692308S108.7165384615385 158.2061538461539 108.7165384615385 173.3642307692308S120.9634615384615 200.7692307692308 136.1215384615385 200.7692307692308L136.1215384615385 200.7692307692308zM190.8311538461538 80.3076923076923H81.3115384615385V91.2496153846154C81.3115384615385 113.9365384615385 96.8711538461539 133.7123076923077 118.8553846153846 139.133076923077C129.6969230769231 133.7123076923077 142.4457692307692 133.7123076923077 153.1869230769231 139.133076923077C175.2715384615385 133.7123076923077 190.7307692307693 113.9365384615385 190.7307692307693 91.2496153846154L190.8311538461538 80.3076923076923z" />
    <glyph glyph-name="behance-simple"
      unicode="&#xF105;"
      horiz-adv-x="261" d=" M130.0984615384615 122.67C125.8823076923077 128.8938461538462 119.4576923076923 133.2103846153846 110.925 135.72C117.1488461538462 138.7315384615384 121.8669230769231 142.6465384615385 125.0792307692308 147.3646153846154C128.2915384615385 152.0826923076923 129.8976923076923 157.905 129.8976923076923 165.0323076923077C129.8976923076923 171.6576923076923 128.7934615384616 177.1788461538461 126.6853846153846 181.5957692307692C124.5773076923077 186.1130769230769 121.5657692307692 189.6265384615385 117.6507692307692 192.3369230769231C113.7357692307692 195.0473076923077 109.0176923076923 196.9546153846154 103.5969230769231 198.1592307692308C98.1761538461538 199.3638461538462 92.1530769230769 199.9661538461538 85.5276923076923 199.9661538461538L20.0769230769231 199.8657692307692V59.3273076923077H87.3346153846154C93.4580769230769 59.3273076923077 99.5815384615385 60.1303846153846 105.5042307692308 61.7365384615385C111.4269230769231 63.3426923076923 116.6469230769231 65.7519230769231 121.2646153846154 69.0646153846154C125.8823076923077 72.2769230769231 129.5965384615385 76.493076923077 132.3069230769231 81.7130769230769C135.0173076923077 86.8326923076923 136.4226923076923 92.9561538461539 136.4226923076923 100.0834615384616C136.4226923076923 108.9173076923077 134.3146153846154 116.4461538461538 130.0984615384615 122.67zM50.5938461538462 175.9742307692308H79.2034615384615C81.9138461538462 175.9742307692308 84.5238461538462 175.7734615384615 87.1338461538462 175.2715384615385C89.6434615384616 174.7696153846154 91.9523076923077 173.9665384615385 93.8596153846154 172.7619230769231C95.8673076923077 171.5573076923077 97.3730769230769 169.9511538461538 98.5776923076923 167.8430769230769C99.6819230769231 165.735 100.2842307692308 163.125 100.2842307692308 159.8123076923077C100.2842307692308 153.99 98.5776923076923 149.6734615384616 95.0642307692308 147.0634615384615S87.0334615384616 143.1484615384615 81.6126923076923 143.1484615384615H50.5938461538462V175.9742307692308zM103.9984615384615 92.9561538461539C102.7938461538462 90.5469230769231 101.1876923076923 88.74 99.0796153846154 87.3346153846154C96.9715384615385 86.0296153846154 94.5623076923077 85.0257692307692 91.8519230769231 84.4234615384615C89.1415384615385 83.8211538461539 86.3307692307692 83.52 83.3192307692308 83.52H50.5938461538462V122.0676923076923H83.8211538461539C90.4465384615385 122.0676923076923 95.7669230769231 120.5619230769231 99.7823076923077 117.45S105.8053846153846 109.2184615384616 105.8053846153846 101.9907692307692C105.8053846153846 98.3769230769231 105.2030769230769 95.3653846153846 103.9984615384615 92.9561538461539z M238.7146153846154 128.8938461538462C236.9076923076923 136.1215384615385 233.9965384615385 142.5461538461539 229.8807692307693 148.1676923076923C225.765 153.7892307692308 220.545 158.3065384615385 214.2207692307692 161.6192307692308C207.8965384615385 164.9319230769231 200.3676923076923 166.6384615384616 191.835 166.6384615384616C184.2057692307692 166.6384615384616 177.2792307692308 165.2330769230769 170.955 162.5226923076923C164.6307692307692 159.7119230769231 159.21 155.9976923076923 154.6926923076923 151.1792307692308C150.075 146.3607692307693 146.6619230769231 140.6388461538462 144.1523076923077 134.1138461538462C141.6426923076923 127.4884615384616 140.4380769230769 120.4615384615385 140.4380769230769 112.8323076923077C140.4380769230769 104.9019230769231 141.6426923076923 97.6742307692308 144.0519230769231 91.1492307692308C146.4611538461539 84.5238461538462 149.8742307692308 78.9023076923078 154.2911538461538 74.1842307692308C158.7080769230769 69.4661538461539 164.1288461538462 65.7519230769231 170.4530769230769 63.2423076923077S183.9046153846154 59.4276923076923 191.835 59.4276923076923C203.2788461538462 59.4276923076923 213.0161538461538 62.0376923076923 221.0469230769231 67.2576923076923S235.0003846153846 81.2111538461539 238.9153846153846 93.458076923077H214.6223076923077C213.7188461538462 90.3461538461539 211.2092307692308 87.3346153846154 207.1938461538462 84.5238461538462S198.4603846153847 80.3076923076924 192.8388461538461 80.3076923076924C185.1092307692308 80.3076923076924 179.0861538461539 82.3153846153847 174.9703846153846 86.4311538461539C170.7542307692308 90.4465384615385 168.5457692307692 97.0719230769231 168.0438461538461 106.3073076923077H240.6219230769231C241.2242307692308 114.1373076923077 240.5215384615385 121.6661538461538 238.7146153846154 128.8938461538462zM168.0438461538462 123.6738461538462C168.2446153846154 125.6815384615385 168.6461538461539 127.89 169.3488461538462 130.3996153846154S171.3565384615385 135.3184615384615 173.0630769230769 137.5269230769231C174.87 139.7353846153846 177.1788461538462 141.6426923076923 180.09 143.1484615384615C183.1015384615385 144.6542307692307 186.7153846153846 145.4573076923077 191.1323076923077 145.4573076923077C197.8580769230769 145.4573076923077 202.8773076923077 143.6503846153846 206.19 139.9361538461538C209.5026923076923 136.3223076923077 211.8115384615385 130.9015384615385 213.0161538461539 123.6738461538461H168.0438461538462z M163.4261538461539 192.8388461538461H219.6415384615385V177.0784615384615H163.4261538461539V192.8388461538461z" />
    <glyph glyph-name="behance"
      unicode="&#xF106;"
      horiz-adv-x="261" d=" M114.6392307692308 124.3765384615385C111.9288461538462 126.4846153846154 108.315 127.4884615384615 103.7976923076923 127.4884615384615H81.3115384615385V101.2880769230769H103.4965384615385C105.5042307692308 101.2880769230769 107.4115384615385 101.4888461538461 109.3188461538461 101.8903846153846C111.2261538461538 102.2919230769231 112.8323076923077 102.9946153846154 114.2376923076923 103.8980769230769S116.7473076923077 106.1065384615385 117.6507692307692 107.7126923076923C118.4538461538462 109.3188461538462 118.8553846153846 111.3265384615385 118.8553846153846 113.8361538461539C118.755 118.755 117.3496153846154 122.2684615384616 114.6392307692308 124.3765384615385z M102.3923076923077 141.5423076923077C105.4038461538462 141.5423076923077 109.0176923076923 142.7469230769231 111.4269230769231 144.5538461538462S114.9403846153846 149.2719230769231 114.9403846153846 153.2873076923077C114.9403846153846 155.4957692307693 114.5388461538462 157.4030769230769 113.7357692307692 158.8084615384615C112.9326923076923 160.2138461538462 111.8284615384615 161.4184615384616 110.5234615384615 162.2215384615385C109.2184615384615 163.0246153846154 107.7126923076923 163.7273076923077 105.9057692307692 164.0284615384616C104.0988461538462 164.3296153846154 102.2919230769231 164.6307692307692 100.485 164.6307692307692H81.3115384615385V141.5423076923077H102.3923076923077z M176.8776923076923 143.55C173.8661538461538 143.55 171.3565384615384 143.0480769230769 169.3488461538462 142.0442307692308S165.735 139.7353846153846 164.5303846153846 138.2296153846154S162.5226923076923 134.9169230769231 162.0207692307692 133.3107692307692C161.5188461538462 131.6042307692308 161.2176923076923 130.6003846153846 161.1173076923077 128.5926923076923H191.7346153846154C190.8311538461538 133.6119230769231 189.3253846153846 137.2257692307692 187.0165384615385 139.7353846153846C184.9084615384615 142.1446153846154 181.395 143.55 176.8776923076923 143.55z M130.5 250.9615384615385C63.945 250.9615384615385 10.0384615384615 197.055 10.0384615384615 130.5S63.945 10.0384615384615 130.5 10.0384615384615S250.9615384615385 63.945 250.9615384615385 130.5S197.055 250.9615384615385 130.5 250.9615384615385zM157.6038461538462 175.6730769230769H196.7538461538462V164.6307692307692H157.6038461538462V175.6730769230769zM136.8242307692308 100.0834615384615C134.9169230769231 96.57 132.5076923076923 93.6588461538461 129.2953846153846 91.4503846153846C126.1834615384616 89.2419230769231 122.5696153846154 87.8365384615385 118.5542307692308 86.7323076923077C114.5388461538462 85.628076923077 110.3226923076923 85.3269230769231 106.1065384615385 85.3269230769231H60.2307692307692V180.6923076923077H104.8015384615385C109.3188461538462 180.6923076923077 113.4346153846154 180.2907692307692 117.1488461538462 179.4876923076923C120.8630769230769 178.6846153846154 124.0753846153846 177.3796153846154 126.6853846153846 175.5726923076923S131.4034615384616 171.2561538461538 132.8088461538462 168.2446153846154C134.3146153846154 165.2330769230769 135.0173076923077 161.4184615384616 135.0173076923077 157.0015384615385C135.0173076923077 152.1830769230769 133.9130769230769 148.1676923076923 131.805 144.9553846153846C129.5965384615385 141.7430769230769 126.3842307692308 139.1330769230769 122.168076923077 137.025C127.9903846153846 135.3184615384615 132.4073076923077 132.3069230769231 135.218076923077 128.0907692307693C138.1292307692308 123.8746153846154 139.5346153846154 118.755 139.5346153846154 112.7319230769231C139.635 107.8130769230769 138.6311538461538 103.5969230769231 136.8242307692308 100.0834615384615zM210.7073076923077 116.4461538461538H161.2176923076923C161.5188461538462 110.4230769230769 163.0246153846154 105.9057692307692 165.8353846153847 103.095S172.7619230769231 98.9792307692308 178.0823076923077 98.9792307692308C181.8969230769231 98.9792307692308 185.2096153846154 100.0834615384615 187.92 102.0911538461539C190.6303846153846 103.9984615384615 192.3369230769231 106.4076923076923 192.9392307692308 108.4153846153846H209.5026923076923C206.8926923076923 99.3807692307692 202.7769230769231 93.96 197.2557692307693 90.4465384615385C191.7346153846154 86.8326923076923 185.1092307692308 85.0257692307692 177.3796153846154 85.0257692307692C171.9588461538462 85.0257692307692 167.1403846153847 85.8288461538461 162.8238461538462 87.6357692307692C158.5073076923077 89.3423076923077 154.793076923077 91.851923076923 151.7815384615385 95.0642307692308S146.4611538461539 102.0911538461539 144.855 106.6084615384615C143.2488461538462 111.1257692307692 142.4457692307692 116.0446153846154 142.4457692307692 121.365C142.4457692307692 126.585 143.2488461538462 131.4034615384615 144.9553846153846 135.8203846153846C146.6619230769231 140.3376923076923 149.0711538461538 144.1523076923077 152.0826923076923 147.465C155.1946153846154 150.7776923076923 158.9088461538462 153.2873076923077 163.125 155.1946153846154C167.4415384615385 157.1019230769231 172.1596153846154 158.0053846153846 177.3796153846154 158.0053846153846C183.2019230769231 158.0053846153846 188.3215384615385 156.9011538461538 192.6380769230769 154.5923076923077S200.5684615384615 149.2719230769231 203.2788461538461 145.3569230769231C206.0896153846154 141.5423076923077 208.0973076923077 137.025 209.301923076923 132.1061538461538C210.6069230769231 127.0869230769231 211.0084615384615 122.4692307692308 210.7073076923077 116.4461538461538z" />
    <glyph glyph-name="blog"
      unicode="&#xF107;"
      horiz-adv-x="261" d=" M130.5 250.9615384615385C63.945 250.9615384615385 10.0384615384615 197.055 10.0384615384615 130.5S63.945 10.0384615384615 130.5 10.0384615384615S250.9615384615385 63.945 250.9615384615385 130.5S197.055 250.9615384615385 130.5 250.9615384615385zM124.4769230769231 79.3038461538462H60.2307692307692V140.438076923077L90.5469230769231 179.6884615384615H119.3573076923077L88.5392307692308 139.5346153846154H124.4769230769231V79.3038461538462zM200.7692307692308 79.3038461538462H136.5230769230769V140.438076923077L166.7388461538462 179.6884615384615H195.4488461538462L164.7311538461538 139.5346153846154H200.7692307692308V79.3038461538462z" />
    <glyph glyph-name="bluetooth"
      unicode="&#xF108;"
      horiz-adv-x="261" d=" M188.1207692307693 178.0823076923077L105.0023076923077 250.6603846153847V154.1907692307692L57.6207692307692 195.2480769230769V166.5380769230769L100.7861538461539 129.4961538461539L57.6207692307692 91.35V65.25L105.0023076923077 106.3073076923077V9.8376923076923L188.1207692307693 82.5161538461539L132.8088461538462 130.2992307692308L188.1207692307693 178.0823076923077zM126.4846153846154 56.8176923076923V107.4115384615385L155.6965384615385 82.3153846153846L126.4846153846154 56.8176923076923zM155.7969230769231 178.0823076923077L126.4846153846154 152.2834615384616V203.6803846153846L155.7969230769231 178.0823076923077z" />
    <glyph glyph-name="camera"
      unicode="&#xF109;"
      horiz-adv-x="261" d=" M240.9230769230769 200.8696153846154H190.7307692307692V230.985H100.3846153846154L70.2692307692308 200.8696153846154H20.0769230769231C14.5557692307692 200.8696153846154 10.0384615384615 196.3523076923077 10.0384615384615 190.8311538461538V40.2542307692308C10.0384615384615 34.7330769230769 14.5557692307692 30.2157692307692 20.0769230769231 30.2157692307692H240.9230769230769C246.4442307692308 30.2157692307692 250.9615384615385 34.7330769230769 250.9615384615385 40.2542307692308V190.8311538461538C250.9615384615385 196.3523076923077 246.4442307692308 200.8696153846154 240.9230769230769 200.8696153846154zM40.1538461538462 150.6773076923077V170.7542307692308H100.3846153846154L80.3076923076923 150.6773076923077H40.1538461538462zM165.6346153846154 50.2926923076923C129.5965384615385 50.2926923076923 100.3846153846154 79.5046153846154 100.3846153846154 115.5426923076923S129.5965384615385 180.7926923076923 165.6346153846154 180.7926923076923S230.8846153846154 151.5807692307693 230.8846153846154 115.5426923076923S201.6726923076923 50.2926923076923 165.6346153846154 50.2926923076923z M165.6346153846154 161.7196153846154C162.9242307692308 161.7196153846154 160.2138461538461 161.5188461538462 157.6038461538462 161.0169230769231V140.3376923076923C170.7542307692308 144.7546153846154 185.0088461538462 137.7276923076923 189.4257692307692 124.5773076923077C190.8311538461538 120.3611538461539 191.1323076923077 115.8438461538462 190.2288461538462 111.5273076923077H210.5065384615385C213.3173076923077 136.3223076923077 195.4488461538462 158.7080769230769 170.6538461538462 161.4184615384616C168.9473076923077 161.6192307692308 167.3411538461539 161.7196153846154 165.6346153846154 161.7196153846154L165.6346153846154 161.7196153846154z" />
    <glyph glyph-name="change-camera"
      unicode="&#xF10A;"
      horiz-adv-x="261" d=" M240.9230769230769 200.7692307692308H190.7307692307692V230.8846153846154H100.3846153846154L70.2692307692308 200.7692307692308H20.0769230769231C14.5557692307692 200.7692307692308 10.0384615384615 196.2519230769231 10.0384615384615 190.7307692307692V40.1538461538462C10.0384615384615 34.6326923076923 14.5557692307692 30.1153846153846 20.0769230769231 30.1153846153846H240.9230769230769C246.4442307692308 30.1153846153846 250.9615384615385 34.6326923076923 250.9615384615385 40.1538461538462V190.7307692307692C250.9615384615385 196.2519230769231 246.4442307692308 200.7692307692308 240.9230769230769 200.7692307692308zM180.6923076923077 87.3346153846154V60.2307692307692L167.6423076923077 73.2807692307692C141.6426923076923 52.5011538461539 103.6973076923077 56.8176923076923 83.0180769230769 82.8173076923077C78.8019230769231 88.0373076923077 75.4892307692308 94.0603846153846 73.2807692307692 100.3846153846154H94.3615384615385C105.1026923076923 80.3076923076923 129.9980769230769 72.7788461538462 150.075 83.52C151.6811538461539 84.3230769230769 153.1869230769231 85.3269230769231 154.5923076923077 86.3307692307692L140.5384615384616 100.3846153846154H180.6923076923077V87.3346153846154zM170.6538461538462 130.5C164.43 152.8857692307692 141.1407692307692 166.0361538461539 118.755 159.8123076923077C109.8207692307692 157.3026923076923 101.9907692307692 151.9823076923077 96.3692307692308 144.5538461538462L110.4230769230769 130.5H70.2692307692308V170.6538461538462L83.3192307692308 157.6038461538462C104.0988461538462 183.6034615384616 141.9438461538462 187.92 167.9434615384616 167.1403846153846C179.3873076923077 158.0053846153846 187.1169230769231 144.9553846153846 189.7269230769231 130.5H170.6538461538462z" />
    <glyph glyph-name="channels"
      unicode="&#xF10B;"
      horiz-adv-x="261" d=" M99.9830769230769 130.1988461538462C99.9830769230769 113.5665784954803 113.4661938800957 100.0834615384615 130.0984615384615 100.0834615384615C146.7307291968274 100.0834615384615 160.2138461538461 113.5665784954803 160.2138461538461 130.1988461538462C160.2138461538461 146.831113812212 146.7307291968274 160.3142307692308 130.0984615384615 160.3142307692308C113.4661938800957 160.3142307692308 99.9830769230769 146.831113812212 99.9830769230769 130.1988461538462z M130.5 250.9615384615385C63.945 250.9615384615385 10.0384615384615 197.055 10.0384615384615 130.5C10.0384615384615 98.5776923076923 22.6869230769231 67.9603846153846 45.2734615384615 45.3738461538462L59.4276923076923 59.5280769230769C20.1773076923077 98.7784615384615 20.1773076923077 162.3219230769231 59.4276923076923 201.4719230769231S162.2215384615385 240.7223076923077 201.3715384615385 201.4719230769231S240.6219230769231 98.6780769230769 201.3715384615385 59.5280769230769C201.3715384615385 59.5280769230769 201.3715384615385 59.5280769230769 201.3715384615385 59.5280769230769L215.5257692307693 45.3738461538462C262.6061538461539 92.4542307692308 262.6061538461539 168.6461538461538 215.5257692307693 215.7265384615385C193.0396153846154 238.3130769230769 162.4223076923077 250.9615384615385 130.5 250.9615384615385z M130.5 210.8076923076923C86.13 210.8076923076923 50.1923076923077 174.87 50.1923076923077 130.5C50.1923076923077 109.2184615384616 58.6246153846154 88.8403846153846 73.6823076923077 73.7826923076923L88.2380769230769 88.3384615384615C64.9488461538462 111.7280769230769 64.9488461538462 149.4726923076923 88.3384615384615 172.7619230769231S149.4726923076923 196.0511538461539 172.7619230769231 172.6615384615385S196.0511538461538 111.5273076923077 172.6615384615385 88.2380769230769C172.5611538461539 88.1376923076923 172.4607692307693 88.0373076923077 172.3603846153846 87.9369230769231L186.9161538461538 73.3811538461538C218.4369230769231 104.6007692307692 218.7380769230769 155.3953846153846 187.6188461538461 186.9161538461538C172.5611538461539 202.1746153846154 151.9823076923077 210.8076923076923 130.5 210.8076923076923z M120.6623076923077 90.1453846153846H140.4380769230769V10.3396153846154H120.6623076923077V90.1453846153846z" />
    <glyph glyph-name="chat"
      unicode="&#xF10C;"
      horiz-adv-x="261" d=" M210.8076923076923 85.7284615384616V231.8884615384616C210.8076923076923 236.9076923076923 205.8888461538462 240.923076923077 200.8696153846154 240.923076923077H9.0346153846154C4.0153846153846 240.923076923077 0 236.9076923076923 0 231.8884615384616V40.1538461538462L37.5438461538462 78.3H200.8696153846154C205.8888461538462 78.3 210.8076923076923 80.7092307692308 210.8076923076923 85.7284615384616zM120.4615384615385 140.5384615384616H40.1538461538462V160.6153846153846H140.5384615384616L120.4615384615385 140.5384615384616zM160.6153846153846 180.6923076923077H40.1538461538462V200.7692307692308H180.6923076923077L160.6153846153846 180.6923076923077z M254.7761538461539 150.5769230769231H230.8846153846154V84.6242307692308C230.7842307692308 71.0723076923077 219.6415384615385 60.1303846153846 206.0896153846154 60.2307692307692C206.0896153846154 60.2307692307692 205.9892307692308 60.2307692307692 205.9892307692308 60.2307692307692H100.3846153846154V38.3469230769231C100.3846153846154 34.8334615384615 103.4965384615385 30.1153846153846 107.1103846153846 30.1153846153846H231.2861538461539L261 0V144.0519230769231C261.1003846153847 147.5653846153846 258.2896153846154 150.4765384615385 254.7761538461539 150.5769230769231C254.7761538461539 150.5769230769231 254.7761538461539 150.5769230769231 254.7761538461539 150.5769230769231z" />
    <glyph glyph-name="clock"
      unicode="&#xF10D;"
      horiz-adv-x="261" d=" M250.125 130.5C250.125 64.38 196.62 10.875 130.5 10.875S10.875 64.38 10.875 130.5C10.875 196.62 64.38 250.125 130.5 250.125S250.125 196.62 250.125 130.5zM141.375 184.875L119.625 206.625V119.625H163.125L184.875 141.375H141.375V184.875z" />
    <glyph glyph-name="communication"
      unicode="&#xF10E;"
      horiz-adv-x="261" d=" M88.0373076923077 216.8307692307693C84.9253846153846 219.9426923076923 82.6165384615385 219.5411538461539 82.0142307692308 215.325L72.2769230769231 141.1407692307692L124.0753846153846 88.5392307692308L195.75 98.1761538461538C199.9661538461539 98.7784615384615 201.6726923076923 102.3923076923077 198.5607692307693 105.5042307692308L88.0373076923077 216.8307692307693z M169.0476923076923 156.6H192.6380769230769C192.7384615384615 182.7 171.6576923076923 203.9815384615385 145.5576923076923 204.0819230769231C145.5576923076923 204.0819230769231 145.5576923076923 204.0819230769231 145.4573076923077 204.0819230769231V180.2907692307692C158.5073076923077 180.2907692307692 169.0476923076923 169.65 169.0476923076923 156.6C169.0476923076923 156.6 169.0476923076923 156.6 169.0476923076923 156.6z M145.4573076923077 251.5638461538462V227.7726923076923C184.5069230769231 227.7726923076923 216.1280769230769 195.9507692307693 216.1280769230769 156.6H239.7184615384616C239.7184615384616 209.0007692307692 197.5569230769231 251.5638461538462 145.4573076923077 251.5638461538462z M98.0757692307692 63.2423076923077L111.0253846153846 76.2923076923077L58.6246153846154 129.0946153846154L12.6484615384615 82.8173076923077C9.5365384615385 79.7053846153846 10.5403846153846 73.6823076923077 13.4515384615385 70.8715384615385L54.4084615384615 29.6134615384615C57.2192307692308 26.8026923076923 61.9373076923077 27.0034615384616 65.0492307692308 30.015L78.3 43.3661538461539L107.4115384615385 14.0538461538462C111.9288461538462 9.5365384615385 119.1565384615385 9.5365384615385 123.6738461538462 14.0538461538462C123.6738461538462 14.0538461538462 123.6738461538462 14.0538461538462 123.6738461538462 14.0538461538462L127.1873076923077 17.5673076923077C131.7046153846154 22.0846153846154 131.7046153846154 29.4126923076923 127.1873076923077 34.0303846153846L98.0757692307692 63.2423076923077z" />
    <glyph glyph-name="digital-handwriting"
      unicode="&#xF10F;"
      horiz-adv-x="261" d=" M93.1510181025 208.12092759C93.0913400175 185.44332141 74.69069374875 167.0910979275 52.01300905125 167.091176445C41.34376209375 167.10918468375 32.67173781375 158.49042245625 32.6240158125 147.821267175L32.6240158125 129.7421941125L10.875 129.7421941125L10.875 147.821267175C10.934678085 170.49887324625 29.335324245 188.85109662 52.01300905125 188.8510181025C62.65691312625 188.86877056125 71.28943853625 197.47711519125 71.33704754625 208.12092759C71.4030212775 230.42086905375 89.25942121125 248.58969588375 111.554864775 249.04242082875C109.1425690125 243.9698928975 107.8995317175 238.4206170375 107.91739814625 232.8037330425L107.91739814625 226.7845928025C99.2692435125 224.73025158 93.16089543 217.0097295525 93.1510181025 208.12092759zM145.8293217 249.04259787375C150.149204475 249.06258046875 154.2990729375 247.36062752625 157.3608269625 244.313095065C160.4225809875 241.265562495 162.1438368375 237.1236627975 162.143790075 232.8037330425L162.143790075 171.42149323875C162.167336625 166.00858596375 165.5447429625 161.17755817875 170.62038495 159.296606325L240.66325845 133.09818975C245.7686740125 131.2732309875 249.140431875 126.394202475 249.0424209375 120.9733031625L249.0424209375 68.5764711C249.0310391625 66.2146244625 248.3921633625 63.8982342375 247.191209925 61.864479825L220.2133375125 17.15395965C217.8211463625 13.2475954875 213.5676261 10.868577225 208.986991275 10.874810775L159.090916575 10.874810775C140.6126309625 10.825925475 123.4192690125 20.323210875 113.6225905125 35.9908375125L66.086538495 109.0649323875C64.1251250175 112.3824185625 63.63148212375 116.36610615 64.72382487 120.0620020875C65.8161675075 123.757898025 68.39612358 126.8331664125 71.84585976 128.5513576875C73.79842609875 129.4874515875 75.93782939625 129.968632275 78.10316739375 129.958709925C81.4999006725 129.967370775 84.7803670425 128.7222583125 87.31591624875 126.461979825L117.0002371875 102.6452371875C118.9833315 100.4397589125 122.11872885 99.6811906875 124.8906673875 100.736253825C127.662605925 101.7913169625 129.5001057375 104.4426822 129.514853325 107.40858615L129.514853325 232.8037330425C129.514805475 237.1236627975 131.236061325 241.265562495 134.29781535 244.313095065C137.359569375 247.36062752625 141.509438925 249.06258046875 145.8293217 249.04259787375z" />
    <glyph glyph-name="digital-press"
      unicode="&#xF110;"
      horiz-adv-x="261" d=" M210.8076923076923 250.9615384615385H50.1923076923077C44.6711538461538 250.9615384615385 40.1538461538462 246.4442307692308 40.1538461538462 240.923076923077V20.0769230769231C40.1538461538462 14.5557692307692 44.6711538461538 10.0384615384615 50.1923076923077 10.0384615384615H210.8076923076923C216.3288461538462 10.0384615384615 220.8461538461539 14.5557692307692 220.8461538461539 20.0769230769231V240.923076923077C220.8461538461539 246.4442307692308 216.3288461538462 250.9615384615385 210.8076923076923 250.9615384615385zM130.5 20.0769230769231C124.9788461538462 20.0769230769231 120.4615384615385 24.5942307692308 120.4615384615385 30.1153846153846L120.4615384615385 30.1153846153846C120.4615384615385 35.6365384615385 124.9788461538462 40.1538461538462 130.5 40.1538461538462C136.0211538461539 40.1538461538462 140.5384615384616 35.6365384615385 140.5384615384616 30.1153846153846S136.0211538461539 20.0769230769231 130.5 20.0769230769231zM200.7692307692308 50.1923076923077H60.2307692307692V220.8461538461539H200.7692307692308V50.1923076923077z M80.2073076923077 130.5H180.6923076923077V110.4230769230769H80.2073076923077V130.5z M80.1069230769231 200.7692307692308H180.6923076923077V150.5769230769231H80.1069230769231V200.7692307692308z M80.2073076923077 90.3461538461538H180.6923076923077V70.2692307692308H80.2073076923077V90.3461538461538z" />
    <glyph glyph-name="digital-tv"
      unicode="&#xF111;"
      horiz-adv-x="261" d=" M66.2538461538462 101.1876923076923L79.2034615384615 101.1876923076923L79.2034615384615 149.2719230769231L97.6742307692308 149.2719230769231L95.7669230769231 160.0130769230769L48.6865384615385 160.0130769230769L48.6865384615385 149.2719230769231L66.2538461538462 149.2719230769231z M132.4073076923077 100.9869230769231L152.685 160.0130769230769L140.4380769230769 160.0130769230769L126.585 117.9519230769231L126.3842307692308 117.9519230769231L112.6315384615385 161.0169230769231L100.1838461538462 159.1096153846154L120.1603846153846 100.9869230769231z M209.603076923077 130.9015384615385C209.603076923077 152.3838461538462 196.0511538461539 160.0130769230769 178.0823076923077 160.0130769230769H160.0130769230769V101.1876923076923H178.0823076923077C195.8503846153846 101.1876923076923 209.603076923077 108.8169230769231 209.603076923077 130.9015384615385zM172.9626923076923 149.1715384615385H178.8853846153846C191.7346153846154 149.1715384615385 196.6534615384615 143.2488461538462 196.6534615384615 130.7007692307692C196.6534615384615 117.3496153846154 191.835 111.6276923076923 178.9857692307693 111.6276923076923H172.9626923076923L172.9626923076923 149.1715384615385z M240.9230769230769 210.9080769230769H139.9361538461539L179.9896153846154 250.9615384615385H159.9126923076923L129.7973076923077 220.8461538461539L99.6819230769231 250.9615384615385H79.605L119.6584615384616 210.9080769230769H20.0769230769231C14.5557692307692 210.9080769230769 10.0384615384615 206.3907692307692 10.0384615384615 200.8696153846154V60.3311538461539C10.0384615384615 54.81 14.5557692307692 50.2926923076923 20.0769230769231 50.2926923076923H110.4230769230769V30.2157692307692H60.2307692307692V10.1388461538461H200.7692307692308V30.2157692307692H150.5769230769231V50.2926923076923H240.9230769230769C246.4442307692308 50.2926923076923 250.9615384615385 54.81 250.9615384615385 60.3311538461539V200.8696153846154C250.9615384615385 206.3907692307692 246.4442307692308 210.9080769230769 240.9230769230769 210.9080769230769L240.9230769230769 210.9080769230769zM230.8846153846154 70.3696153846154H30.1153846153846V190.8311538461538H230.8846153846154V70.3696153846154z" />
    <glyph glyph-name="down-cloud"
      unicode="&#xF112;"
      horiz-adv-x="261" d=" M185.832 170.8044230769231C184.3864615384615 170.8044230769231 182.961 170.7341538461539 181.5455769230769 170.6438076923077A90.24576923076926 90.24576923076926 0 0 1 110.2122692307692 220.545V138.9323076923077L133.1903076923077 161.9705769230769L147.3545769230769 147.7561153846154L100.1738076923077 100.4548846153846L52.9930384615385 147.7561153846154L67.1974615384615 161.9705769230769L90.1755 138.9323076923077V220.8461538461539C45.4240384615385 217.7342307692308 10.0384615384615 178.5139615384616 10.0384615384615 130.6003846153846C10.0384615384615 80.6389615384616 48.4857692307692 40.1538461538462 95.9175 40.1538461538462H190.3894615384616C219.501 40.1538461538462 243.8342307692308 61.9975384615385 249.3353076923077 90.9886153846154A65.3303076923077 65.3303076923077 0 0 1 185.832 170.8044230769231z" />
    <glyph glyph-name="dribble-simple"
      unicode="&#xF113;"
      horiz-adv-x="261" d=" M30.1153846153846 130.5C30.1153846153846 148.6696153846154 34.6326923076923 165.5342307692308 43.5669230769231 180.8930769230769S64.7480769230769 208.4988461538462 80.1069230769231 217.4330769230769S112.3303846153846 230.8846153846154 130.5 230.8846153846154S165.5342307692308 226.3673076923077 180.8930769230769 217.4330769230769S208.4988461538461 196.2519230769231 217.4330769230769 180.8930769230769C226.3673076923077 165.5342307692308 230.8846153846154 148.6696153846154 230.8846153846154 130.5S226.3673076923077 95.4657692307692 217.4330769230769 80.1069230769231S196.2519230769231 52.5011538461539 180.8930769230769 43.5669230769231C165.5342307692307 34.6326923076923 148.6696153846154 30.1153846153846 130.5 30.1153846153846S95.4657692307692 34.6326923076923 80.1069230769231 43.5669230769231S52.5011538461538 64.7480769230769 43.5669230769231 80.1069230769231C34.6326923076923 95.4657692307692 30.1153846153846 112.3303846153846 30.1153846153846 130.5zM46.7792307692308 130.5C46.7792307692308 109.62 53.8061538461539 91.2496153846154 67.86 75.2884615384616C74.2846153846154 87.8365384615385 84.4234615384615 99.8826923076923 98.3769230769231 111.2261538461539S125.8823076923077 129.7973076923077 139.1330769230769 132.7084615384616C137.1253846153846 137.4265384615385 135.2180769230769 141.6426923076923 133.3107692307692 145.3569230769231C110.3226923076923 138.0288461538462 85.4273076923077 134.3146153846154 58.6246153846154 134.3146153846154C53.4046153846154 134.3146153846154 49.4896153846154 134.415 46.98 134.5153846153846C46.98 134.0134615384616 46.98 133.3107692307693 46.8796153846154 132.5076923076924C46.7792307692308 131.7046153846154 46.7792307692308 131.0019230769231 46.7792307692308 130.5zM49.3892307692308 151.1792307692308C52.3003846153846 150.8780769230769 56.7173076923077 150.7776923076923 62.4392307692308 150.7776923076923C84.825 150.7776923076923 106.0061538461538 153.7892307692308 126.0830769230769 159.8123076923077C115.9442307692308 177.8815384615385 104.7011538461538 192.9392307692308 92.5546153846154 204.9853846153846C82.0142307692308 199.665 72.8792307692308 192.2365384615385 65.3503846153846 182.7S52.5011538461538 162.7234615384616 49.3892307692308 151.1792307692308zM79.3038461538462 64.4469230769231C94.4619230769231 52.7019230769231 111.5273076923077 46.7792307692308 130.5 46.7792307692308C140.4380769230769 46.7792307692308 150.2757692307692 48.6865384615385 160.0130769230769 52.4007692307692C157.3026923076923 75.2884615384616 152.0826923076923 97.4734615384615 144.353076923077 118.8553846153846C132.0057692307692 116.145 119.6584615384616 109.4192307692308 107.1103846153846 98.5776923076923S85.3269230769231 76.3926923076923 79.3038461538462 64.4469230769231zM110.0215384615385 211.41C121.7665384615385 199.2634615384616 132.7084615384615 184.005 142.7469230769231 165.8353846153846C160.9165384615384 173.4646153846154 174.6692307692308 183.2019230769231 183.9046153846154 194.9469230769231C168.345 207.7961538461539 150.5769230769231 214.2207692307692 130.5 214.2207692307692C123.6738461538462 214.2207692307692 116.8476923076923 213.3173076923077 110.0215384615385 211.41zM149.9746153846154 151.5807692307693C151.9823076923077 147.2642307692308 154.2911538461539 141.8434615384616 156.8007692307693 135.3184615384615C166.7388461538462 136.2219230769231 177.48 136.7238461538462 189.1246153846154 136.7238461538462C197.4565384615385 136.7238461538462 205.688076923077 136.5230769230769 213.8192307692308 136.1215384615385C212.715 154.2911538461539 206.19 170.5534615384615 194.1438461538462 184.7076923076923C185.4103846153846 171.7580769230769 170.7542307692308 160.7157692307693 149.9746153846154 151.5807692307693zM161.82 121.2646153846154C168.6461538461539 101.4888461538462 173.2638461538462 81.1107692307693 175.6730769230769 60.2307692307692C186.2134615384615 67.0569230769231 194.8465384615385 75.7903846153846 201.5723076923077 86.5315384615385S212.3134615384615 108.8169230769231 213.6184615384616 121.2646153846154C203.8811538461539 121.9673076923077 194.9469230769231 122.2684615384615 186.9161538461539 122.2684615384615C179.5880769230769 122.2684615384616 171.1557692307693 121.9673076923077 161.82 121.2646153846154z" />
    <glyph glyph-name="dribble"
      unicode="&#xF114;"
      horiz-adv-x="261" d=" M111.8284615384615 105.0023076923077C101.79 96.3692307692308 94.3615384615385 87.2342307692308 89.5430769230769 77.6976923076923C101.6896153846154 68.2615384615385 115.3419230769231 63.5434615384615 130.5 63.5434615384615C138.4303846153846 63.5434615384615 146.2603846153846 65.0492307692308 154.0903846153846 68.0607692307692C151.9823076923077 86.3307692307692 147.7661538461538 104.0988461538462 141.5423076923077 121.2646153846154C131.7046153846154 119.0561538461539 121.7665384615385 113.6353846153846 111.8284615384615 105.0023076923077z M173.2638461538462 182.0976923076923C160.8161538461539 192.3369230769231 146.5615384615385 197.4565384615385 130.5 197.4565384615385C125.0792307692308 197.4565384615385 119.5580769230769 196.7538461538462 114.1373076923077 195.2480769230769C123.5734615384616 185.5107692307692 132.3069230769231 173.3642307692308 140.3376923076923 158.8084615384615C154.8934615384615 164.8315384615385 165.8353846153846 172.6615384615385 173.2638461538462 182.0976923076923z M126.9865384615385 153.99C118.8553846153846 168.4453846153846 109.9211538461538 180.4915384615385 100.1838461538462 190.1284615384616C91.7515384615385 185.8119230769231 84.4234615384615 179.8892307692308 78.4003846153846 172.26S68.0607692307692 156.2988461538462 65.6515384615385 147.0634615384615C67.9603846153846 146.8626923076923 71.4738461538461 146.7623076923077 76.0915384615385 146.7623076923077C93.96 146.7623076923077 110.925 149.1715384615385 126.9865384615385 153.99z M104.8015384615385 115.0407692307692C115.9442307692308 124.1757692307692 126.7857692307693 129.8976923076923 137.4265384615385 132.2065384615385C135.8203846153846 135.9207692307692 134.3146153846154 139.3338461538462 132.8088461538462 142.3453846153846C114.4384615384616 136.4226923076923 94.4619230769231 133.5115384615385 73.08 133.5115384615385C68.8638461538462 133.5115384615385 65.7519230769231 133.6119230769231 63.7442307692308 133.7123076923077C63.7442307692308 133.3107692307692 63.7442307692308 132.7084615384615 63.6438461538462 132.1061538461538C63.5434615384616 131.5038461538462 63.5434615384616 130.9015384615385 63.5434615384616 130.5C63.5434615384616 113.8361538461539 69.165 99.0796153846154 80.4080769230769 86.3307692307692C85.5276923076923 96.3692307692308 93.6588461538462 106.0061538461538 104.8015384615385 115.0407692307692z M130.5 250.9615384615385C63.945 250.9615384615385 10.0384615384615 197.055 10.0384615384615 130.5S63.945 10.0384615384615 130.5 10.0384615384615S250.9615384615385 63.945 250.9615384615385 130.5S197.055 250.9615384615385 130.5 250.9615384615385zM200.0665384615385 90.1453846153846C192.9392307692308 77.7980769230769 183.1015384615385 68.0607692307692 170.8546153846154 60.9334615384616C158.5073076923077 53.8061538461539 145.0557692307693 50.1923076923077 130.5 50.1923076923077S102.4926923076923 53.8061538461539 90.1453846153846 60.9334615384616C77.7980769230769 68.0607692307692 68.0607692307692 77.8984615384616 60.9334615384615 90.1453846153846C53.8061538461539 102.4926923076923 50.1923076923077 115.9442307692308 50.1923076923077 130.5S53.8061538461539 158.5073076923077 60.9334615384615 170.8546153846154S77.8984615384615 192.9392307692308 90.1453846153846 200.0665384615385C102.4926923076923 207.1938461538462 115.9442307692308 210.8076923076923 130.5 210.8076923076923S158.5073076923077 207.1938461538462 170.8546153846154 200.0665384615385S192.9392307692308 183.1015384615385 200.0665384615385 170.8546153846154C207.1938461538461 158.5073076923077 210.8076923076923 145.0557692307692 210.8076923076923 130.5S207.1938461538462 102.4926923076923 200.0665384615385 90.1453846153846z M146.0596153846154 147.3646153846154C147.6657692307692 143.9515384615385 149.4726923076923 139.635 151.4803846153846 134.3146153846154C159.4107692307692 135.0173076923077 168.0438461538462 135.4188461538462 177.3796153846154 135.4188461538462C184.005 135.4188461538462 190.6303846153846 135.2180769230769 197.1553846153846 134.9169230769231C196.2519230769231 149.4726923076923 191.0319230769231 162.4223076923077 181.395 173.7657692307692C174.4684615384616 163.5265384615385 162.7234615384615 154.6926923076923 146.0596153846154 147.3646153846154z M155.5961538461539 123.0715384615385C161.0169230769231 107.2107692307692 164.7311538461538 90.9484615384616 166.6384615384616 74.2846153846154C175.0707692307692 79.7053846153846 181.9973076923077 86.7323076923077 187.3176923076923 95.3653846153846C192.6380769230769 103.8980769230769 195.8503846153846 113.2338461538462 196.9546153846154 123.1719230769231C189.1246153846154 123.6738461538462 181.9973076923077 123.975 175.5726923076923 123.975C169.7503846153846 123.8746153846154 163.0246153846154 123.6738461538462 155.5961538461539 123.0715384615385z" />
    <glyph glyph-name="email-read"
      unicode="&#xF115;"
      horiz-adv-x="261" d=" M138.6311538461538 248.4519230769231C133.7123076923077 251.7646153846154 127.2876923076923 251.7646153846154 122.4692307692308 248.4519230769231L10.0384615384615 160.6153846153846V20.1773076923077C10.0384615384615 14.6561538461538 14.4553846153846 10.1388461538461 19.9765384615385 10.0384615384615C19.9765384615385 10.0384615384615 19.9765384615385 10.0384615384615 20.0769230769231 10.0384615384615H240.9230769230769C246.4442307692308 10.0384615384615 250.9615384615385 14.5557692307692 250.9615384615385 20.0769230769231C250.9615384615385 20.0769230769231 250.9615384615385 20.0769230769231 250.9615384615385 20.1773076923077V160.6153846153846L138.6311538461538 248.4519230769231zM138.33 66.555C133.6119230769231 63.1419230769231 127.2876923076923 63.1419230769231 122.5696153846154 66.555L30.1153846153846 140.5384615384616C30.1153846153846 146.0596153846154 34.5323076923077 150.5769230769231 40.0534615384615 150.5769230769231H220.9465384615385C226.4676923076923 150.5769230769231 230.8846153846154 146.0596153846154 230.8846153846154 140.5384615384616L138.33 66.555z" />
    <glyph glyph-name="email"
      unicode="&#xF116;"
      horiz-adv-x="261" d=" M245.4403846153846 220.8461538461539H15.5596153846154C12.5480769230769 220.8461538461539 10.0384615384615 218.3365384615385 10.0384615384615 215.325C10.0384615384615 215.325 10.0384615384615 215.325 10.0384615384615 215.325V45.675C10.0384615384615 42.6634615384616 12.5480769230769 40.1538461538462 15.5596153846154 40.1538461538462H245.34C248.3515384615385 40.1538461538462 250.8611538461539 42.6634615384616 250.8611538461539 45.675C250.8611538461539 45.675 250.8611538461539 45.675 250.8611538461539 45.675V215.325C250.9615384615385 218.4369230769231 248.4519230769231 220.8461538461539 245.4403846153846 220.8461538461539zM130.3996153846154 110.4230769230769L30.1153846153846 170.7542307692308V194.7461538461539L130.5 134.2142307692308L230.8846153846154 194.7461538461539V170.7542307692308L130.3996153846154 110.4230769230769" />
    <glyph glyph-name="end-call"
      unicode="&#xF117;"
      horiz-adv-x="261" d=" M250 115.8C220.6 148.9 177.7 169.8 130 169.8C82.2 169.8 39.4 148.9 10 115.8L10.2 115.7V112.9C10.2 112.5 10.2 112 10.2 111.5V88.1C10.2 85.2 12.5 83.1 15.4 83.3L72.7 88.3C75.6 88.6 77.9 91.1 77.9 94V103.1C77.9 103.7 77.9 104.3 77.9 104.9V123.7C93.5 131 111.8 135.1 130 135.1C148.7 135.1 166.5 131 182.1 123.7V104.9C182.1 104.3 182.1 103.7 182.1 103.1V94C182.1 91.1 184.5 88.6 187.4 88.3L244.7 83.3C247.6 83 249.9 85.2 249.9 88.1V111.5C249.9 112 250 112.4 249.9 112.9L250 115.8L250 115.8L250 115.8z" />
    <glyph glyph-name="facebook-messenger"
      unicode="&#xF118;"
      horiz-adv-x="261" d=" M130.5 250.9615384615385C63.945 250.9615384615385 10.0384615384615 197.055 10.0384615384615 130.5C10.0384615384615 107.01 16.8646153846154 84.0219230769231 29.8142307692308 64.3465384615385L29.3123076923077 64.8484615384616L10.0384615384615 10.0384615384615L63.0415384615385 30.6173076923077L62.9411538461538 30.7176923076923C118.0523076923077 -6.525 192.9392307692308 7.9303846153846 230.1819230769231 63.0415384615385S252.9692307692308 193.0396153846154 197.8580769230769 230.2823076923077C178.0823076923077 243.7338461538462 154.5923076923077 250.9615384615385 130.5 250.9615384615385zM145.4573076923077 90.045L105.3034615384616 127.9903846153846L35.0342307692308 90.045L115.3419230769231 171.0553846153846L155.4957692307693 133.11L225.765 171.0553846153846L145.4573076923077 90.045z" />
    <glyph glyph-name="facebook-simple"
      unicode="&#xF119;"
      horiz-adv-x="261" d=" M169.9511538461539 204.383076923077C153.6888461538462 204.383076923077 150.6773076923077 196.5530769230769 150.6773076923077 185.31V160.3142307692308H189.4257692307693L184.3061538461539 121.0638461538462H150.7776923076923V20.4784615384615H110.3226923076923V120.9634615384615H76.5934615384615V160.2138461538461H110.3226923076923V189.1246153846154C110.3226923076923 222.6530769230769 130.8011538461539 240.923076923077 160.6153846153846 240.923076923077C170.6538461538462 241.0234615384616 180.6923076923077 240.4211538461539 190.7307692307692 239.3169230769231V204.383076923077H169.9511538461539z" />
    <glyph glyph-name="facebook"
      unicode="&#xF11A;"
      horiz-adv-x="261" d=" M130.5 250.9615384615385C63.945 250.9615384615385 10.0384615384615 197.055 10.0384615384615 130.5S63.945 10.0384615384615 130.5 10.0384615384615S250.9615384615385 63.945 250.9615384615385 130.5S197.055 250.9615384615385 130.5 250.9615384615385zM163.6269230769231 177.6807692307692H149.6734615384616C139.3338461538462 177.6807692307692 137.5269230769231 172.4607692307693 137.5269230769231 165.3334615384616V149.573076923077H162.0207692307693L158.7080769230769 124.4769230769231H137.5269230769231V60.2307692307692H112.4307692307692V124.4769230769231H90.3461538461538V149.573076923077H112.4307692307692V167.7426923076923C112.4307692307692 189.1246153846154 125.4807692307692 200.7692307692308 144.4534615384616 200.7692307692308C150.878076923077 200.7692307692308 157.2023076923077 200.4680769230769 163.6269230769231 199.7653846153846V177.6807692307692z" />
    <glyph glyph-name="feedback"
      unicode="&#xF11B;"
      horiz-adv-x="261" d=" M240.9230769230769 240.923076923077H20.0769230769231C14.5557692307692 240.923076923077 10.0384615384615 236.4057692307693 10.0384615384615 230.8846153846154V20.0769230769231L50.1923076923077 60.2307692307692H240.9230769230769C246.4442307692308 60.2307692307692 250.9615384615385 64.7480769230769 250.9615384615385 70.2692307692308V230.8846153846154C250.9615384615385 236.4057692307693 246.4442307692308 240.923076923077 240.9230769230769 240.923076923077zM90.3461538461538 140.5384615384616L50.1923076923077 170.6538461538462L90.3461538461538 200.7692307692308V180.6923076923077H150.5769230769231L130.5 160.6153846153846H90.3461538461538V140.5384615384616zM170.6538461538462 100.3846153846154V120.4615384615385H110.4230769230769L130.5 140.5384615384616H170.6538461538462V160.6153846153846L210.8076923076923 130.5L170.6538461538462 100.3846153846154z" />
    <glyph glyph-name="flickr-simple"
      unicode="&#xF11C;"
      horiz-adv-x="261" d=" M137.7276923076923 126.8861538461539C137.7276923076923 101.1876923076923 158.6076923076923 80.3076923076923 184.3061538461539 80.3076923076923S230.8846153846154 101.1876923076923 230.8846153846154 126.8861538461539S210.0046153846154 173.4646153846154 184.3061538461539 173.4646153846154C158.6076923076923 173.4646153846154 137.7276923076923 152.5846153846154 137.7276923076923 126.8861538461539L137.7276923076923 126.8861538461539z M30.1153846153846 126.8861538461539C30.1153846153846 101.1876923076923 50.9953846153846 80.3076923076923 76.6938461538462 80.3076923076923S123.2723076923077 101.1876923076923 123.2723076923077 126.8861538461539S102.3923076923077 173.4646153846154 76.6938461538462 173.4646153846154S30.1153846153846 152.5846153846154 30.1153846153846 126.8861538461539z" />
    <glyph glyph-name="flickr"
      unicode="&#xF11D;"
      horiz-adv-x="261" d=" M130.5 250.9615384615385C63.945 250.9615384615385 10.0384615384615 197.055 10.0384615384615 130.5S63.945 10.0384615384615 130.5 10.0384615384615S250.9615384615385 63.945 250.9615384615385 130.5S197.055 250.9615384615385 130.5 250.9615384615385zM87.435 93.2573076923077C66.8561538461539 93.2573076923077 50.1923076923077 109.9211538461539 50.1923076923077 130.5S66.8561538461539 167.7426923076923 87.435 167.7426923076923S124.6776923076923 151.0788461538462 124.6776923076923 130.5S108.0138461538462 93.2573076923077 87.435 93.2573076923077zM173.565 93.2573076923077C152.9861538461539 93.2573076923077 136.3223076923077 109.9211538461539 136.3223076923077 130.5S152.9861538461539 167.7426923076923 173.565 167.7426923076923S210.8076923076923 151.0788461538462 210.8076923076923 130.5S194.1438461538462 93.2573076923077 173.565 93.2573076923077z" />
    <glyph glyph-name="globe"
      unicode="&#xF11E;"
      horiz-adv-x="261" d=" M131.5038461538462 250.9615384615385C64.9488461538462 250.9615384615385 11.0423076923077 197.055 11.0423076923077 130.5S64.9488461538462 10.0384615384615 131.5038461538462 10.0384615384615S251.9653846153846 63.945 251.9653846153846 130.5S198.0588461538462 250.9615384615385 131.5038461538462 250.9615384615385zM103.9984615384615 227.07C89.8442307692308 214.1203846153846 78.6011538461539 198.36 71.2730769230769 180.6923076923077H44.5707692307692C57.6207692307692 203.1784615384615 78.9023076923077 219.8423076923077 103.9984615384615 227.07zM35.7369230769231 160.6153846153846H64.7480769230769C62.4392307692308 150.7776923076923 61.2346153846154 140.6388461538462 61.2346153846154 130.5S62.4392307692308 110.2223076923077 64.7480769230769 100.3846153846154H35.7369230769231C29.5130769230769 119.9596153846154 29.5130769230769 141.0403846153846 35.7369230769231 160.6153846153846zM103.8980769230769 33.93C82.0142307692308 40.2542307692308 62.9411538461539 53.8061538461539 49.7907692307692 72.1765384615385C49.3892307692308 72.6784615384615 49.0880769230769 73.2807692307692 48.6865384615385 73.7826923076923C48.1846153846154 74.5857692307693 47.5823076923077 75.2884615384616 47.0803846153846 76.0915384615385C46.1769230769231 77.4969230769231 45.3738461538462 78.8019230769231 44.5707692307692 80.2073076923077H71.2730769230769C78.7015384615385 62.64 89.8442307692308 46.8796153846154 103.8980769230769 33.93C103.8980769230769 33.93 103.8980769230769 33.93 103.8980769230769 33.93C103.8980769230769 33.93 103.8980769230769 33.93 103.8980769230769 33.93zM121.4653846153846 45.2734615384615C109.8207692307692 54.9103846153846 100.1838461538462 66.7557692307692 93.3576923076923 80.3076923076923H121.4653846153846V45.2734615384615zM121.4653846153846 100.3846153846154H85.4273076923077C79.9061538461538 120.06 79.9061538461538 140.94 85.4273076923077 160.6153846153846H121.4653846153846V100.3846153846154zM121.4653846153846 180.6923076923077H93.3576923076923C100.1838461538462 194.1438461538462 109.8207692307692 206.0896153846154 121.4653846153846 215.7265384615385V180.6923076923077zM218.4369230769231 180.6923076923077H218.3365384615385H191.7346153846154C184.3061538461539 198.36 173.1634615384616 214.1203846153846 159.0092307692308 227.07C184.1053846153846 219.8423076923077 205.3869230769231 203.1784615384615 218.4369230769231 180.6923076923077zM141.5423076923077 215.6261538461539C152.0826923076923 206.9930769230769 160.8161538461539 196.4526923076923 167.5419230769231 184.6073076923077C168.2446153846154 183.3023076923077 168.9473076923077 181.9973076923077 169.65 180.6923076923077H141.5423076923077V215.6261538461539zM141.5423076923077 160.6153846153846H177.48C180.2907692307693 150.7776923076923 181.6961538461538 140.6388461538462 181.6961538461538 130.5S180.2907692307692 110.2223076923077 177.5803846153846 100.3846153846154H177.48H141.5423076923077V160.6153846153846zM141.5423076923077 45.2734615384615V80.3076923076923H169.65C162.8238461538462 66.7557692307692 153.1869230769231 54.9103846153846 141.5423076923077 45.2734615384615zM187.0165384615385 46.98C178.4838461538462 41.2580769230769 169.0476923076923 36.8411538461539 159.0092307692308 33.93C165.1326923076923 39.5515384615385 170.7542307692308 45.675 175.7734615384615 52.3003846153846C182.1980769230769 60.9334615384616 187.6188461538462 70.2692307692308 191.7346153846154 80.3076923076924H218.3365384615385C210.5065384615385 66.7557692307692 199.7653846153846 55.5126923076923 187.0165384615385 46.98zM198.2596153846154 100.3846153846154C202.9776923076923 120.1603846153846 202.9776923076923 140.8396153846154 198.2596153846154 160.6153846153846H227.2707692307693C233.4946153846154 141.0403846153846 233.4946153846154 119.9596153846154 227.2707692307693 100.3846153846154H198.2596153846154z M64.7480769230769 100.3846153846154C62.4392307692308 110.2223076923077 61.2346153846154 120.3611538461539 61.2346153846154 130.5S62.4392307692308 150.7776923076923 64.7480769230769 160.6153846153846C60.03 140.8396153846154 60.03 120.1603846153846 64.7480769230769 100.3846153846154z M35.7369230769231 160.6153846153846C29.5130769230769 141.0403846153846 29.5130769230769 119.9596153846154 35.7369230769231 100.3846153846154C32.7253846153846 110.1219230769231 31.1192307692308 120.2607692307693 31.1192307692308 130.5S32.7253846153846 150.8780769230769 35.7369230769231 160.6153846153846z M49.7907692307692 72.1765384615385C62.9411538461539 53.8061538461539 82.0142307692308 40.2542307692308 103.8980769230769 33.93C103.8980769230769 33.93 103.8980769230769 33.93 103.8980769230769 33.93C81.9138461538462 40.3546153846154 62.9411538461539 53.8061538461539 49.7907692307692 72.1765384615385z M175.7734615384615 52.3003846153846C170.8546153846154 45.675 165.2330769230769 39.5515384615385 159.0092307692308 33.93C165.1326923076923 39.5515384615385 170.7542307692308 45.675 175.7734615384615 52.3003846153846z M187.0165384615385 46.98C199.7653846153846 55.5126923076923 210.5065384615385 66.7557692307692 218.3365384615385 80.3076923076923C210.5065384615385 66.8561538461538 199.7653846153846 55.5126923076923 187.0165384615385 46.98z M141.5423076923077 45.2734615384615C153.1869230769231 54.9103846153846 162.8238461538462 66.7557692307692 169.65 80.3076923076923C162.8238461538462 66.8561538461538 153.1869230769231 54.9103846153846 141.5423076923077 45.2734615384615z M177.48 100.3846153846154H177.5803846153846C180.2907692307692 110.2223076923077 181.6961538461538 120.3611538461539 181.6961538461538 130.5S180.2907692307692 150.7776923076923 177.48 160.6153846153846C183.0011538461539 140.94 183.0011538461539 120.06 177.48 100.3846153846154z M71.2730769230769 80.3076923076923C78.6011538461539 62.64 89.8442307692308 46.8796153846154 103.8980769230769 33.93C103.9984615384615 33.93 103.9984615384615 33.93 103.9984615384615 33.93C89.8442307692308 46.8796153846154 78.7015384615385 62.64 71.2730769230769 80.3076923076923z M93.3576923076923 80.3076923076923C100.1838461538462 66.7557692307692 109.8207692307692 54.9103846153846 121.4653846153846 45.2734615384615C109.8207692307692 54.9103846153846 100.1838461538462 66.8561538461538 93.3576923076923 80.3076923076923z M85.4273076923077 160.6153846153846C79.9061538461538 140.94 79.9061538461538 120.06 85.4273076923077 100.3846153846154C82.7169230769231 110.2223076923077 81.3115384615385 120.3611538461539 81.3115384615385 130.5S82.7169230769231 150.7776923076923 85.4273076923077 160.6153846153846z M218.3365384615385 180.6923076923077H218.4369230769231C205.3869230769231 203.1784615384615 184.1053846153846 219.8423076923077 159.0092307692308 227.07C184.005 219.8423076923077 205.2865384615385 203.1784615384615 218.3365384615385 180.6923076923077z M167.5419230769231 184.6073076923077C160.8161538461539 196.4526923076923 152.0826923076923 206.9930769230769 141.5423076923077 215.6261538461539C151.9823076923077 206.9930769230769 160.8161538461539 196.4526923076923 167.5419230769231 184.6073076923077z M175.7734615384615 52.3003846153846C182.1980769230769 60.9334615384615 187.6188461538462 70.2692307692308 191.7346153846154 80.3076923076923C187.5184615384615 70.3696153846154 182.1980769230769 60.9334615384615 175.7734615384615 52.3003846153846z M187.0165384615385 46.98C178.4838461538462 41.2580769230769 169.0476923076923 36.8411538461539 159.0092307692308 33.93C169.0476923076923 36.8411538461538 178.4838461538462 41.2580769230769 187.0165384615385 46.98z M227.2707692307693 160.6153846153846C233.3942307692308 141.0403846153846 233.3942307692308 119.9596153846154 227.2707692307693 100.3846153846154C233.4946153846154 119.9596153846154 233.4946153846154 141.0403846153846 227.2707692307693 160.6153846153846z" />
    <glyph glyph-name="google-drive"
      unicode="&#xF11F;"
      horiz-adv-x="261" d=" M159.9126923076923 120.4615384615385L239.5176923076923 120.4615384615385L170.6538461538462 240.923076923077L90.3461538461538 240.923076923077L90.3461538461538 240.923076923077z M73.3811538461538 30.1153846153846L210.8076923076923 30.1153846153846L250.9615384615385 100.3846153846154L113.9365384615385 100.3846153846154z M50.1923076923077 30.1153846153846L119.5580769230769 150.1753846153846L78.8019230769231 220.7457692307692L10.0384615384615 100.3846153846154L50.1923076923077 30.1153846153846z" />
    <glyph glyph-name="google-hangouts"
      unicode="&#xF120;"
      horiz-adv-x="261" d=" M130.9015384615385 250.9615384615385C69.8676923076923 250.9615384615385 20.4784615384615 201.7730769230769 20.4784615384615 141.1407692307692C20.4784615384615 83.4196153846154 72.7788461538462 36.54 130.9015384615385 36.54V0C197.7576923076923 32.4242307692308 241.3246153846154 85.9292307692308 241.3246153846154 141.1407692307692C241.3246153846154 201.7730769230769 191.9353846153846 250.9615384615385 130.9015384615385 250.9615384615385zM122.67 123.4730769230769C122.67 109.0176923076923 113.3342307692308 97.3730769230769 101.79 97.3730769230769V123.4730769230769H75.69V170.5534615384615H122.7703846153846L122.67 123.4730769230769zM186.3138461538462 123.4730769230769C186.3138461538462 109.0176923076923 176.9780769230769 97.3730769230769 165.4338461538461 97.3730769230769V123.4730769230769H139.3338461538462V170.5534615384615H186.4142307692308L186.3138461538462 123.4730769230769z" />
    <glyph glyph-name="google-plus-simple"
      unicode="&#xF121;"
      horiz-adv-x="261" d=" M85.5276923076923 150.6773076923077V118.755H128.5926923076923C119.7588461538462 95.4657692307692 93.8596153846154 83.8211538461539 70.5703846153846 92.5546153846154C47.2811538461539 101.3884615384615 35.5361538461538 127.3880769230769 44.37 150.5769230769231S79.1030769230769 185.6111538461539 102.3923076923077 176.7773076923077C107.2107692307692 174.9703846153846 111.6276923076923 172.3603846153846 115.5426923076923 169.0476923076923L138.0288461538462 191.1323076923077C106.9096153846154 219.5411538461538 58.725 217.2323076923077 30.3161538461539 186.1130769230769S4.2161538461538 106.8092307692307 35.3353846153846 78.4003846153846S114.6392307692308 52.3003846153846 143.0480769230769 83.4196153846154C159.6115384615385 101.5892307692308 166.4376923076923 126.585 161.3180769230769 150.6773076923077L85.5276923076923 150.6773076923077z M224.3596153846154 148.2680769230769L224.3596153846154 174.87L204.9853846153846 174.87L204.9853846153846 148.2680769230769L178.3834615384615 148.2680769230769L178.3834615384615 128.8938461538462L204.9853846153846 128.8938461538462L204.9853846153846 102.2919230769231L224.3596153846154 102.2919230769231L224.3596153846154 128.8938461538462L250.9615384615385 128.8938461538462L250.9615384615385 148.2680769230769z" />
    <glyph glyph-name="google-plus"
      unicode="&#xF122;"
      horiz-adv-x="261" d=" M130.0984615384615 250.9615384615385C63.7442307692308 250.9615384615385 10.0384615384615 197.2557692307692 10.0384615384615 130.9015384615385S63.7442307692308 10.8415384615385 130.0984615384615 10.8415384615385S250.1584615384615 64.5473076923077 250.1584615384615 130.9015384615385L250.1584615384615 130.9015384615385C250.1584615384615 197.2557692307692 196.3523076923077 250.9615384615385 130.0984615384615 250.9615384615385zM105.1026923076923 75.1880769230769C74.2846153846154 75.1880769230769 49.3892307692308 100.0834615384616 49.3892307692308 130.9015384615385C49.3892307692308 161.7196153846154 74.2846153846154 186.615 105.1026923076923 186.615C119.0561538461539 186.615 132.4073076923077 181.395 142.7469230769231 172.0592307692308L126.2838461538462 155.9976923076923C112.5311538461538 167.7426923076923 91.8519230769231 166.0361538461539 80.1069230769231 152.183076923077S70.0684615384615 117.7511538461539 83.9215384615385 106.0061538461539C89.8442307692308 100.9869230769231 97.3730769230769 98.2765384615385 105.1026923076923 98.2765384615385C119.1565384615385 98.2765384615385 131.1023076923077 106.5080769230769 135.72 119.558076923077H104.4V142.6465384615385H159.6115384615385C160.4146153846154 138.8319230769231 160.8161538461539 134.9169230769231 160.8161538461539 131.0019230769231C160.8161538461539 100.1838461538462 135.9207692307692 75.1880769230769 105.1026923076923 75.1880769230769C105.1026923076923 75.1880769230769 105.1026923076923 75.1880769230769 105.1026923076923 75.1880769230769zM205.7884615384616 126.4846153846154V107.4115384615385H191.7346153846154V126.4846153846154H171.6576923076923V140.5384615384616H191.7346153846154V160.6153846153846H205.7884615384616V140.5384615384616H224.8615384615385V126.4846153846154H205.7884615384616z" />
    <glyph glyph-name="hashtag"
      unicode="&#xF123;"
      horiz-adv-x="261" d=" M250.9615384615385 160.6153846153846V190.7307692307692H217.2323076923077L230.8846153846154 240.923076923077H200.7692307692308L187.1169230769231 190.7307692307692H116.8476923076923L130.5 240.923076923077H100.3846153846154L86.7323076923077 190.7307692307692H50.1923076923077L20.0769230769231 160.6153846153846H78.5007692307692L62.0376923076923 100.3846153846154H20.0769230769231V70.2692307692308H53.8061538461539L40.1538461538462 20.0769230769231H70.2692307692308L83.9215384615385 70.2692307692308H154.1907692307692L140.5384615384616 20.0769230769231H170.6538461538462L184.3061538461539 70.2692307692308H220.8461538461539L250.9615384615385 100.3846153846154H192.5376923076923L209.0007692307692 160.6153846153846H250.9615384615385zM162.4223076923077 100.3846153846154H92.1530769230769L108.6161538461539 160.6153846153846H178.8853846153846L162.4223076923077 100.3846153846154z" />
    <glyph glyph-name="help"
      unicode="&#xF124;"
      horiz-adv-x="261" d=" M130.5 250.9615384615385C63.945 250.9615384615385 10.0384615384615 197.055 10.0384615384615 130.5S63.945 10.0384615384615 130.5 10.0384615384615S250.9615384615385 63.945 250.9615384615385 130.5S197.055 250.9615384615385 130.5 250.9615384615385zM130.5 60.2307692307692C122.1680769230769 60.2307692307692 115.4423076923077 66.9565384615385 115.4423076923077 75.2884615384616S122.1680769230769 90.3461538461538 130.5 90.3461538461538S145.5576923076923 83.6203846153846 145.5576923076923 75.2884615384616S138.8319230769231 60.2307692307692 130.5 60.2307692307692L130.5 60.2307692307692zM153.0865384615385 130.9015384615385C139.5346153846154 122.9711538461539 139.635 119.6584615384616 139.635 102.9946153846154H119.9596153846154C119.5580769230769 107.01 119.3573076923077 111.0253846153846 119.3573076923077 115.1411538461538C119.3573076923077 127.89 126.3842307692308 135.3184615384615 135.1176923076923 140.6388461538462C143.3492307692308 145.8588461538462 147.0634615384615 149.573076923077 147.0634615384615 157.8046153846154C147.0634615384615 164.5303846153846 142.0442307692308 169.2484615384615 133.11 169.2484615384615C123.2723076923077 169.2484615384615 113.3342307692308 162.3219230769231 107.5119230769231 154.5923076923077L93.0565384615385 169.8507692307692C102.0911538461539 181.2946153846154 115.9442307692308 190.7307692307692 135.6196153846154 190.7307692307692C158.2061538461538 190.7307692307692 170.6538461538462 177.7811538461539 170.6538461538462 160.0130769230769C170.6538461538462 144.3530769230769 162.7234615384615 136.7238461538462 153.0865384615385 130.9015384615385z" />
    <glyph glyph-name="identified-call"
      unicode="&#xF125;"
      horiz-adv-x="261" d=" M229.0776923076923 51.4973076923077L178.0823076923077 94.2611538461539C175.4723076923077 96.3692307692308 171.6576923076923 96.2688461538462 169.1480769230769 93.8596153846154L161.7196153846154 86.4311538461539L160.2138461538461 84.9253846153846L144.855 69.5665384615384C125.3803846153846 76.7942307692308 107.6123076923077 88.1376923076923 92.8557692307692 102.7938461538462C78.0992307692307 117.45 66.7557692307692 135.2180769230769 59.6284615384615 154.7930769230769L74.9873076923077 170.1519230769231L76.4930769230769 171.5573076923077L83.9215384615384 178.9857692307692C86.2303846153846 181.4953846153846 86.4311538461538 185.31 84.2226923076923 188.0203846153846L41.5592307692308 239.0157692307692C39.6519230769231 241.3246153846154 36.2388461538462 241.7261538461539 33.93 239.8188461538462C33.7292307692308 239.7184615384616 33.5284615384615 239.5176923076923 33.4280769230769 239.3169230769231L14.2546153846154 220.1434615384615C13.8530769230769 219.8423076923077 13.4515384615385 219.4407692307692 13.1503846153846 219.0392307692308L10.8415384615385 216.7303846153846L10.8415384615385 216.8307692307693H10.6407692307692C4.4169230769231 114.6392307692308 82.3153846153846 26.7023076923077 184.5069230769231 20.4784615384615C191.9353846153846 20.0769230769231 199.4642307692308 20.0769230769231 206.8926923076923 20.4784615384615L206.7923076923077 20.6792307692308L206.7923076923077 20.6792307692308L209.1011538461539 22.9880769230769L210.2053846153847 24.0923076923077L229.3788461538462 43.2657692307692C231.5873076923077 45.3738461538462 231.5873076923077 48.7869230769231 229.4792307692308 50.9953846153846C229.4792307692308 51.1961538461539 229.2784615384616 51.2965384615385 229.0776923076923 51.4973076923077z M173.6653846153846 155.295L250.6603846153846 232.29L236.5061538461539 246.4442307692308L158.4069230769231 168.4453846153846L129.9980769230769 196.7538461538462L115.8438461538462 182.5996153846154L158.4069230769231 140.0365384615385z" />
    <glyph glyph-name="incoming-call"
      unicode="&#xF126;"
      horiz-adv-x="261" d=" M228 42.2L177.2 84.8C174.7 86.9 170.7 86.8 168.3 84.4L160.9 77C160.4 76.5 159.9 76 159.4 75.5L144.1 60.2C125.4 67 107.2 78.5 92.3 93.3C77 108.6 65.9 126.4 59.2 145.1L74.5 160.4C75 160.9 75.5 161.4 76 161.9L83.4 169.3C85.7 171.6 85.8 175.7 83.7 178.2L41.2 229C39.1 231.5 35.5 231.7 33.1 229.3L14 210.2C13.6 209.8 13.1 209.5 12.9 209.1L10.6 206.8L10.5 206.9H10.3C7.3 155.9 25.2 104 64.1 65.1C103 26.2 154.9 8.3 205.9 11.3L205.8 11.5L208.1 13.8C208.5 14.2 208.8 14.5 209.2 14.9L228.3 34C230.7 36.4 230.5 40 228 42.2z M170 151L220 151L250 181L170 181L170 211L120 166L170 121z" />
    <glyph glyph-name="info"
      unicode="&#xF127;"
      horiz-adv-x="261" d=" M130.5 250.9615384615385C63.945 250.9615384615385 10.0384615384615 197.055 10.0384615384615 130.5S63.945 10.0384615384615 130.5 10.0384615384615S250.9615384615385 63.945 250.9615384615385 130.5S197.055 250.9615384615385 130.5 250.9615384615385zM140.5384615384616 60.2307692307692L120.4615384615385 80.3076923076923V150.5769230769231H140.5384615384616V60.2307692307692zM130.5 170.6538461538462C122.1680769230769 170.6538461538462 115.4423076923077 177.3796153846154 115.4423076923077 185.7115384615385S122.1680769230769 200.7692307692308 130.5 200.7692307692308S145.5576923076923 194.0434615384616 145.5576923076923 185.7115384615385S138.8319230769231 170.6538461538462 130.5 170.6538461538462z" />
    <glyph glyph-name="instagram-simple"
      unicode="&#xF128;"
      horiz-adv-x="261" d=" M130.5 181.9973076923077C101.9907692307692 181.9973076923077 79.0026923076923 158.9088461538462 79.0026923076923 130.5S102.0911538461539 79.0026923076923 130.6003846153846 79.0026923076923S182.0976923076923 102.0911538461539 182.0976923076923 130.5S159.0092307692308 181.9973076923077 130.5 181.9973076923077C130.5 181.9973076923077 130.5 181.9973076923077 130.5 181.9973076923077M130.5 97.0719230769231C112.0292307692308 97.0719230769231 97.0719230769231 112.0292307692308 97.0719230769231 130.5S112.0292307692308 163.9280769230769 130.5 163.9280769230769S163.9280769230769 148.9707692307692 163.9280769230769 130.5L163.9280769230769 130.5C163.9280769230769 112.0292307692308 148.9707692307692 97.0719230769231 130.5 97.0719230769231 M196.1515384615385 184.1053846153846C196.1515384615385 177.48 190.7307692307692 172.0592307692308 184.1053846153846 172.0592307692308S172.0592307692308 177.48 172.0592307692308 184.1053846153846S177.48 196.1515384615385 184.1053846153846 196.1515384615385S196.1515384615385 190.7307692307692 196.1515384615385 184.1053846153846 M130.5 212.8153846153846C157.3026923076923 212.8153846153846 160.515 212.715 171.0553846153846 212.2130769230769C180.8930769230769 211.8115384615385 186.1130769230769 210.105 189.7269230769231 208.8C198.4603846153846 205.3869230769231 205.3869230769231 198.4603846153846 208.8 189.7269230769231C210.2053846153846 186.2134615384616 211.8115384615385 180.8930769230769 212.2130769230769 171.0553846153847C212.715 160.4146153846154 212.8153846153846 157.3026923076923 212.8153846153846 130.5S212.715 100.485 212.2130769230769 89.9446153846154C211.8115384615385 80.1069230769231 210.105 74.8869230769231 208.8 71.2730769230769C205.3869230769231 62.5396153846154 198.4603846153846 55.6130769230769 189.7269230769231 52.2C186.2134615384615 50.7946153846154 180.8930769230769 49.1884615384616 171.0553846153846 48.7869230769231C160.515 48.285 157.3026923076923 48.1846153846154 130.5 48.1846153846154S100.485 48.285 89.9446153846154 48.7869230769231C80.1069230769231 49.1884615384616 74.8869230769231 50.895 71.2730769230769 52.2C62.5396153846154 55.6130769230769 55.6130769230769 62.5396153846154 52.2 71.2730769230769C50.7946153846154 74.7865384615385 49.1884615384615 80.1069230769231 48.7869230769231 89.9446153846154C48.285 100.485 48.1846153846154 103.6973076923077 48.1846153846154 130.5S48.285 160.515 48.7869230769231 171.0553846153847C49.1884615384615 180.8930769230769 50.895 186.1130769230769 52.2 189.7269230769231C55.6130769230769 198.4603846153846 62.5396153846154 205.3869230769231 71.2730769230769 208.8C74.7865384615385 210.2053846153846 80.1069230769231 211.8115384615385 89.9446153846154 212.2130769230769C100.485 212.715 103.6973076923077 212.8153846153846 130.5 212.8153846153846M130.5 230.8846153846154C103.1953846153846 230.8846153846154 99.7823076923077 230.7842307692308 89.1415384615385 230.2823076923077S71.1726923076923 228.0738461538462 64.7480769230769 225.6646153846154C51.2965384615385 220.4446153846154 40.5553846153846 209.8038461538462 35.4357692307692 196.3523076923077C32.9261538461538 189.9276923076923 31.2196153846154 182.7 30.8180769230769 171.9588461538462S30.1153846153846 157.8046153846154 30.1153846153846 130.5S30.2157692307692 99.7823076923077 30.7176923076923 89.1415384615385S32.9261538461539 71.1726923076923 35.3353846153846 64.7480769230769C40.5553846153846 51.2965384615385 51.1961538461539 40.5553846153846 64.6476923076923 35.4357692307692C71.0723076923077 32.9261538461539 78.3 31.2196153846154 89.0411538461539 30.8180769230769S103.1953846153846 30.2157692307693 130.3996153846154 30.2157692307693S161.1173076923077 30.3161538461539 171.758076923077 30.8180769230769S189.7269230769231 33.0265384615385 196.1515384615385 35.4357692307692C209.603076923077 40.6557692307692 220.3442307692308 51.2965384615385 225.4638461538462 64.7480769230769C227.9734615384616 71.1726923076923 229.68 78.4003846153846 230.0815384615385 89.1415384615385S230.6838461538462 103.2957692307693 230.6838461538462 130.5S230.5834615384616 161.2176923076923 230.0815384615385 171.8584615384616S227.873076923077 189.8273076923077 225.4638461538462 196.2519230769231C220.2438461538462 209.7034615384616 209.603076923077 220.4446153846154 196.1515384615385 225.5642307692308C189.7269230769231 228.0738461538462 182.4992307692308 229.7803846153846 171.758076923077 230.1819230769231S157.8046153846154 230.8846153846154 130.5 230.8846153846154" />
    <glyph glyph-name="instagram"
      unicode="&#xF129;"
      horiz-adv-x="261" d=" M105.4038461538462 130.1988461538462C105.4038461538462 116.338623105208 116.6397769513618 105.1026923076923 130.5 105.1026923076923C144.3602230486382 105.1026923076923 155.5961538461539 116.338623105208 155.5961538461539 130.1988461538462C155.5961538461539 144.0590692024844 144.3602230486382 155.295 130.5 155.295C116.6397769513618 155.295 105.4038461538462 144.0590692024844 105.4038461538462 130.1988461538462z M189.225 174.5688461538462C186.7153846153846 181.0938461538462 181.4953846153846 186.3138461538462 174.9703846153846 188.8234615384616C172.3603846153846 189.8273076923077 168.345 191.0319230769231 161.0169230769231 191.4334615384615C153.0865384615385 191.835 150.6773076923077 191.835 130.6003846153846 191.835S108.1142307692308 191.7346153846154 100.1838461538462 191.4334615384615C92.8557692307692 191.1323076923077 88.8403846153846 189.8273076923077 86.2303846153846 188.8234615384616C79.7053846153846 186.3138461538462 74.4853846153846 181.0938461538462 71.9757692307692 174.5688461538462C70.9719230769231 171.9588461538462 69.7673076923077 167.9434615384616 69.3657692307692 160.6153846153846C68.9642307692308 152.685 68.9642307692308 150.2757692307693 68.9642307692308 130.1988461538462S69.0646153846154 107.7126923076923 69.3657692307692 99.7823076923077C69.6669230769231 92.4542307692308 70.9719230769231 88.4388461538461 71.9757692307692 85.8288461538461C74.4853846153846 79.3038461538461 79.7053846153846 74.0838461538461 86.2303846153846 71.5742307692308C88.8403846153846 70.5703846153846 92.8557692307692 69.3657692307692 100.1838461538462 68.9642307692308C108.1142307692308 68.5626923076923 110.5234615384615 68.5626923076923 130.6003846153846 68.5626923076923S153.0865384615385 68.6630769230769 161.0169230769231 68.9642307692308C168.345 69.2653846153846 172.3603846153846 70.5703846153846 174.9703846153846 71.5742307692308C181.4953846153846 74.0838461538461 186.7153846153846 79.3038461538461 189.225 85.8288461538461C190.2288461538462 88.4388461538461 191.4334615384615 92.4542307692308 191.835 99.7823076923077C192.2365384615385 107.7126923076923 192.2365384615385 110.1219230769231 192.2365384615385 130.1988461538462S192.1361538461539 152.685 191.835 160.6153846153846C191.4334615384615 167.9434615384615 190.2288461538462 171.8584615384616 189.225 174.5688461538462zM130.5 91.4503846153846C109.1180769230769 91.4503846153846 91.8519230769231 108.7165384615385 91.8519230769231 130.0984615384615S109.1180769230769 168.7465384615385 130.5 168.7465384615385S169.1480769230769 151.4803846153846 169.1480769230769 130.0984615384615C169.1480769230769 130.0984615384615 169.1480769230769 130.0984615384615 169.1480769230769 130.0984615384615C169.1480769230769 108.8169230769231 151.8819230769231 91.4503846153846 130.5 91.4503846153846zM170.6538461538462 161.318076923077C165.6346153846154 161.318076923077 161.6192307692308 165.3334615384616 161.6192307692308 170.3526923076923S165.6346153846154 179.3873076923077 170.6538461538462 179.3873076923077S179.6884615384615 175.3719230769231 179.6884615384615 170.3526923076923C179.6884615384615 165.4338461538462 175.6730769230769 161.318076923077 170.6538461538462 161.318076923077L170.6538461538462 161.318076923077z M130.5 250.6603846153846C63.945 250.6603846153846 10.0384615384615 196.7538461538462 10.0384615384615 130.1988461538462S63.945 9.7373076923077 130.5 9.7373076923077S250.9615384615385 63.6438461538461 250.9615384615385 130.1988461538462L250.9615384615385 130.1988461538462C250.9615384615385 196.6534615384616 197.055 250.6603846153846 130.5 250.6603846153846zM205.3869230769231 99.0796153846154C205.2865384615385 92.8557692307692 204.0819230769231 86.6319230769231 201.8734615384615 80.8096153846154C197.9584615384615 70.6707692307693 189.9276923076923 62.7403846153846 179.8892307692308 58.8253846153846C174.0669230769231 56.6169230769231 167.9434615384615 55.4123076923077 161.7196153846154 55.3119230769231C153.6888461538462 54.9103846153846 151.0788461538462 54.9103846153846 130.7007692307692 54.9103846153846S107.7126923076923 55.0107692307692 99.6819230769231 55.3119230769231C93.4580769230769 55.4123076923077 87.2342307692308 56.6169230769231 81.3115384615385 58.8253846153846C71.1726923076923 62.7403846153846 63.2423076923077 70.7711538461539 59.3273076923077 80.8096153846154C57.1188461538461 86.6319230769231 55.9142307692308 92.8557692307692 55.8138461538461 99.0796153846154C55.4123076923077 107.1103846153846 55.3119230769231 109.7203846153846 55.3119230769231 130.0984615384615S55.4123076923077 153.0865384615385 55.8138461538461 161.1173076923077C55.9142307692308 167.3411538461539 57.1188461538461 173.565 59.3273076923077 179.3873076923077C63.2423076923077 189.5261538461539 71.1726923076923 197.4565384615385 81.3115384615385 201.3715384615385C87.1338461538461 203.58 93.3576923076923 204.7846153846154 99.5815384615384 204.885C107.6123076923077 205.2865384615385 110.2223076923077 205.3869230769231 130.6003846153846 205.3869230769231S153.5884615384615 205.2865384615385 161.6192307692308 204.885C167.8430769230769 204.7846153846154 174.0669230769231 203.58 179.8892307692308 201.3715384615385C190.0280769230769 197.4565384615385 197.9584615384615 189.4257692307692 201.8734615384615 179.3873076923077C204.0819230769231 173.565 205.2865384615385 167.3411538461539 205.3869230769231 161.1173076923077C205.7884615384616 153.0865384615385 205.7884615384616 150.4765384615385 205.7884615384616 130.0984615384615S205.6880769230769 107.1103846153846 205.3869230769231 99.0796153846154L205.3869230769231 99.0796153846154z" />
    <glyph glyph-name="language"
      unicode="&#xF12A;"
      horiz-adv-x="261" d=" M170.6538461538462 220.8461538461539L150.5769230769231 240.923076923077H30.1153846153846V20.0769230769231H60.2307692307692V109.4192307692308H131.2026923076923L150.5769230769231 89.3423076923077H230.8846153846154V220.8461538461539H170.6538461538462zM60.2307692307692 130.5V210.8076923076923L140.5384615384616 130.5H60.2307692307692z" />
    <glyph glyph-name="like"
      unicode="&#xF12B;"
      horiz-adv-x="261" d=" M250.9615384615385 176.4761538461539C250.9615384615385 212.0123076923077 223.9580769230769 240.923076923077 190.7307692307692 240.923076923077C160.4146153846154 240.923076923077 135.3184615384616 216.9311538461539 131.1023076923077 185.7115384615385H129.7973076923077C125.6815384615385 216.9311538461539 100.5853846153846 240.923076923077 70.2692307692308 240.923076923077C37.0419230769231 240.923076923077 10.0384615384615 212.1126923076923 10.0384615384615 176.4761538461539C10.0384615384615 173.2638461538462 10.0384615384615 170.2523076923077 10.0384615384615 167.2407692307692C10.0384615384615 93.6588461538462 130.5 20.0769230769231 130.5 20.0769230769231S250.9615384615385 93.6588461538462 250.9615384615385 167.3411538461538C250.9615384615385 170.2523076923077 250.9615384615385 173.2638461538462 250.9615384615385 176.4761538461539z" />
    <glyph glyph-name="linkedin-simple"
      unicode="&#xF12C;"
      horiz-adv-x="261" d=" M31.9223076923077 167.1403846153846H75.2884615384615V41.2580769230769H31.9223076923077V167.1403846153846z M178.9857692307693 170.2523076923077C160.9165384615385 170.2523076923077 149.8742307692308 163.6269230769231 138.4303846153846 148.9707692307692V167.1403846153846H96.0680769230769V41.2580769230769H138.4303846153846V108.9173076923077C138.4303846153846 123.1719230769231 146.3607692307693 137.1253846153846 162.7234615384615 137.1253846153846S184.6073076923077 123.1719230769231 184.6073076923077 109.2184615384615V41.1576923076923H227.8730769230769V111.9288461538462C227.8730769230769 161.2176923076923 196.9546153846154 170.2523076923077 178.9857692307693 170.2523076923077z M53.8061538461539 228.1742307692308C40.3546153846154 228.1742307692308 29.5130769230769 218.3365384615385 29.5130769230769 206.19S40.3546153846154 184.2057692307693 53.8061538461539 184.2057692307693S78.0992307692308 194.0434615384616 78.0992307692308 206.19S67.1573076923077 228.1742307692308 53.8061538461539 228.1742307692308z" />
    <glyph glyph-name="linkedin"
      unicode="&#xF12D;"
      horiz-adv-x="261" d=" M130.9015384615385 250.1584615384616C64.6476923076923 250.1584615384616 10.8415384615385 196.4526923076923 10.8415384615385 130.0984615384615S64.6476923076923 10.0384615384615 130.9015384615385 10.0384615384615S250.9615384615385 63.7442307692308 250.9615384615385 130.0984615384615S197.2557692307692 250.1584615384616 130.9015384615385 250.1584615384616C130.9015384615385 250.1584615384616 130.9015384615385 250.1584615384616 130.9015384615385 250.1584615384616zM100.3846153846154 80.3076923076923H72.2769230769231V163.6269230769231H100.3846153846154V80.3076923076923zM86.2303846153846 174.87C77.3965384615385 174.87 70.2692307692308 181.395 70.2692307692308 189.3253846153846S77.3965384615385 203.7807692307693 86.2303846153846 203.7807692307693S102.1915384615385 197.2557692307692 102.1915384615385 189.3253846153846S95.0642307692308 174.87 86.2303846153846 174.87zM200.7692307692308 80.3076923076923H172.6615384615385V125.4807692307692C172.6615384615385 134.7161538461539 168.6461538461539 143.8511538461539 157.905 143.8511538461539S141.5423076923077 134.6157692307692 141.5423076923077 125.28V80.3076923076923H114.4384615384616V163.6269230769231H141.5423076923077V151.6811538461539C149.5730769230769 161.3180769230769 156.4996153846154 165.6346153846154 168.4453846153846 165.6346153846154S200.7692307692308 159.7119230769231 200.7692307692308 127.2876923076923V80.3076923076923z" />
    <glyph glyph-name="lost-call"
      unicode="&#xF12E;"
      horiz-adv-x="261" d=" M250 52.3L250.1 52.4C220.7 85.5 177.8 106.4 130.1 106.4C82.3 106.4 39.5 85.5 10.1 52.4L10.3 52.3V49.5C10.3 49.1 10.3 48.6 10.3 48.1V24.7C10.1 21.8 12.5 19.6 15.4 19.9L72.7 24.9C75.6 25.2 77.9 27.7 77.9 30.6V39.7C77.9 40.3 77.9 40.9 77.9 41.5V60.3C93.5 67.6 111.8 71.7 130 71.7C148.7 71.7 166.5 67.6 182.1 60.3V41.5C182.1 40.9 182.1 40.3 182.1 39.7V30.6C182.1 27.7 184.5 25.2 187.4 24.9L244.7 19.9C247.6 19.6 249.9 21.8 249.9 24.7V48.1C249.9 48.6 250 49 249.9 49.5L250 52.3L250 52.3z M180 179.8L200 159.8L200 219.8L140 219.8L160 199.8L130 169.8L80 219.8L60 199.8L130 129.8z" />
    <glyph glyph-name="microphone"
      unicode="&#xF12F;"
      horiz-adv-x="261" d=" M120.3611538461539 130.5H81.0103846153846C86.7323076923077 103.1953846153846 113.535 85.7284615384616 140.8396153846154 91.4503846153846C164.1288461538462 96.3692307692308 180.8930769230769 116.8476923076923 180.9934615384616 140.6388461538462V210.7073076923077C180.9934615384616 238.6142307692308 158.4069230769231 261.2007692307693 130.5 261.2007692307693S80.0065384615385 238.6142307692308 80.0065384615385 210.7073076923077V190.7307692307692H140.6388461538462L120.4615384615385 170.6538461538462H80.0065384615385V150.5769230769231H140.6388461538462L120.3611538461539 130.5z M220.8461538461539 130.5H200.4680769230769C194.6457692307692 91.8519230769231 158.6076923076923 65.25 119.9596153846154 71.0723076923077C89.2419230769231 75.69 65.1496153846154 99.7823076923077 60.5319230769231 130.5H40.1538461538462C44.8719230769231 88.6396153846154 78.3 55.4123076923077 120.3611538461539 50.7946153846154V30.1153846153846H69.8676923076923V10.0384615384615H191.1323076923077V30.1153846153846H140.6388461538461V50.7946153846154C182.7 55.4123076923077 216.2284615384616 88.6396153846154 220.8461538461539 130.5z" />
    <glyph glyph-name="missed-call"
      unicode="&#xF130;"
      horiz-adv-x="261" d=" M250 52.3L250.1 52.4C220.7 85.5 177.8 106.4 130.1 106.4C82.3 106.4 39.5 85.5 10.1 52.4L10.3 52.3V49.5C10.3 49.1 10.3 48.6 10.3 48.1V24.7C10.1 21.8 12.5 19.6 15.4 19.9L72.7 24.9C75.6 25.2 77.9 27.7 77.9 30.6V39.7C77.9 40.3 77.9 40.9 77.9 41.5V60.3C93.5 67.6 111.8 71.7 130 71.7C148.7 71.7 166.5 67.6 182.1 60.3V41.5C182.1 40.9 182.1 40.3 182.1 39.7V30.6C182.1 27.7 184.5 25.2 187.4 24.9L244.7 19.9C247.6 19.6 249.9 21.8 249.9 24.7V48.1C249.9 48.6 250 49 249.9 49.5L250 52.3L250 52.3z M130 129.8L200 199.8L180 219.8L130 169.8L100 199.8L120 219.8L60 219.8L60 159.8L80 179.8z" />
    <glyph glyph-name="mix-cloud-simple"
      unicode="&#xF131;"
      horiz-adv-x="261" d=" M230.2823076923077 60.2307692307692C228.7765384615385 60.2307692307692 227.1703846153846 60.6323076923077 225.8653846153846 61.5357692307692C222.1511538461539 64.0453846153846 221.2476923076923 68.9642307692308 223.6569230769231 72.6784615384615C231.0853846153847 83.7207692307692 235.0003846153847 96.6703846153846 235.0003846153847 110.0215384615385C235.0003846153847 123.473076923077 231.0853846153847 136.3223076923077 223.6569230769231 147.3646153846154C221.1473076923077 151.0788461538462 222.1511538461539 155.9976923076923 225.8653846153846 158.5073076923077S234.4984615384616 160.0130769230769 237.0080769230769 156.2988461538462C246.1430769230769 142.6465384615385 251.0619230769231 126.585 251.0619230769231 110.0215384615385S246.2434615384616 77.3965384615385 237.0080769230769 63.7442307692308C235.4019230769231 61.4353846153846 232.8923076923077 60.2307692307692 230.2823076923077 60.2307692307692z M207.3946153846154 73.2807692307692C205.8888461538462 73.2807692307692 204.2826923076923 73.6823076923077 202.8773076923077 74.6861538461538C199.2634615384616 77.1957692307692 198.2596153846154 82.1146153846154 200.7692307692308 85.8288461538461C205.6880769230769 93.0565384615385 208.1976923076923 101.3884615384615 208.1976923076923 110.1219230769231S205.5876923076923 127.2876923076923 200.7692307692308 134.415C198.2596153846154 138.0288461538461 199.2634615384616 143.0480769230769 202.8773076923077 145.5576923076923C206.5915384615385 148.0673076923077 211.5103846153846 147.0634615384615 214.02 143.4496153846154C220.7457692307692 133.6119230769231 224.2592307692308 122.0676923076923 224.2592307692308 110.1219230769231S220.7457692307692 86.6319230769231 214.02 76.7942307692308C212.5142307692308 74.4853846153846 209.9042307692308 73.2807692307692 207.3946153846154 73.2807692307692z M169.9511538461539 144.9553846153846C166.8392307692308 177.0784615384616 139.635 202.1746153846154 106.7088461538462 202.1746153846154C79.4042307692308 202.1746153846154 55.2115384615385 184.7076923076923 46.4780769230769 159.21C25.8992307692308 156.1984615384616 10.0384615384616 138.4303846153847 10.0384615384616 117.0484615384616C10.0384615384616 93.5584615384616 29.2119230769231 74.385 52.8023076923077 74.385H162.2215384615385C181.9973076923077 74.385 198.0588461538462 90.4465384615385 198.0588461538462 110.1219230769231C198.0588461538462 127.1873076923077 186.0126923076923 141.4419230769231 169.9511538461539 144.9553846153846zM162.2215384615385 90.3461538461538H52.8023076923077C38.0457692307692 90.3461538461538 26.1 102.2919230769231 26.1 116.9480769230769S38.0457692307692 143.6503846153846 52.8023076923077 143.6503846153846C59.9296153846154 143.6503846153846 66.6553846153846 140.8396153846154 71.6746153846154 135.8203846153846C74.7865384615385 132.7084615384615 79.9061538461539 132.7084615384615 83.0180769230769 135.8203846153846C86.13 138.9323076923077 86.13 144.0519230769231 83.0180769230769 147.1638461538462C77.4969230769231 152.685 70.7711538461539 156.3992307692308 63.3426923076923 158.3065384615385C70.9719230769231 174.9703846153846 87.8365384615385 186.1130769230769 106.6084615384615 186.1130769230769C132.8088461538462 186.1130769230769 154.1907692307692 164.8315384615385 154.1907692307692 138.6311538461538C154.1907692307692 133.5115384615385 153.3876923076923 128.4923076923077 151.7815384615385 123.7742307692308C150.3761538461539 119.5580769230769 152.685 115.0407692307692 156.9011538461538 113.6353846153846C157.7042307692308 113.3342307692308 158.6076923076923 113.2338461538462 159.4107692307692 113.2338461538462C162.7234615384615 113.2338461538462 165.9357692307692 115.3419230769231 167.04 118.755C168.0438461538461 121.8669230769231 168.8469230769231 125.0792307692308 169.4492307692308 128.3919230769231C176.7773076923077 125.4807692307692 182.0976923076923 118.3534615384615 182.0976923076923 110.0215384615384C181.9973076923077 99.18 173.1634615384616 90.3461538461538 162.2215384615385 90.3461538461538z" />
    <glyph glyph-name="mix-cloud"
      unicode="&#xF132;"
      horiz-adv-x="261" d=" M159.7119230769231 135.4188461538462C159.3103846153846 133.0096153846154 158.7080769230769 130.5 157.905 128.1911538461539C157.1019230769231 125.6815384615385 154.6926923076923 124.0753846153847 152.1830769230769 124.0753846153847C151.5807692307692 124.0753846153847 150.8780769230769 124.1757692307693 150.2757692307692 124.3765384615385C147.1638461538462 125.3803846153847 145.4573076923077 128.7934615384616 146.4611538461538 132.0057692307693C147.6657692307692 135.6196153846154 148.2680769230769 139.3338461538462 148.2680769230769 143.1484615384616C148.2680769230769 162.8238461538462 132.3069230769231 178.785 112.6315384615385 178.785C98.4773076923077 178.785 85.8288461538461 170.4530769230769 80.1069230769231 157.905C85.6280769230769 156.4996153846154 90.7476923076923 153.6888461538462 94.8634615384615 149.573076923077C97.1723076923077 147.2642307692308 97.1723076923077 143.4496153846154 94.8634615384615 141.0403846153847C92.5546153846154 138.7315384615385 88.74 138.7315384615385 86.3307692307692 141.0403846153847C82.5161538461538 144.855 77.4969230769231 146.8626923076923 72.1765384615385 146.8626923076923C61.1342307692308 146.8626923076923 52.0996153846154 137.6273076923077 52.0996153846154 126.6853846153846C52.0996153846154 115.6430769230769 61.1342307692308 106.5080769230769 72.1765384615385 106.5080769230769H154.2911538461538C162.4223076923077 106.5080769230769 169.1480769230769 113.3342307692308 169.1480769230769 121.4653846153846C169.1480769230769 127.6892307692308 165.2330769230769 133.2103846153846 159.7119230769231 135.4188461538462z M130.5 250.9615384615385C63.945 250.9615384615385 10.0384615384615 197.055 10.0384615384615 130.5S63.945 10.0384615384615 130.5 10.0384615384615S250.9615384615385 63.945 250.9615384615385 130.5S197.055 250.9615384615385 130.5 250.9615384615385zM154.2911538461538 94.3615384615385H72.1765384615385C54.5088461538462 94.3615384615385 40.1538461538462 108.9173076923077 40.1538461538462 126.585C40.1538461538462 142.6465384615385 52.0996153846154 155.9976923076923 67.4584615384615 158.3065384615385C73.9834615384615 177.48 92.1530769230769 190.6303846153846 112.5311538461538 190.6303846153846C137.2257692307692 190.6303846153846 157.6038461538462 171.7580769230769 160.0130769230769 147.7661538461538C172.0592307692307 145.1561538461539 181.0938461538461 134.2142307692308 181.0938461538461 121.365C181.0938461538462 106.6084615384615 169.0476923076923 94.3615384615385 154.2911538461538 94.3615384615385zM188.1207692307693 93.96C186.9161538461539 93.96 185.8119230769231 94.2611538461539 184.8080769230769 94.9638461538462C182.0976923076923 96.8711538461539 181.2946153846154 100.5853846153846 183.2019230769231 103.2957692307693C186.8157692307692 108.7165384615385 188.8234615384616 115.0407692307692 188.8234615384616 121.5657692307692S186.9161538461538 134.415 183.2019230769231 139.8357692307693C181.2946153846154 142.5461538461539 182.0976923076923 146.3607692307692 184.8080769230769 148.1676923076923C187.5184615384615 150.075 191.3330769230769 149.2719230769231 193.14 146.5615384615385C198.1592307692308 139.1330769230769 200.7692307692308 130.5 200.7692307692308 121.5657692307692S198.1592307692308 103.9984615384615 193.14 96.57C191.9353846153846 94.9638461538462 190.1284615384616 93.96 188.1207692307693 93.96zM210.3057692307692 86.9330769230769C209.1011538461539 85.2265384615385 207.2942307692308 84.2226923076923 205.2865384615385 84.2226923076923C204.1823076923077 84.2226923076923 202.9776923076923 84.5238461538462 201.9738461538462 85.2265384615385C199.2634615384616 87.0334615384616 198.4603846153846 90.8480769230769 200.3676923076923 93.5584615384616C205.8888461538462 101.79 208.8 111.5273076923077 208.8 121.5657692307693S205.8888461538462 141.3415384615385 200.3676923076923 149.573076923077C198.5607692307692 152.2834615384616 199.2634615384616 156.098076923077 201.9738461538462 157.905C204.6842307692307 159.7119230769231 208.4988461538461 159.0092307692308 210.3057692307692 156.2988461538462C217.2323076923077 146.0596153846154 220.8461538461539 134.0134615384616 220.8461538461539 121.5657692307693C220.8461538461539 109.2184615384616 217.2323076923077 97.1723076923077 210.3057692307692 86.9330769230769z" />
    <glyph glyph-name="mobile-off"
      unicode="&#xF133;"
      horiz-adv-x="261" d=" M210.8076923076923 240.923076923077V241.1238461538462C210.8076923076923 246.5446153846154 206.3907692307692 250.9615384615385 200.97 250.9615384615385C200.8696153846154 250.9615384615385 200.8696153846154 250.9615384615385 200.7692307692308 250.9615384615385H60.2307692307692C54.81 251.0619230769231 50.2926923076923 246.7453846153846 50.1923076923077 241.3246153846154C50.1923076923077 241.2242307692308 50.1923076923077 241.2242307692308 50.1923076923077 241.1238461538462V80.3076923076923L30.1153846153846 60.2307692307692V30.1153846153846L50.1923076923077 50.1923076923077L70.2692307692308 70.2692307692308L190.7307692307692 190.7307692307692L210.8076923076923 210.8076923076923L230.8846153846154 230.8846153846154V261L210.8076923076923 240.923076923077zM70.2692307692308 100.3846153846154V230.8846153846154H190.7307692307692V220.8461538461539L70.2692307692308 100.3846153846154z M190.7307692307692 50.1923076923077H80.5084615384616L50.1923076923077 19.8761538461539C50.2926923076923 14.4553846153846 54.81 10.0384615384615 60.2307692307692 10.0384615384615H200.7692307692308C206.3907692307692 10.1388461538461 210.8076923076923 14.7565384615384 210.8076923076923 20.2776923076923V180.6923076923077L190.7307692307692 160.6153846153846V50.1923076923077zM130.5 20.2776923076923C124.9788461538462 20.2776923076923 120.4615384615385 24.795 120.4615384615385 30.3161538461538S124.9788461538462 40.3546153846154 130.5 40.3546153846154C136.0211538461539 40.3546153846154 140.5384615384616 35.8373076923077 140.5384615384616 30.3161538461538S136.0211538461539 20.2776923076923 130.5 20.2776923076923z" />
    </font>
</defs>
</svg>
