<?xml version="1.0" standalone="no"?> 
<!DOCTYPE svg PUBLIC "-//W3C//DTD SVG 1.1//EN" "http://www.w3.org/Graphics/SVG/1.1/DTD/svg11.dtd" >
<svg xmlns="http://www.w3.org/2000/svg">
<defs>
  <font id="bbva-sn-icons" horiz-adv-x="260">
    <font-face font-family="bbva-sn-icons"
      units-per-em="260" ascent="260"
      descent="0" />
    <missing-glyph horiz-adv-x="0" />
    <glyph glyph-name="add"
      unicode="&#xF101;"
      horiz-adv-x="260" d=" M130 250C63.7 250 10 196.3 10 130S63.7 10 130 10S250 63.7 250 130S196.3 250 130 250zM180 119.5H139.5V69.5H119.5V119.5H69.5V139.5H119.5V189.5H139.5V139.5H200L180 119.5z" />
    <glyph glyph-name="advance"
      unicode="&#xF102;"
      horiz-adv-x="260" d=" M193.4 144.3L136.9 200.7L158 221.9L250 129.5L158.7 37.9L137.5 59L193 114.5L10 114.5L38.8 144.3z" />
    <glyph glyph-name="arrows"
      unicode="&#xF103;"
      horiz-adv-x="260" d=" M80 250L92.5 237.8L130 201.4L117.5 189.2L90.7 215.2L90.7 100L69.3 120.4L69.3 215.2L42.5 189.2L30 201.4z M180 10L167.5 22.2L130 58.6L142.5 70.8L169.3 44.8L169.3 160L190.7 139.6L190.7 44.8L217.5 70.8L230 58.6z" />
    <glyph glyph-name="attached"
      unicode="&#xF104;"
      horiz-adv-x="260" d=" M115 190L115 100L145 70L145 160z M130 220C154.9 220 175 199.9 175 175V120L205 90V175C205 216.3 171.4 250 130 250C96.2 250 67.6 227.6 58.2 196.8L85 170V175C85 199.9 105.2 220 130 220z M199.1 55.9L174.7 80.3C172.3 57.7 153.2 40.1 129.9 40.1C105 40.1 84.9 60.2 84.9 85.1V130.1L54.9 160.1V85.1C54.9 43.8 88.5 10.1 129.9 10.1C161 10 187.7 28.9 199.1 55.9z" />
    <glyph glyph-name="automatic-access"
      unicode="&#xF105;"
      horiz-adv-x="260" d=" M140 100L100 140L114 154L140 128L216 204L230 190z M180 50H60V230H180V196L200 216V240C200 245.5 195.5 250 190 250H50C44.5 250 40 245.5 40 240V20C40 14.5 44.5 10 50 10H190C195.5 10 200 14.5 200 20V132L180 112V50zM120 20C114.5 20 110 24.5 110 30S114.5 40 120 40S130 35.5 130 30S125.5 20 120 20z" />
    <glyph glyph-name="back"
      unicode="&#xF106;"
      horiz-adv-x="260" d=" M160.8 172.5L146.7 186.7L104.3 144.3L90.1 130.1L104.3 116L146.7 73.5L160.8 87.7L118.4 130.1z" />
    <glyph glyph-name="block"
      unicode="&#xF107;"
      horiz-adv-x="260" d=" M130.8 249C64.5 249 10.8 195.3 10.8 129S64.5 9 130.8 9S250.8 62.7 250.8 129S197 249 130.8 249zM40.8 129C40.8 178.7 81.1 219 130.8 219C150.5 219 168.8 212.6 183.6 201.8L57.9 76.2C47.1 91 40.8 109.3 40.8 129zM130.8 39C111.1 39 92.8 45.4 78 56.2L203.6 181.8C214.4 167 220.8 148.7 220.8 129C220.8 79.3 180.5 39 130.8 39z" />
    <glyph glyph-name="cart"
      unicode="&#xF108;"
      horiz-adv-x="260" d=" M80 30C80 18.9543050033841 88.9543050033841 10 100 10C111.0456949966159 10 120 18.9543050033841 120 30C120 41.0456949966159 111.0456949966159 50 100 50C88.9543050033841 50 80 41.0456949966159 80 30z M170 30C170 18.9543050033841 178.9543050033841 10 190 10C201.0456949966159 10 210 18.9543050033841 210 30C210 41.0456949966159 201.0456949966159 50 190 50C178.9543050033841 50 170 41.0456949966159 170 30z M229.1 193.5C232.3 201.4 226.4 210 218 210H59.9L47.9 249.9H0V230H32.9L80 70H100H220V90H97L91.1 110H190L229.1 193.5z" />
    <glyph glyph-name="checkmark"
      unicode="&#xF109;"
      horiz-adv-x="260" d=" M43.5 122.9L57.7 137.1L107.2 87.6L220.3 200.7L234.5 186.6L122.1 74.2L107.2 59.3z" />
    <glyph glyph-name="close"
      unicode="&#xF10A;"
      horiz-adv-x="260" d=" M60 44.4L44.4 60L115.2 130.7L45.9 200L60 214.1L129.3 144.8L200 215.6L215.6 200L144.8 129.3L215.6 58.6L201.4 44.4L130.7 115.2z" />
    <glyph glyph-name="collapse"
      unicode="&#xF10B;"
      horiz-adv-x="260" d=" M179.5 120L69.5 120L69.5 140L199.5 140z" />
    <glyph glyph-name="continue"
      unicode="&#xF10C;"
      horiz-adv-x="260" d=" M130.4 250.1C64.1 250.1 10.4 196.4 10.4 130.1S64.1 10.1 130.4 10.1C196.7 10.1 250.4 63.8 250.4 130.1S196.6 250.1 130.4 250.1zM144.5 104.3L130.4 90.2L73.8 146.8L87.9 160.9L130.3 118.5L172.7 160.9L186.8 146.8L144.5 104.3z" />
    <glyph glyph-name="delete"
      unicode="&#xF10D;"
      horiz-adv-x="260" d=" M94.7 210C91.7 210 88.7 208.8 86.5 206.8L13.5 138.5C8.8 133.8 8.8 126.2 13.5 121.5L86.5 53.2C88.7 51.1 91.7 50 94.7 50H238C244.6 50 250 55.4 250 62V198C250 204.6 244.6 210 238 210H94.7zM196.2 81.4L160.8 116.7L124.1 80L110 94.1L146.7 130.8L111.4 166.2L125.6 180.4L160.9 145.1L196.3 180.5L210.4 166.4L175 131L210.4 95.6L196.2 81.4z" />
    <glyph glyph-name="divider"
      unicode="&#xF10E;"
      horiz-adv-x="260" d=" M130 250C63.7 250 10 196.3 10 130S63.7 10 130 10S250 63.7 250 130S196.3 250 130 250zM125 200C136 200 145 191 145 180S136 160 125 160S105 169 105 180S114 200 125 200zM125 60C114 60 105 69 105 80S114 100 125 100S145 91 145 80S136 60 125 60zM181 120H60V140H201L181 120z" />
    <glyph glyph-name="down-arrow"
      unicode="&#xF10F;"
      horiz-adv-x="260" d=" M180 160L80 160L130 100z" />
    <glyph glyph-name="down"
      unicode="&#xF110;"
      horiz-adv-x="260" d=" M145.6 65.4L202.1 122L223.3 100.9L130.9 8.8L39.3 100.2L60.4 121.3L115.9 65.8L115.9 248.8L145.6 220z" />
    <glyph glyph-name="end"
      unicode="&#xF111;"
      horiz-adv-x="260" d=" M83.3 186.2L69.2 172.1L111.6 129.6L69.2 87.2L83.3 73.1L125.8 115.5L139.9 129.6L125.8 143.8z M159.8 190H179.8V70H159.8V190z" />
    <glyph glyph-name="expand"
      unicode="&#xF112;"
      horiz-adv-x="260" d=" M200 140L140 140L140 190L120 190L120 140L70 140L70 120L120 120L120 70L140 70L140 120L180 120z" />
    <glyph glyph-name="exploration"
      unicode="&#xF113;"
      horiz-adv-x="260" d=" M116.8 80.9 M131.4 249.9C65.1 249.9 11.4 196.2 11.4 129.9S65.1 9.9 131.4 9.9S251.4 63.6 251.4 129.9S197.6 249.9 131.4 249.9zM152.6 109.4L60.7 59.9L110.5 152.1L202.1 201.3L152.6 109.4z M116.4 129.9C116.4 121.6157287525381 123.1157287525381 114.9 131.4 114.9C139.6842712474619 114.9 146.4 121.6157287525381 146.4 129.9C146.4 138.1842712474619 139.6842712474619 144.9 131.4 144.9C123.1157287525381 144.9 116.4 138.1842712474619 116.4 129.9z" />
    <glyph glyph-name="fingerprint"
      unicode="&#xF114;"
      horiz-adv-x="260" d=" M120.8 159C120.8 164.5 125.2 169 130.8 169C136.3 169 140.8 164.5 140.8 159V99C140.8 93.5 136.4 89 130.8 89C125.3 89 120.8 93.5 120.8 99V159z M130.8 209C103.2 209 80.8 186.6 80.8 159V99C80.8 71.4 103.2 49 130.8 49C158.4 49 180.8 71.4 180.8 99V159C180.8 186.6 158.4 209 130.8 209zM160.8 99C160.8 82.4 147.3 69 130.8 69C114.2 69 100.8 82.4 100.8 99V159C100.8 175.6 114.3 189 130.8 189C147.4 189 160.8 175.6 160.8 159V99z M220.8 109V99C220.8 49.3 180.5 9 130.8 9C87.3 9 51.1 39.8 42.6 80.8L60.8 99L60.8 99C60.8 60.3 92.1 29 130.8 29C169.4 29 200.8 60.3 200.8 99V129L220.8 109z M220.8 139V158.9C220.8 208.6 180.5 249 130.8 249S40.8 208.7 40.8 158.9V109L60.8 129V159C60.8 197.6 92.2 229 130.8 229C169.5 229 200.8 197.8 200.8 159L200.8 159L220.8 139z" />
    <glyph glyph-name="first"
      unicode="&#xF115;"
      horiz-adv-x="260" d=" M180.9 172.4L166.8 186.6L124.3 144.1L110.2 130L124.3 115.9L166.8 73.4L180.9 87.6L138.5 130z M70.3 190H90.3V70H70.3V190z" />
    <glyph glyph-name="fold"
      unicode="&#xF116;"
      horiz-adv-x="260" d=" M186.7 113.5L144.3 156L130.1 170.1L116 156L73.6 113.5L87.7 99.4L130.1 141.8L172.6 99.4z" />
    <glyph glyph-name="get-out"
      unicode="&#xF117;"
      horiz-adv-x="260" d=" M131.4 249.9C65.1 249.9 11.4 196.2 11.4 129.9S65.1 9.9 131.4 9.9S251.4 63.6 251.4 129.9S197.6 249.9 131.4 249.9zM149.7 67.9L135.4 82.2L172.9 119.6L51.3 119.3L71.3 139H173.1L135 177.3L149.3 191.7L211.4 129.6L149.7 67.9z" />
    <glyph glyph-name="hide"
      unicode="&#xF118;"
      horiz-adv-x="260" d=" M170.4 124.6L130.4 84.6C152.5 84.6 170.4 102.6 170.4 124.6z M222.4 176.7L187.8 142.1C189.5 136.6 190.4 130.7 190.4 124.7C190.4 91.6 163.5 64.7 130.4 64.7C124.3 64.7 118.5 65.6 113 67.3L91.6 45.9C103.1 42 116 39.7 130.4 39.7C220.4 39.7 250.4 129.7 250.4 129.7S242.4 153.5 222.4 176.7z M189.7 204C173.7 213.3 154.1 219.6 130.3 219.6C40.3 219.6 10.3 129.6 10.3 129.6S22.2 94 53.3 67.6L30.3 44.6V14.6L82 66.3L93.1 77.4L149.3 133.6L163.2 147.5L192.4 176.7L207.3 191.6L220.3 204.6V234.6L189.7 204zM146.8 161C141.8 163.3 136.2 164.5 130.3 164.5C108.2 164.5 90.3 146.6 90.3 124.5C90.3 118.6 91.6 113.1 93.8 108L79.2 93.4C73.6 102.5 70.4 113.2 70.4 124.6C70.4 157.7 97.3 184.6 130.4 184.6C141.8000000000001 184.6 152.5 181.4 161.6 175.8L146.8 161z" />
    <glyph glyph-name="images"
      unicode="&#xF119;"
      horiz-adv-x="260" d=" M110 120L130 100L170 140L210 100V190H50V70H60L110 120zM78 175C85.2 175 91 169.2 91 162S85.2 149 78 149S65 154.8 65 162S70.8 175 78 175L78 175z M243 230H17C13.1 230 10 226.9 10 223V37C10 33.1 13.1 30 17 30H243C246.9 30 250 33.1 250 37V223C250 226.9 246.9 230 243 230zM230 50H30V208H230V50z" />
    <glyph glyph-name="link"
      unicode="&#xF11A;"
      horiz-adv-x="260" d=" M70.8 119L160.8 119L190.8 149L100.8 149z M40.8 134C40.8 158.9 60.9 179 85.8 179H140.8L170.8 209H85.8C44.5 209 10.8 175.4 10.8 134C10.8 100.2 33.2 71.6 64 62.2L90.8 89H85.8C60.9 89 40.8 109.2 40.8 134z M204.9 203.1L180.5 178.7C203.1 176.3 220.7 157.2 220.7 133.9C220.7 109 200.6 88.9 175.7 88.9H130.7L100.7 58.9H175.7C217 58.9 250.7 92.5 250.7 133.9C250.8 165 231.9 191.7 204.9 203.1z" />
    <glyph glyph-name="lock"
      unicode="&#xF11B;"
      horiz-adv-x="260" d=" M208 150H200V180.1C200 218.7 168.7 250 130 250C91.4 250 60 218.7 60 180.1V150H52C45.4 150 40 144.6 40 138V22C40 15.4 45.4 10 52 10H208C214.6 10 220 15.4 220 22V138C220 144.6 214.5 150 208 150zM150 68.1H90V88.1H170L150 68.1zM180 150H80V180.1C80 207.8 102.4 230 130 230C157.6 230 180 207.6 180 180.1V150z" />
    <glyph glyph-name="map"
      unicode="&#xF11C;"
      horiz-adv-x="260" d=" M232.5 237.6L170.3 219.8L90.3 239.8L24.8 221.1C22.2 220.4 20.4 218 20.4 215.2V29.1C20.4 24.7 24.9 21.8 28.9 23.5L90.4 49.9L170.4 19.9L236.7 48.3C239 49.3 240.4 51.5 240.4 53.9V231.7C240.4 235.8 236.5 238.8 232.5 237.6zM170.4 39.9L90.4 69.9V219.9L170.4 199.9V39.9z" />
    <glyph glyph-name="max-min-screen"
      unicode="&#xF11D;"
      horiz-adv-x="260" d=" M228 240H32C25.4 240 20 234.6 20 228V32C20 25.4 25.4 20 32 20H228C234.6 20 240 25.4 240 32V228C240 234.6 234.6 240 228 240zM199.8 130L199.9 185.7L199.8 185.8L74.3 60.1L130 60.2V40L40.1 40.1L40 130H60.2L60.1 74.3L60.2 74.2L185.7 199.9L130 199.8V220L219.9 219.9L220 130H199.8z" />
    <glyph glyph-name="menu"
      unicode="&#xF11E;"
      horiz-adv-x="260" d=" M20 210L20 180L227.2 180L239.7 210z M20 145L20 115L199.8 115L200.8 116.8L212.6 145z M20.8 80L20.8 50L173 50L185.5 80z" />
    <glyph glyph-name="merge"
      unicode="&#xF11F;"
      horiz-adv-x="260" d=" M131.67 115.46L193.05 115.44L158.68 81.18L179.83 60.02L250 130.5L179.57 201.25L158.45 180.09L193.45 145.22L131 145.22L66.21 210L10 210L10 180L53.79 180L103.79 130L53.79 80L10 80L10 50L66.21 50L131.67 115.46z" />
    <glyph glyph-name="more"
      unicode="&#xF120;"
      horiz-adv-x="260" d=" M30.4 129.9C30.4 116.0928812542302 41.5928812542302 104.9 55.4 104.9C69.2071187457698 104.9 80.4 116.0928812542302 80.4 129.9C80.4 143.7071187457698 69.2071187457698 154.9 55.4 154.9C41.5928812542302 154.9 30.4 143.7071187457698 30.4 129.9z M105.4 129.9C105.4 116.0928812542302 116.5928812542302 104.9 130.4 104.9C144.2071187457698 104.9 155.4 116.0928812542302 155.4 129.9C155.4 143.7071187457698 144.2071187457698 154.9 130.4 154.9C116.5928812542302 154.9 105.4 143.7071187457698 105.4 129.9z M180.4 129.9C180.4 116.0928812542302 191.5928812542302 104.9 205.4 104.9C219.2071187457698 104.9 230.4 116.0928812542302 230.4 129.9C230.4 143.7071187457698 219.2071187457698 154.9 205.4 154.9C191.5928812542302 154.9 180.4 143.7071187457698 180.4 129.9z" />
    <glyph glyph-name="my-location"
      unicode="&#xF121;"
      horiz-adv-x="260" d=" M130.4 169.9C108.3 169.9 90.4 152 90.4 129.9S108.3 89.9 130.4 89.9S170.4 107.8 170.4 129.9S152.5 169.9 130.4 169.9z M227.9 139.9C222.9 185.9 186.4 222.3 140.4 227.3V249.9H120.4V227.3C74.4 222.3 38 185.9 33 139.9H10.4V119.9H33C38 73.9 74.4 37.4 120.4 32.4V9.9H140.4V32.4C186.4 37.4 222.9 73.9 227.9 119.9H250.4V139.9C250.4 139.9 227.9 139.9 227.9 139.9zM130.4 53.5C88.2 53.5 54.1 87.6 54.1 129.8S88.2 206.1 130.4 206.1S206.7 172 206.7 129.8S172.6 53.5 130.4 53.5z" />
    <glyph glyph-name="near-me"
      unicode="&#xF122;"
      horiz-adv-x="260" d=" M230.2 239.6L14.4 155C11.6 153.9 9.8 151.2 9.8 148.2L9.8 143.9C9.8 140.9 11.7 138.2 14.5 137.1L99.9 104.1C101.8 103.4 103.4 101.8 104.1 99.9L137.1 14.5C138.2 11.7 140.9 9.8 143.9 9.8L148.2000000000001 9.8C151.2000000000001 9.8 153.9 11.6000000000001 155.0000000000001 14.4L239.6000000000001 230.1C242 236.1 236.1 242 230.2 239.6zM146.1 61.2L124.2 125.5L202 203.3L146.1 61.2z" />
    <glyph glyph-name="next"
      unicode="&#xF123;"
      horiz-adv-x="260" d=" M156 144.3L113.6 186.7L99.4 172.5L141.9 130.1L99.4 87.7L113.6 73.5L156 116L170.1 130.1z" />
    <glyph glyph-name="on-off"
      unicode="&#xF124;"
      horiz-adv-x="260" d=" M195.5 193.5C211.7 177.2 221.8 154.8 221.8 130C221.8 80.3 181.5 40 131.8 40S41.8 80.3 41.8 130C41.8 154.7 51.7 177.1 67.9 193.3L46.6 214.5C25.1 192.8 11.8 163 11.8 130C11.8 63.7 65.5 10 131.8 10S251.8 63.7 251.8 130C251.8 163.1 238.4 193 216.8 214.7L195.5 193.5z M116.8 250L116.8 145.4L144.8 173.7L144.8 250z" />
    <glyph glyph-name="open-outside"
      unicode="&#xF125;"
      horiz-adv-x="260" d=" M228.8 239H32.8C26.2 239 20.8 233.6 20.8 227V31C20.8 24.4 26.2 19 32.8 19H228.8C235.4 19 240.8 24.4 240.8 31V227C240.8 233.6 235.4 239 228.8 239zM171.2 103.1L171.3 156.1L96 80H67L157.4 170.3L103.4 170.2L103.4 190.4L191.3 190.3L191.4 103L171.2 103.1z" />
    <glyph glyph-name="phishing"
      unicode="&#xF126;"
      horiz-adv-x="260" d=" M260 180H229.1C201.5 240.3 130.3 266.7 70 239.1S-16.7 140.3 10.9 80S109.7 -6.7 170 20.9C206.1 37.4 231.7 70.8 238.3 110H260V180zM120 230C155.7 230 188.8 210.9 206.6 180H33.4C51.2 210.9 84.3 230 120 230zM180 154V134H150L140 154H180zM120 30C72.5 30 31.5 63.4 22 110H218C208.5 63.4 167.5 30 120 30zM90 154.5V134.5H60L50 154.5H90z M80 80H150V60H80V80z" />
    <glyph glyph-name="place"
      unicode="&#xF127;"
      horiz-adv-x="260" d=" M130.1 250.1C74.9 250.1 30.1 205.3 30.1 150.1C30.1 149.1 30.1 148.1 30.1 147.1C32.1 58.8 121.7 2.4 121.7 2.4C126.3 -0.7 133.7 -0.7 138.2 2.3C138.2 2.3 228 58.8 230 147.1C230 148.1 230 149.1 230 150.1C230.1 205.3 185.4 250.1 130.1 250.1zM130.1 100.1C102.5 100.1 80.1 122.5 80.1 150.1S102.5 200.1 130.1 200.1S180.1 177.7 180.1 150.1S157.8 100.1 130.1 100.1z" />
    <glyph glyph-name="presentation"
      unicode="&#xF128;"
      horiz-adv-x="260" d=" M228 240H32C25.4 240 20 234.6 20 228V92C20 85.4 25.4 80 32 80H104.9L45 20H73L129.9 76.9L186.7 20H215L155.1 80H228C234.6 80 240 85.4 240 92V228C240 234.6 234.6 240 228 240zM40 160C40 182.1 57.9 200 80 200V160H120C120 137.9 102.1 120 80 120S40 137.9 40 160zM170 140H140V160H190L170 140zM200 180H140V200H220L200 180z" />
    <glyph glyph-name="privacy-and-data"
      unicode="&#xF129;"
      horiz-adv-x="260" d=" M102.2 161.7L102.2 161.7C106.5 157.5 113.4 157.5 117.7 161.7L141.5 185.2C146.2 189.8 153.7 189.8 158.4 185.1L234.2 109.3C237.8 124 239.9 140.7 239.9 160V230C239.9 235.4 235.4 240 229.9 240H164.6L102.1 177.5C97.8 173.1 97.8 166.1 102.2 161.7z M98.9 61.6L98.9 61.6C102.8 65.5 109.1 65.5 113 61.6L152.6 22C155.5 19.1 160 18.3 163.7 20L163.9 20.1C170.2 23 171.6 31.2 166.7 36.1L127.1 75.7C123.2 79.6 123.2 85.9 127.1 89.8L127.1 89.8C131 93.7 137.3 93.7 141.2 89.8L185.7 45.3C189.6 41.4 196 41.4 199.8 45.4L199.9 45.5C203.7 49.3 203.6 55.5 199.8 59.3L155.2 103.9C151.3 107.8 151.3 114.1 155.2 118L155.2 118C159.1 121.9 165.4 121.9 169.3 118L208.8 78.5C213.6 73.7 221.6 75.2 224.4 81.3L224.5 81.5C226.2 85.2 225.4 89.5 222.6 92.4L158.1 156.9C153.4 161.6 145.9 161.6 141.2 157L131.5 147.5C119.4 135.6 100 135.6 87.9 147.4L87.9 147.4C75.6 159.5 75.5 179.4 87.7 191.6L136.2 240H30C24.4 240 20 235.5 20 230V160C20 20 130.1 10 130.1 10L130.1 10C132.4 10.2 133.4 13 131.8 14.7L99 47.5C95 51.4 95 57.7 98.9 61.6z" />
    <glyph glyph-name="return"
      unicode="&#xF12A;"
      horiz-adv-x="260" d=" M67.8 115.5L124.4 59L103.3 37.9L11.3 130.2L102.6 221.9L123.8 200.7L68.2 145.3L251.3 145.2L222.4 115.5z" />
    <glyph glyph-name="right-location"
      unicode="&#xF12B;"
      horiz-adv-x="260" d=" M130.4 250.1C75.2 250.1 30.4 205.3 30.4 150.1C30.4 149.1 30.4 148.1 30.4 147.1C32.4 58.8 122 2.4 122 2.4C126.6 -0.7 134 -0.7 138.5 2.3C138.5 2.3 228.3 58.8 230.3 147.1C230.3 148.1 230.3 149.1 230.3 150.1C230.4 205.3 185.6 250.1 130.4 250.1zM111.2 100.1L65.2 146.1L79.3 160.2L111.1 128.4L176.2 193.5L190.3 179.4L111.2 100.1z" />
    <glyph glyph-name="right"
      unicode="&#xF12C;"
      horiz-adv-x="260" d=" M130.1 250.1C63.8 250.1 10.1 196.4 10.1 130.1S63.8 10.1 130.1 10.1S250.1 63.8 250.1 130.1S196.4 250.1 130.1 250.1zM120.6 92.3L105.4 77.1L63 119.5L77.1 133.6L105.4 105.3L183.2 183.1L197.3 169L120.6 92.3z" />
    <glyph glyph-name="save-up"
      unicode="&#xF12D;"
      horiz-adv-x="260" d=" M173.1 127.4C166.4 127.4 163.8 120.3 163.8 108.5C163.8 96.3 166.5 89.2 173.2 89.2S182.4 96.6 182.4 108.5S179.6 127.4 173.1 127.4z M88 165.5C81.2 165.5 78.6 158.4 78.6 146.6C78.6 134.4 81.3 127.2 88 127.2S97.2 134.6 97.2 146.5S94.4 165.5 88 165.5z M130 250C63.7 250 10 196.3 10 130S63.7 10 130 10S250 63.7 250 130S196.3 250 130 250zM60.5 146.4C60.5 166.6 71 179.6 88 179.6S115.2 166.6 115.2 146.6S105 113.3 88 113.3C70.8 113.3 60.5 126.4 60.5 146.4zM109.7 76.6H90.8L151.3 178H170.2L109.7 76.6zM173.1 75.2C156 75.2 145.7 88.5 145.7 108.3C145.7 128.4 156.2 141.6 173.2 141.6S200.4 128.5 200.4 108.5S190.2 75.2 173.1 75.2L173.1 75.2z" />
    <glyph glyph-name="scam"
      unicode="&#xF12E;"
      horiz-adv-x="260" d=" M240.4 229.9C240.4 235.4 235.9 239.9 230.4 239.9H30.4C24.9 239.9 20.4 235.5 20.4 230C20.4 230 20.4 229.9 20.4 229.9V159.9C20.4 19.9 130.4 9.9 130.4 9.9S240.4 19.9 240.4 159.9L240.4 229.9zM166.4 95.8L131 131.1L94.3 94.4L80.2 108.5L116.9 145.2L81.6 180.7L95.8 194.9L131.1 159.6L166.5 195L180.6 180.9L145.2 145.5L180.6 110.1L166.4 95.8z" />
    <glyph glyph-name="searching-location"
      unicode="&#xF12F;"
      horiz-adv-x="260" d=" M130 250C74.8 250 30 205.2 30 150C30 149 30 148 30 147C32 58.7 121.6 2.3 121.6 2.3C126.2 -0.8 133.6 -0.8 138.1 2.2C138.1 2.2 227.9 58.7 229.9 147C229.9 148 229.9 149 229.9 150C230 205.2 185.2 250 130 250zM85 140C76.7 140 70 146.7 70 155S76.7 170 85 170S100 163.3 100 155S93.3 140 85 140zM130 140C121.7 140 115 146.7 115 155S121.7 170 130 170S145 163.3 145 155S138.3 140 130 140zM175 140C166.7 140 160 146.7 160 155S166.7 170 175 170S190 163.3 190 155S183.3 140 175 140z" />
    <glyph glyph-name="security-token"
      unicode="&#xF130;"
      horiz-adv-x="260" d=" M110.8 109L140.8 109L150.8 119L110.8 119z M130.8 179C119.7 179 110.8 170.1 110.8 159V149H150.8V159C150.8 170.1 141.8 179 130.8 179z M240.7 229C240.7 234.4 236.2 239 230.7 239H30.8C25.2 239 20.8 234.5 20.8 229V159C20.8 19 130.8 9 130.8 9S240.8 19 240.8 159L240.7 229zM170.8 89C170.8 83.5 166.3 79 160.8 79H100.7C95.2 79 90.7 83.4 90.7 89V139C90.7 144.5 95.2 149 100.7 149L100.7 149V159C100.7 175.6 114.2 189 130.7 189C147.3 189 160.7 175.5 160.7 159V149L160.7 149C166.2 149 170.7 144.6 170.7 139L170.8 89L170.8 89z" />
    <glyph glyph-name="show"
      unicode="&#xF131;"
      horiz-adv-x="260" d=" M130.8 129V169C108.7 169 90.8 151.1 90.8 129S108.7 89 130.8 89S170.8 106.9 170.8 129C170.8 140 166.3 150 159.1 157.3L130.8 129z M130.8 219C40.8 219 10.8 129 10.8 129S40.8 39 130.8 39S250.8 129 250.8 129S220.8 219 130.8 219zM130.8 69C97.7 69 70.8 95.9 70.8 129S97.7 189 130.8 189C163.9 189 190.8 162.1 190.8 129S163.9 69 130.8 69z" />
    <glyph glyph-name="substract"
      unicode="&#xF132;"
      horiz-adv-x="260" d=" M130 250C63.7 250 10 196.3 10 130S63.7 10 130 10S250 63.7 250 130S196.3 250 130 250zM180 120H70V140H200L180 120z" />
    <glyph glyph-name="token"
      unicode="&#xF133;"
      horiz-adv-x="260" d=" M210.1 150H200V180.1C200 218.8 168.7 250.1 130 250.1C91.3 250.1 60 218.8 60 180.1V150H49.9C44.4 150 39.9 145.5 40 139.9C40 139.9 40 139.9 40 139.9V20C40 14.5 44.4 10 49.9 9.9C49.9 9.9 49.9 9.9 49.9 9.9H210C215.5 9.9 220 14.4 219.9 20C219.9 20 219.9 20 219.9 20V139.9C220 145.5 215.6 150 210.1 150C210.1 150 210.1 150 210.1 150zM140 73.2V56.5C140 53.2 137.3 50.5 134 50.5H126C122.7 50.5 120 53.2 120 56.5V73.2C110.4 78.7 107.2 91 112.7 100.5C118.2 110.1 130.5 113.3 140 107.8C149.6 102.3 152.8 90 147.3 80.5C145.6 77.5 143 75 140 73.2zM180 150H80V180.1C80 207.7 102.4 230.1 130 230.1S180 207.7 180 180.1V150z" />
    <glyph glyph-name="top-arrow"
      unicode="&#xF134;"
      horiz-adv-x="260" d=" M80 100L180 100L130 160z" />
    <glyph glyph-name="unfold"
      unicode="&#xF135;"
      horiz-adv-x="260" d=" M172.6 160.8L130.1 118.4L87.7 160.8L73.6 146.7L116 104.3L130.1 90.1L144.3 104.3L186.7 146.7z" />
    <glyph glyph-name="unique-key"
      unicode="&#xF136;"
      horiz-adv-x="260" d=" M180 250C141.3 250 110 218.6 110 179.9C110 171.8 111.4 164 113.9 156.7L13.5 56C8.8 51.3 8.8 43.7 13.5 39L39 13.5C43.7 8.8 51.3 8.8 56 13.5L59.3 16.9L53 38.9L66.3 52.3L80.4 38.1L94.5 52.3L87.4 73.6L101.5 87.8L115.6 73.6L129.7 87.8L122.6 109.1L138.5 123.2C150.1 114.8 164.3 109.8 179.7 109.8C218.4 109.8 249.7 141.2 249.7 179.9S218.7 250 180 250zM200 179.9C189 179.9 180 188.9 180 199.9S189 219.9 200 219.9S220 210.9 220 199.9S211 179.9 200 179.9z" />
    <glyph glyph-name="unlock"
      unicode="&#xF137;"
      horiz-adv-x="260" d=" M120.8 119H140.8V39L120.8 59V119zM193 211.2C181.3 233.7 157.8 249 130.8 249C92.2 249 60.8 217.7 60.8 179.1V149H50.7C45.2 149 40.8 144.5 40.8 138.9V19C40.8 13.4 45.2 8.9 50.7 8.9H210.8C216.3 8.9 220.7 13.4 220.7 19V138.9C220.7 144.5 216.3 149 210.8 149H80.8V179.1C80.8 206.7 103.2 229 130.8 229C152.4 229 170.9 215.2 177.8 196L193 211.2z" />
    <glyph glyph-name="up"
      unicode="&#xF138;"
      horiz-adv-x="260" d=" M116.9 192.3L60.4 135.7L39.3 156.8L131.6 248.8L223.3 157.5L202.1 136.3L146.7 191.9L146.6 8.8L116.9 37.7z" />
    <glyph glyph-name="update"
      unicode="&#xF139;"
      horiz-adv-x="260" d=" M250.4 139.9V219.9L227.6 200.3C205.8 230.3 170.4 249.9 130.4 249.9C64.1 249.9 10.4 196.2 10.4 129.9S64.1 9.9 130.4 9.9C183.4 9.9 228.4 44.3 244.3 91.9L215.8 101.4C203.9 65.6 170.2 39.9 130.4 39.9C80.7 39.9 40.4 80.2 40.4 129.9S80.7 219.9 130.4 219.9C161.3 219.9 188.5 204.4 204.7 180.7L180.4 159.9L250.4 139.9z" />
    <glyph glyph-name="walking-directions"
      unicode="&#xF13A;"
      horiz-adv-x="260" d=" M149 137.7L158.4 119.5L201.1 102.5L210 130L180 141L164.7 187.6C164.7 187.6 158 185.3 157 185C151.7 183.8 146.1 183.5 140.7 184.2C136.2 184.8 131.9 186.2 128 188.4C126.2 189.4 119.6 194.4 119.6 194.4L81.6 175.1L49 135.5L71.4 118.3L95.1 150.3C95.5 151 111.1 159.2 111.1 159.2L99.2 109.9L141.7 62.5L159.4 10H199.6L175.3 70.6L143.6 114.6L149 137.7L149 137.7z M144.6 195.9C159.5 195.8 171.8 207.8 171.9 222.8S160 249.9 145 250S117.8 238.1 117.7 223.1C117.7 223 117.7 223 117.7 222.9C117.7 208 129.8 195.9 144.6 195.9z M118.5 66L119.5 68.3L117.8 70.2L98.3 91L94.2 95.4L92 89.8L78.3 53.9L79 55L45.5 16.4L40 10L78.7 10L79.8 11.2L106.4 39.2L106.8 39.7L107.1 40.3z" />
    <glyph glyph-name="wrong-location"
      unicode="&#xF13B;"
      horiz-adv-x="260" d=" M130 250.1C74.8 250.1 30 205.3 30 150.1C30 149.1 30 148.1 30 147.1C32 58.8 121.6 2.4 121.6 2.4C126.2 -0.7 133.6 -0.7 138.1 2.3C138.1 2.3 227.9 58.8 229.9 147.1C229.9 148.1 229.9 149.1 229.9 150.1C230 205.3 185.2 250.1 130 250.1zM179.5 114.8L165.4 100.7L130 136L94.6 100.6L80.5 114.7L115.9 150.1L80.5 185.5L94.6 199.6L130 164.3L165.4 199.7L179.5 185.6L144.1 150.2L179.5 114.8z" />
    <glyph glyph-name="wrong"
      unicode="&#xF13C;"
      horiz-adv-x="260" d=" M130.1 250.1C63.8 250.1 10.1 196.4 10.1 130.1S63.8 10.1 130.1 10.1S250.1 63.8 250.1 130.1S196.4 250.1 130.1 250.1zM194.5 79.9L180.4 65.8L130.9 115.3L81.4 65.8L65.8 81.4L115.3 130.9L67.2 178.9L81.3 193L129.4 144.9L178.9 194.4L194.5 178.8L145 129.4L194.5 79.9z" />
  </font>
</defs>
</svg>
