<?xml version="1.0" standalone="no"?> 
<!DOCTYPE svg PUBLIC "-//W3C//DTD SVG 1.1//EN" "http://www.w3.org/Graphics/SVG/1.1/DTD/svg11.dtd" >
<svg xmlns="http://www.w3.org/2000/svg">
<defs>
  <font id="bbva-to-icons" horiz-adv-x="260">
    <font-face font-family="bbva-to-icons"
      units-per-em="260" ascent="260"
      descent="0" />
    <missing-glyph horiz-adv-x="0" />
    <glyph glyph-name="360-mobile-view"
      unicode="&#xF101;"
      horiz-adv-x="260" d=" M170.2 250H30.2C24.6 250 20 245.6 19.9 240V20C20.1 14.4 24.6 10 30.2 10H170.2C175.6 10 179.9 14.4 179.9 19.7C179.9 19.7 179.9 19.7 179.9 19.7C179.9 19.8 179.9 19.9 179.9 20V80H159.9V50H39.9V230H159.9V200H179.9V240C180.1 245.4 175.8 249.8 170.5 250H170.2zM100.2 40C105.7 40 110.2 35.5 110.2 30S105.7 20 100.2 20S90.2 24.5 90.2 30S94.7 40 100.2 40L100.2 40z M219.4 180.3L210 171L235 146.2L180.4 146.2L180.4 133.6L234.8 133.8L210.3 109.7L219.6 100.5L260 140.2z M158.7 147.2L104.3 147L128.8 171.1L119.5 180.3L79.2 140.5L119.8 100.5L129.1 109.8L104.1 134.5L158.7 134.5z" />
    <glyph glyph-name="add-notes"
      unicode="&#xF102;"
      horiz-adv-x="260" d=" M185.2 150.2C193.6 150.2 201.9 149 210 146.5V240C210 245.5 205.6 250 200.1 250H190L180 240H170V250H160L150 240H140V250H130L120 240H110V250H100L90 240H80V250H70L60 240H50V250H39.9C34.4 250 30 245.5 30 240V20C30 14.5 34.4 10 39.9 10H50L60 20H70V10H80L90 20H100V10H110L116 16C88.8 54.2 97.7 107.2 135.9 134.5C150.3 144.7 167.5 150.2 185.2 150.2L185.2 150.2zM60 200H170L150 180H60V200zM60 140V160H140L120 140H60z M185 130C149.1 130 120 100.9 120 65S149.1 0 185 0S250 29.1 250 65S220.9 130 185 130L185 130zM218.3 56.9H193.1V25H176.9V56.9H145V73.1H176.9V105H193.1V73.1H225L218.3 56.9z" />
    <glyph glyph-name="address-book"
      unicode="&#xF103;"
      horiz-adv-x="260" d=" M210 220V29.9C209 29.9 120.4 29.9 67.7 29.9C50.6 29.9 51 50 67.9 50H190V248H190.2V250H55.1C41.4 250 30 238.1 30 224.3V210H50V190H30V181.5C30 181.1 30.1 181 30.1 180.6L30.2 160H50V140H30.2V110H50V90H30.2V37.2C30.2 24.2 44.1 13.6 56.6 10.6C59 10.1 61.4 9.8 63.8 9.8C121.4 9.8 172.3 9.7 229.9 9.7V220H210zM81 130H160L141.5 110H81V130z" />
    <glyph glyph-name="alphabetical-order"
      unicode="&#xF104;"
      horiz-adv-x="260" d=" M52.9 190.5L10.2 69.4H34.6L43.9 96.3H85L94.6 67.5L120.2 71.4L78.2 190.5L52.9 190.5zM50.4 115.5L64.6 156.6H65L78.8 115.5L50.4 115.5z M246.3 91.9L186.9 91.9L248.2 171.7L248.2 190.5L154.5 190.5L158.4 168.6L215 168.6L152.4 88.7L152.4 70.5L250.2 70.5z M164.6 140.5L114.6 140.5L114.6 120.5L154.6 120.5z" />
    <glyph glyph-name="archive-mail"
      unicode="&#xF105;"
      horiz-adv-x="260" d=" M20 204L120 143.7L120 143.7z M234.5 230H5.5C2.5 230 0 227.5 0 224.5C0 224.5 0 224.5 0 224.5V55.5C0 52.5 2.5 50 5.5 50H122.9C109.2 71.9 106.3 98.8 114.8 123.1L20 180.1V204L120 143.7L120 143.7L123.8 141.4C149.1 180.2 200.7 191.6 240 167.1V224.5C240 227.5 237.5 230 234.5 230z M260 95C260 130.9 230.9 160 195 160S130 130.9 130 95S159.1 30 195 30S260 59.1 260 95zM161.4 85.1L169.1 92.8L189.3 72.5L189.1 138.3L199.8 127.5V72.3L220.6 92.9999999999999L228.4 85.3L194.7 51.7L161.4 85.1z" />
    <glyph glyph-name="bbva-experience"
      unicode="&#xF106;"
      horiz-adv-x="260" d=" M184.8 150.4C196.9 150.4 208.9 147.8 220 142.7V244C220 247.3 217.3 250 214 250H46C42.7 250 40 247.3 40 244V16C40 12.7 42.7 10 46 10H120.4C89.8 45.5 93.7 99.2 129.3 129.8C144.7 143.1 164.4 150.4 184.8 150.4zM70 220H188L168 200H70V220zM70 180H140L120 160H70V180z M185 130C149.1 130 120 100.9 120 65S149.1 0 185 0S250 29.1 250 65S220.9 130 185 130L185 130zM185.8 30C170 30 152.7 38.8 152.7 65C152.7 91.9 171.8 100.1 186.6 100.1C198.6 100.1 210 94.7 215.5 82.3L200.7 74.7C197.6 82.1 193.4 85.2 186.6 85.2C178.2 85.2 173 78.3 173 64.9C173 52.9 176.8000000000001 44.3 186.8000000000001 44.3C193.9 44.3 198.8000000000001 48.7 202.2000000000001 56.4L217.2000000000001 49C210.8 35.3 198.7 30 185.8 30z" />
    <glyph glyph-name="blind-app"
      unicode="&#xF107;"
      horiz-adv-x="260" d=" M170 70V50H50V230H170V210H190V240C190.1 245.4 185.9 249.8 180.5 250C180.4 250 180.4 250 180.3 250H40.3C34.7 250 30.1 245.6 30 240V20C30.2 14.4 34.7 10 40.3 10H180.3C185.7 10 190 14.4 190 19.8C190 19.9 190 20 190 20V70H170zM110.3 20C104.8 20 100.3 24.5 100.3 30S104.8 40 110.3 40S120.3 35.5 120.3 30S115.9 20 110.3 20z M199 136L174.2 111.7C187.8 111.6 198.9 122.5 199 136C199 136 199 136 199 136z M231.2 167.6L209.8 146.6C210.9 143.2 211.4 139.6 211.4 136C211.4 115.9 194.8 99.5 174.3 99.5C170.6 99.5 167 100 163.5 101.1L150.3 88.1C158 85.6 166.1 84.3 174.3 84.3C230 84.3 248.5 139 248.5 139C244.5 149.5 238.6 159.2 231.2 167.6z M211 184.3C199.8 190.6 187.1 193.9 174.2 193.8C118.6 193.7 100 139 100 139S107.3 117.4 126.6 101.3L112.4 87.3V69.1L144.4 100.5L151.3 107.3L186 141.4L194.6 149.9L212.7 167.7000000000001L221.9 176.8L230 184.7000000000001V202.8L211 184.3zM184.4 158.1C181.2 159.5 177.7 160.3 174.2 160.3C160.7 160.4 149.6 149.6 149.5 136C149.5 132.5 150.2 129.1 151.7 126L142.6 117C139 122.7 137.2 129.3 137.2 136C137.2 156.1 153.8 172.5 174.3 172.5C181.1 172.5 187.8 170.7 193.6 167.2L184.4 158.1z" />
    <glyph glyph-name="branch"
      unicode="&#xF108;"
      horiz-adv-x="260" d=" M130 250C74.8 250 30 205.2 30 150C30 149 30 148 30 147C32 58.7 121.6 2.3 121.6 2.3C126.2 -0.8 133.6 -0.8 138.1 2.2C138.1 2.2 227.9 58.7 229.9 147C229.9 148 229.9 149 229.9 150C230 205.2 185.2 250 130 250zM180 76C180 72.7 177.3 70 174 70H150V100H110V70H86C82.7 70 80 72.7 80 76V200L180 210V76z M120 140H140V120H120V140z M120 170.4H140V150H120V170.4z M170 170.4L150 170L150 150L170 150z M150 140H170V120H150V140z M90 170.4H110V150H90V170.4z M90 140H110V120H90V140z" />
    <glyph glyph-name="calculator"
      unicode="&#xF109;"
      horiz-adv-x="260" d=" M32.5 238.3066652416667C32.5 244.3044783833334 37.320251475 249.1666666666667 43.2618082 249.1666666666667L216.7381915833334 249.1666666666667C222.68177425 249.1666666666667 227.5 244.4058679833334 227.5 238.3066652416667L227.5 21.6933350833333C227.5 15.6955218333333 222.6797484166667 10.8333333333333 216.7381915833334 10.8333333333333L43.2618082 10.8333333333333C37.3182256416667 10.8333333333333 32.5 15.5941315833333 32.5 21.6933350833333L32.5 238.3066652416667zM167.9166666666667 134.3333333333333L195 134.3333333333333L195 161.4166666666667L167.9166666666667 161.4166666666667L167.9166666666667 134.3333333333333zM167.9166666666667 85.5833333333333L195 85.5833333333333L195 112.6666666666667L167.9166666666667 112.6666666666667L167.9166666666667 85.5833333333333zM167.9166666666667 36.8333333333333L195 36.8333333333333L195 63.9166666666666L167.9166666666667 63.9166666666666L167.9166666666667 36.8333333333333zM115.9166666666667 134.3333333333333L143 134.3333333333333L143 161.4166666666667L115.9166666666667 161.4166666666667L115.9166666666667 134.3333333333333zM115.9166666666667 85.5833333333333L143 85.5833333333333L143 112.6666666666667L115.9166666666667 112.6666666666667L115.9166666666667 85.5833333333333zM115.9166666666667 36.8333333333333L143 36.8333333333333L143 63.9166666666666L115.9166666666667 63.9166666666666L115.9166666666667 36.8333333333333zM65 134.3333333333333L92.0833333333333 134.3333333333333L92.0833333333333 161.4166666666667L65 161.4166666666667L65 134.3333333333333zM65 85.5833333333333L92.0833333333333 85.5833333333333L92.0833333333333 112.6666666666667L65 112.6666666666667L65 85.5833333333333zM65 36.8333333333333L92.0833333333333 36.8333333333333L92.0833333333333 63.9166666666666L65 63.9166666666666L65 36.8333333333333zM63.9166666666667 216.6666666666667L63.9166666666667 189.5833333333333L172.25 189.5833333333333L193.9166666666667 216.6666666666667L63.9166666666667 216.6666666666667z" />
    <glyph glyph-name="calendar"
      unicode="&#xF10A;"
      horiz-adv-x="260" d=" M231 220H210V240H190V220H70V240H50V220H31C25.4 220 20 216.8 20 211.3V31.1C20 25.7 25.5 19.9 31 19.9H231C236.6 19.9 240 25.6 240 31.1V211.3C240 216.7 236.5 220 231 220zM80 50H60V70H80V50zM80 90H60V110H80V90zM120 50H100V70H120V50zM120 90H100V110H120V90zM120 130H100V150H120V130zM160 50H140V70H160V50zM160 90H140V110H160V90zM160 130H140V150H160V130zM200 90H180V110H200V90zM200 130H180V150H200V130zM191 170H50V190H211L191 170z" />
    <glyph glyph-name="color"
      unicode="&#xF10B;"
      horiz-adv-x="260" d=" M207.2 32.8C207.2 49.3 225.5 62.2 228.6 78.4C231.7 62.1 250 49.2 250 32.8C250 20.2 240.4 10 228.6 10S207.2 20.2 207.2 32.8z M228 118.6L223.6 124L149.5 213.9L115.5 255.2L96.8 239.7L124.7 205.8L23.5 122.3C19.2 118.8 18.9 113.3 22.4 109L100.9 13.7C104.4 9.4 110 8.6 114.3 12.1L225.8 104.1C230.1 107.6 231.5 114.3 228 118.6zM48 114.1L139.5 189.5L201.1 114.1L48 114.1z" />
    <glyph glyph-name="configuration"
      unicode="&#xF10C;"
      horiz-adv-x="260" d=" M130.2 79.8C116.4 79.8 105.2 68.6 105.2 54.8S116.4 29.8 130.2 29.8S155.2 41 155.2 54.8L155.2 54.8C155.2 68.6 144 79.8 130.2 79.8z M105.2 129.8C105.2 115.9928812542302 116.3928812542302 104.8 130.2 104.8C144.0071187457698 104.8 155.2 115.9928812542302 155.2 129.8C155.2 143.6071187457699 144.0071187457698 154.8 130.2 154.8C116.3928812542302 154.8 105.2 143.6071187457699 105.2 129.8z M130.2 179.8C144 179.8 155.2 191 155.2 204.8S144 229.8 130.2 229.8S105.2 218.6 105.2 204.8C105.2 191 116.4 179.8 130.2 179.8C130.2 179.8 130.2 179.8 130.2 179.8z" />
    <glyph glyph-name="copy"
      unicode="&#xF10D;"
      horiz-adv-x="260" d=" M227.5715249166667 21.6666666666667L43.3333333333333 21.6666666666667L65 43.3333333333333L216.6666666666667 43.3333333333333L216.6666666666667 195L238.3333333333334 216.6666666666667L238.3333333333334 32.4284750833333C238.3333333333334 26.48691825 233.5151075833334 21.6666666666667 227.5715249166667 21.6666666666667zM21.6666666666667 227.4905570166667C21.6666666666667 233.4788570833334 26.4835009833333 238.3333333333334 32.5094429833333 238.3333333333334L184.15722325 238.3333333333334C190.14552375 238.3333333333334 195 233.5164990166667 195 227.4905570166667L195 75.84277675C195 69.85447625 190.18316525 65 184.15722325 65L32.5094429833333 65C26.5211429166667 65 21.6666666666667 69.81683475 21.6666666666667 75.84277675L21.6666666666667 227.4905570166667z" />
    <glyph glyph-name="desktop"
      unicode="&#xF10E;"
      horiz-adv-x="260" d=" M240.2 240H20.2C14.7 240 10.2 235.5 10.2 230V70C10.2 64.5 14.7 60 20.2 60H240.2C245.7 60 250.2 64.5 250.2 70V230C250.2 235.5 245.8 240 240.2 240zM230.2 80H30.2V220H230.2V80z M200.2 200L50.2 200L50.2 100L100.2 100z M0.2 40H260.2V20H0.2V40z" />
    <glyph glyph-name="directory"
      unicode="&#xF10F;"
      horiz-adv-x="260" d=" M220 150H200V90H220V150z M200 70V10H220V70H200z M180 30.1V170.2C180.7 170.1 181.3 170 182 170H220V238C220 244.6 214.6 250 208 250H182C181.3 250 180.7 249.9 180 249.8V250H67.2C64.3 249 59.2 248.4 56.5 247C47.2 242.3 41.7 234.5 41 224C41 223.6 41 223.2 41 222.7C41 169 41 91 41 37.3C41 24.3 50 13.7 62.6 10.7C65 10.1 58.4 10 60.9 10C105.4 10 136.3 10 180 10L180 30.1zM110 190C121 190 130 181 130 170S121 150 110 150S90 159 90 170S99 190 110 190zM150 100H70V104.2C69.9 121 81.2 135.8 97.4 140C105.3 135.9 114.6 135.9 122.5 140C138.8 135.8 150.1 121 150 104.2V100z" />
    <glyph glyph-name="document"
      unicode="&#xF110;"
      horiz-adv-x="260" d=" M119.1666666666667 249.1666666666667L119.1666666666667 151.6666666666667L151.6666666666667 151.6666666666667L173.3333333333334 173.3333333333333L140.8333333333334 173.3333333333333L140.8333333333334 249.1666666666667L151.6666666666667 249.1666666666667L216.6666666666667 184.1666666666667L216.6666666666667 21.6761100833333C216.6666666666667 15.6878095833333 211.8498319166667 10.8333333333333 205.8238899166667 10.8333333333333L54.17610965 10.8333333333333C48.1878095833333 10.8333333333333 43.3333333333333 15.5941315833333 43.3333333333333 21.6933350833333L43.3333333333333 238.3066652416667C43.3333333333333 244.3044783833334 48.2696976666667 249.1666666666667 54.1168070083333 249.1666666666667L119.1666666666667 249.1666666666667z" />
    <glyph glyph-name="download"
      unicode="&#xF111;"
      horiz-adv-x="260" d=" M130 250C63.7 250 10 196.3 10 130S63.7 10 130 10S250 63.7 250 130S196.3 250 130 250zM129.7 50L68 111.7L82.3 126L119.7 88.5L119.3 210L139 190V88.2L177.4 126.4L191.8 112.1L129.7 50z" />
    <glyph glyph-name="edit"
      unicode="&#xF112;"
      horiz-adv-x="260" d=" M236.1 201.2L200.4 237.1C196.6 241 190.3 241 186.4 237.2C186.4 237.2 186.3 237.1 186.3 237.1L154.4 205L189.2 170H159.3L139.4 190L20 70V20H69.8L236.1 187C240 190.9 240 197.2 236.1 201.2C236.1 201.2 236.1 201.2 236.1 201.2z M120 40L100 20L240 20L240 40z" />
    <glyph glyph-name="excel"
      unicode="&#xF113;"
      horiz-adv-x="260" d=" M43.3333333333333 238.3333333333334C43.3333333333333 244.8333333333334 48.75 249.1666666666667 54.1666666666667 249.1666666666667H151.6666666666667L216.6666666666667 184.1666666666667V21.6666666666667C216.6666666666667 15.1666666666666 212.3333333333334 10.8333333333333 205.8333333333334 10.8333333333333H54.1666666666667C47.6666666666667 10.8333333333333 43.3333333333333 15.1666666666666 43.3333333333333 21.6666666666667V238.3333333333334zM156 109.4166666666667C160.3333333333334 101.8333333333333 167.9166666666667 96.4166666666667 179.8333333333334 96.4166666666667C196.0833333333334 96.4166666666667 202.5833333333334 105.0833333333333 202.5833333333334 113.75C202.5833333333334 125.6666666666667 190.6666666666667 127.8333333333334 182.0000000000001 130C176.5833333333334 131.0833333333333 172.2500000000001 132.1666666666667 172.2500000000001 136.5C172.2500000000001 138.6666666666666 174.4166666666668 140.8333333333333 178.7500000000001 140.8333333333333C183.0833333333334 140.8333333333333 188.5 137.5833333333333 191.75 134.3333333333333L201.5 141.9166666666667C197.1666666666667 147.3333333333333 190.6666666666667 152.75 179.8333333333334 152.75C167.9166666666667 152.75 159.25 147.3333333333333 159.25 136.5C159.25 124.5833333333333 171.1666666666667 122.4166666666667 179.8333333333334 120.25C185.25 119.1666666666667 189.5833333333334 118.0833333333334 189.5833333333334 114.8333333333333C189.5833333333334 111.5833333333333 186.3333333333334 110.5 182 110.5C176.5833333333334 110.5 171.1666666666667 113.75 167.9166666666667 118.0833333333333L156 109.4166666666667zM152.75 97.5V109.4166666666667H130V150.5833333333333H115.9166666666667V97.5H152.75zM93.1666666666667 97.5H108.3333333333333L92.0833333333333 124.5833333333333L107.25 149.5H92.0833333333333L84.5 135.4166666666667L76.9166666666667 149.5H60.6666666666667L75.8333333333333 125.6666666666667L59.5833333333333 97.5H74.75L83.4166666666667 113.75L93.1666666666667 97.5z" />
    <glyph glyph-name="face-id"
      unicode="&#xF114;"
      horiz-adv-x="260" d=" M90 250H22C15.4 250 10 244.6 10 238V170H30V224C30 227.3 32.7 230 36 230H90V250z M250 170V238C250 244.6 244.6 250 238 250H170V230H224C227.3 230 230 227.3 230 224V170H250z M170 10H238C244.6 10 250 15.4 250 22V90H230V36C230 32.7 227.3 30 224 30H170V10z M10 90V22C10 15.4 15.4 10 22 10H90V30H36C32.7 30 30 32.7 30 36V90H10z M200 130C200 168.7 168.7 200 130 200S60 168.7 60 130S91.3 60 130 60L130 60C168.7 60 200 91.3 200 130zM155 160C160.5 160 165 155.5 165 150S160.5 140 155 140S145 144.5 145 150S149.5 160 155 160zM105 160C110.5 160 115 155.5 115 150S110.5 140 105 140S95 144.5 95 150S99.5 160 105 160zM170 114C162.9 91.9 139.3 79.7 117.2 86.8C104.3 90.9 94.1 101.1 90 114C89.4 116.1 90.6 118.3 92.8 118.9C92.9 118.9 93 118.9 93 119H166C168.2 119.1 170.1 117.3 170.1 115.1C170.1 114.7 170.1 114.4 170 114z" />
    <glyph glyph-name="filter"
      unicode="&#xF115;"
      horiz-adv-x="260" d=" M84 112L59.7 87.8L59.7 195.1L40.3 195.1L40.3 87.8L16 112L4.7 100.7L38.7 66.7L50 55.4L95.3 100.7z M99.7 84.9L99.7 59.9L203 59.9L213.5 84.9z M99.9 140L99.9 115L226.2 115L236.7 140z M100.1 195.1L100.1 170.1L249.4 170.1L259.9 195.1z" />
    <glyph glyph-name="folder"
      unicode="&#xF116;"
      horiz-adv-x="260" d=" M60 140L40 160H230V188C230 194.6 224.6 200 218 200H80L60 220H22C15.4 220 10 214.6 10 208V52C10 45.4 15.4 40 22 40H220C225.8 40 230.8 44.1 231.8 49.8L249.8 126C251 133.3 245.4 140 238 140H60z" />
    <glyph glyph-name="frecuency"
      unicode="&#xF117;"
      horiz-adv-x="260" d=" M108.3333333333333 22.75L108.3333333333333 21.6666666666667H32.5L52 48.75C27.0833333333333 69.3333333333333 10.8333333333333 100.75 10.8333333333333 135.4166666666667C10.8333333333333 198.25 61.75 249.1666666666667 124.5833333333334 249.1666666666667S238.3333333333334 198.25 238.3333333333334 135.4166666666667L238.3333333333334 132.1666666666667C229.6666666666667 138.6666666666666 221 144.0833333333333 210.1666666666667 147.3333333333333C204.75 189.5833333333333 167.9166666666667 222.0833333333333 124.5833333333333 222.0833333333333C76.9166666666666 222.0833333333333 37.9166666666667 183.0833333333333 37.9166666666667 135.4166666666667C37.9166666666667 109.4166666666667 48.75 86.6666666666667 67.1666666666667 70.4166666666667L86.6666666666667 97.5L107.25 24.9166666666667L108.3333333333333 22.75L108.3333333333333 22.75zM249.1666666666667 65C249.1666666666667 29.25 219.9166666666667 0 184.1666666666667 0S119.1666666666667 29.25 119.1666666666667 65S148.4166666666667 130 184.1666666666667 130S249.1666666666667 100.75 249.1666666666667 65zM189.5833333333334 94.25L177.6666666666667 106.1666666666667V58.5H201.5L213.4166666666667 70.4166666666667H189.5833333333334V94.25z" />
    <glyph glyph-name="graphics"
      unicode="&#xF118;"
      horiz-adv-x="260" d=" M21.6666666666667 227.5887996416667C21.6666666666667 233.5228417166667 26.5991437833333 238.3333333333334 32.4112003583333 238.3333333333334L227.58879975 238.3333333333334C233.5228415 238.3333333333334 238.3333333333334 233.4008562166667 238.3333333333334 227.5887996416667L238.3333333333334 32.41120025C238.3333333333334 26.4771585 233.4008560000001 21.6666666666667 227.58879975 21.6666666666667L32.4112003583333 21.6666666666667C26.4771582833333 21.6666666666667 21.6666666666667 26.599144 21.6666666666667 32.41120025L21.6666666666667 227.5887996416667zM173.3333333333334 130L173.3333333333334 43.3333333333333L216.6666666666667 43.3333333333333L216.6666666666667 173.3333333333333L173.3333333333334 130zM108.3333333333333 173.3333333333333L108.3333333333333 43.3333333333333L151.6666666666667 43.3333333333333L151.6666666666667 216.6666666666667L108.3333333333333 173.3333333333333zM43.3333333333333 86.6666666666667L43.3333333333333 43.3333333333333L86.6666666666667 43.3333333333333L86.6666666666667 130L43.3333333333333 86.6666666666667z" />
    <glyph glyph-name="history"
      unicode="&#xF119;"
      horiz-adv-x="260" d=" M120 173.2L120 131.9L88.2 100.1L116.5 100.2L139.6 123.2L140 123.2L140 193.2z M130 249.2C91.5 249.2 55.4 230.8 32.8 199.6L10 219.2V139.2L80 159.2L55.7 180C83.8 221 139.8 231.5 180.8 203.5S232.3 119.4 204.3 78.4S120.2 26.9 79.2 54.9C63 66 50.8 82.1 44.6 100.8L16.1 91.3C37.1 28.4 105 -5.5 167.9 15.4S264.7000000000001 104.3 243.8000000000001 167.2C227.5 216.2 181.6 249.2 130 249.2z" />
    <glyph glyph-name="home"
      unicode="&#xF11A;"
      horiz-adv-x="260" d=" M130 180L30 100V20C30 14.5 34.4 10 39.9 10C39.9 10 39.9 10 39.9 10H130V90H190V10H220.1C225.6 10 230 14.5 230 20V100L130 180zM90 60H60V80H110L90 60z M130 240L0 130L20 110L130 200L240 110L260 130z" />
    <glyph glyph-name="hpd"
      unicode="&#xF11B;"
      horiz-adv-x="260" d=" M176.7 145.3H171.2V109.9H176.9C189 109.9 193.5 115.3 193.5 127.9C193.5 139.8 188.9 145.3 176.7 145.3z M160.2 250H52C45.4 250 40 244.6 40 238V18C40 13.6 43.6 10 48 10H212C216.4 10 220 13.6 220 18V190L160.2 250zM100.5 100H88.3V123.7H66.5V100H54.3V155.5H66.5V134H88.3V155.5H100.5V100zM130.6 119.8H122.7V100H110.6V155.5H130.8C142.6 155.5 153.4 152.4 153.4 137.7C153.3 122.8 141.7 119.8 130.6 119.8zM176.1 100H159.1V155.5H176.1C193 155.5 205.8 148.3 205.8 128.1C205.7 107.2 192.8 100 176.1 100z M131 145.5H122.7V129.2H131C138.6 129.2 141.4 132.1 141.4 137.4C141.4 142.6 138.7 145.5 131 145.5z" />
    <glyph glyph-name="id-card"
      unicode="&#xF11C;"
      horiz-adv-x="260" d=" M240.2 220H20.2C14.7 220 10.1 215.6 10 210.1V50C10.1 44.4 14.7 40 20.2 40.1H240.2C245.6 40.1 250 44.5 250 49.9C250 50 250 50 250 50.1V210.1C250.1 215.5 245.8 219.9 240.4 220C240.3 220 240.3 220 240.2 220zM94.6 190C109.7 190 121.9 177.8 121.9 162.7S109.7 135.4 94.6 135.4C79.5 135.4 67.3 147.6 67.3 162.7C67.3 177.8 79.5 190 94.6 190C94.5 190 94.5 190 94.6 190zM149 70H40V80.9C40 103.5 55.5 123.2 77.4 128.6C88.2 123.2 100.8 123.2 111.6 128.6C133.6 123.2 149 103.5 149 80.9V70zM200.2 120H160V140H220.2L200.2 120zM200.2 160H160V180H220.2L200.2 160z" />
    <glyph glyph-name="illustration"
      unicode="&#xF11D;"
      horiz-adv-x="260" d=" M240 180V240H180V220H80V240H20V180H40V80H20V20H80V40H180V20H240V80H220V180H240zM40 220H60V200H40V220zM60 40H40V60H60V40zM180 60H80V80H60V180H80V200H180V180H200V80H180V60zM220 40H200V60H220V40z M89 90.3L120.4 179.5H139L170 91.8L151.2 88.9L144.1 110.1H113.9L107 90.3H89zM118.6 124.3H139.5L129.3 154.5H129.1L118.6 124.3z" />
    <glyph glyph-name="jpg"
      unicode="&#xF11E;"
      horiz-adv-x="260" d=" M122.5 146H114V130H122.5C130 130 132.8 132.8 132.8 138.1C132.7 143.2 130 146 122.5 146z M160 250H46.4C43 250.1 40.1 247.5 40 244C40 244 40 244 40 244V16.5C40 13 42.9 10.1 46.4 10H213.6C217.1 10.1 220 13 220 16.5V190.2L160 250zM92 117C92 106.8 86.8 99.8 73.7 99.8C66.4 99.8 61.8 102.3 58.5 105.2L63.7 114C66.3 111.6 69.6 109.4 73.2 109.4C77.5 109.4 80 112.1 80 118.8000000000001V156H92V117zM122 120H114V101H102V156H122.2C133.9 156 144.5 152.5 144.5 138.1C144.5 123.4 133 120 122 120zM198 101H188V107H187.9C185.7 103 180.3 99.9 173.4 99.9C157 99.9 149.6 112 149.6 128.5C149.6 145.7 159.1 156.7 174.3 156.7C182.6 156.7 191.5 153.3 196.3 143.6L186.1 139C184 143.6 180.3 146.7 174.9 146.7C170 146.7 161.7 144.1 161.7 128.7S169.1 109.4 174.9 109.4C180.9 109.4 185 113.1 186.1 119.1H177.4L175.6 128.1H198V101z" />
    <glyph glyph-name="keyboard"
      unicode="&#xF11F;"
      horiz-adv-x="260" d=" M244.5 220H15.5C12.5 220.1 10 217.7 10 214.7C10 214.7 10 214.7 10 214.7V45.4C10.1 42.4 12.5 40 15.5 40.1H244.4C247.4 40 249.9 42.4 249.9 45.4C249.9 45.4 249.9 45.4 249.9 45.4V214.7C249.9 217.7 247.5 220.1 244.5 220zM163.3 184.6H185.5V162.4H163.3V184.6zM118.9 184.6H141.1V162.4H118.9V184.6zM163.3 140.1V117.9H141.1V140.1L163.3 140.1zM74.4 184.6H96.6V162.4H74.4V184.6zM118.9 140.1V117.9H96.7V140.1L118.9 140.1zM30 184.6H52.2V162.4H30V184.6zM30 140.1H74.4V117.9H30V140.1zM52.2 73.4H30V95.6H52.2V73.4zM185.6 73.4H74.4V95.6H185.5L185.6 73.4zM230 73.4H207.8V95.6H230L230 73.4zM230 140.1V117.9H185.6V140.1H207.8V184.6H230L230 140.1z" />
    <glyph glyph-name="list-view"
      unicode="&#xF120;"
      horiz-adv-x="260" d=" M10 210H40V180H10V210z M10 145H40V115H10V145z M10 80H40V50H10V80z M68 210L68 180L225.2 180L237.7 210z M68 145L68 115L197.8 115L198.8 116.8L210.6 145z M68.8 80L68.8 50L228 50L240.5 80z" />
    <glyph glyph-name="look-up"
      unicode="&#xF121;"
      horiz-adv-x="260" d=" M218.4 56.1C239.6 85.4 233.1 126.3 203.8 147.6S133.6 162.3 112.3 133S97.6 62.8 126.9 41.5C149.8 24.9 180.9 24.9 203.8 41.5L245.4 -0.1L260 14.5L218.4 56.1zM194.5 94.5C194.5 110.6 181.5 123.6 165.4 123.6V138.1C189.5 138.1 209 118.6 209 94.5L194.5 94.5z M100.3 40H56C52.7 40 50 42.7 50 46V224C50 227.3 52.7 230 56 230H194C197.3 230 200 227.3 200 224V172.4C207.2 169.1 214 164.8 220 159.7V244C220 247.3 217.3 250 214 250H36C32.7 250 30 247.3 30 244V26C30 22.7 32.7 20 36 20H125.1C115.6 25.1 107.2 31.8 100.3 40z" />
    <glyph glyph-name="mobile-print"
      unicode="&#xF122;"
      horiz-adv-x="260" d=" M84.2 118H90V92.2C90 89.9 91.8 88 94.1 88C94.1 88 94.1 88 94.1 88H165.8C168.1 88 169.9 89.9 169.9 92.2C169.9 92.2 169.9 92.2 169.9 92.2V118H175.7C178 118 179.9 119.9 179.9 122.2C179.9 122.2 179.9 122.2 179.9 122.2V163H169.9V183.8C169.9 186.1 168.1 188 165.8 188C165.8 188 165.8 188 165.8 188H94.1C91.8 188 90 186.1 90 183.8C90 183.8 90 183.8 90 183.8V163H80V122.2C80 119.9 81.9 118 84.2 118zM100 178H160V163H100V178zM100 126.3H160V98H100V126.3z M200 250H60C54.5 250 50 245.5 50 240V20C50 14.5 54.5 10 60 10H200C205.5 10 210 14.5 210 20V240C210 245.5 205.5 250 200 250zM130 20C124.5 20 120 24.5 120 30S124.5 40 130 40C135.5 40 140 35.5 140 30S135.5 20 130 20zM190 50H70V230H190V50z" />
    <glyph glyph-name="mobile"
      unicode="&#xF123;"
      horiz-adv-x="260" d=" M65 249.1666666666667L195 249.1666666666667C200.98308425 249.1666666666667 205.8333333333334 244.316418125 205.8333333333334 238.3333333333334L205.8333333333334 21.6666666666667C205.8333333333334 15.6835824166666 200.98308425 10.8333333333333 195 10.8333333333333L65 10.8333333333333C59.0169152083333 10.8333333333333 54.1666666666667 15.6835824166666 54.1666666666667 21.6666666666667L54.1666666666667 238.3333333333334C54.1666666666667 244.316418125 59.0169152083333 249.1666666666667 65 249.1666666666667zM75.8333333333333 227.5L75.8333333333333 54.1666666666667L184.1666666666667 54.1666666666667L184.1666666666667 227.5L75.8333333333333 227.5zM97.5 205.8333333333333L162.5 205.8333333333333L162.5 151.6666666666667L97.5 86.6666666666667L97.5 205.8333333333333zM130 21.6666666666667C135.98308425 21.6666666666667 140.8333333333334 26.51691575 140.8333333333334 32.5C140.8333333333334 38.48308425 135.98308425 43.3333333333333 130 43.3333333333333C124.01691575 43.3333333333333 119.1666666666667 38.48308425 119.1666666666667 32.5C119.1666666666667 26.51691575 124.01691575 21.6666666666667 130 21.6666666666667z" />
    <glyph glyph-name="my-profile"
      unicode="&#xF124;"
      horiz-adv-x="260" d=" M161.4 127.7C141.7 117.8 118.4 117.8 98.6 127.7C58.3 117.8 30 81.7 30 40.3V20.3H230V40.3C230 81.7 201.7 117.8 161.4 127.7zM160 50.2H130V70.2H180L160 50.2z M80 190.2C80 162.5857625084603 102.3857625084603 140.2 130 140.2C157.6142374915397 140.2 180 162.5857625084603 180 190.2C180 217.8142374915397 157.6142374915397 240.2 130 240.2C102.3857625084603 240.2 80 217.8142374915397 80 190.2z" />
    <glyph glyph-name="my-projects"
      unicode="&#xF125;"
      horiz-adv-x="260" d=" M220 16.3V190L160 250V187H210.6L190.6 170H140V250H46.6C43.1 250 40.1 247.3 40 243.7V16.3C40.1 12.8 43.1 10 46.6 10H213.8C217.2 10 219.9 12.7 220 16.1C220 16.1 220 16.2 220 16.3zM100 120C111 120 120 111 120 100S111 80 100 80S80 89 80 100S89 120 100 120zM140 30H60V34.2C59.9 51 71.2 65.8 87.5 70C95.4 65.9 104.7 65.9 112.6 70C128.9 65.8 140.2 51 140.1 34.2V30z" />
    <glyph glyph-name="new-client"
      unicode="&#xF126;"
      horiz-adv-x="260" d=" M50 199.5C50 171.8857625084603 72.3857625084603 149.5 100 149.5C127.6142374915397 149.5 150 171.8857625084603 150 199.5C150 227.1142374915397 127.6142374915397 249.5 100 249.5C72.3857625084603 249.5 50 227.1142374915397 50 199.5z M144.3 132.7C140.1 134.4 135.8 135.8 131.4 136.9C111.7 127 88.4 127 68.6 136.9C28.3 127.1 0 91 0 49.5V29.5H117.6C101.1 65.9 112.2 108.9 144.3 132.7L144.3 132.7z M195 129.5C159.1 129.5 130 100.4 130 64.5S159.1 -0.5 195 -0.5S260 28.6 260 64.5S230.9 129.5 195 129.5L195 129.5zM228.3 56.4H203.1V24.5H186.9V56.4H155V72.6H186.9V104.5H203.1V72.6H235L228.3 56.4z" />
    <glyph glyph-name="no-client"
      unicode="&#xF127;"
      horiz-adv-x="260" d=" M140.2 60.1L170.2 60.1L190.2 80.1L140.2 80.1z M176.2 136.3L70 30.1H240.2V50.1C240.2 89.8 214.2 124.8 176.2 136.3zM170.2 60.1H140.2V80.1H190.2L170.2 60.1z M20 9.9L229.9 219.6V249.7L189.3 209.1C184.3 236.3 158.3 254.3 131.1 249.3S86 218.3 91 191.1C94.7 170.7 110.7 154.7 131.2 150.9L117.8 137.5H108.8C72.3 128.6 45.2 97.9 40.8 60.5L20 39.8V9.9L20 9.9z" />
    <glyph glyph-name="no-draw"
      unicode="&#xF128;"
      horiz-adv-x="260" d=" M182.8480506666667 166.267677225C190.2208500833334 166.267677225 197.37811275 165.3547558 204.2296869166667 163.6667318L234.713596 194.289496375C238.8315875833334 198.4261394916667 238.7652680833334 204.9088146083333 234.7457200833334 208.9480517583334L197.7273230833334 246.1332814416667C193.6735785833334 250.2067142575 187.1743239166667 250.1590475366667 183.1350874166667 246.1021944333333L166.6734864166667 228.4541061833333L202.781033 192.1828342416667L171.8287458333333 192.1828342416667L151.2004509166667 212.91060765L10.8333333333333 73.017048L10.8333333333333 21.2043498333333L62.4108063583333 21.2043498333333L96.424126175 55.3710321666667C94.67289195 62.3438465 93.7319921416667 69.6368551666667 93.7319921416667 77.1516189166667C93.7319921416667 126.3685529166667 133.630081 166.267677225 182.8480506666667 166.267677225M218.0485829166667 54.7410023333333L205.259392 41.95077575L181.8115065 65.9416474166667L157.79058425 41.9196895L145.54334275 54.1658931666667L169.56530175 78.1878521666667L145.54334275 102.2098111666667L157.79058425 114.4560159166667L181.8115065 90.4340569166667L205.8334655 114.4560159166667L218.0796691666667 102.2098111666667L194.0587469166667 78.1878521666667L218.0485829166667 54.7410023333333zM181.8115065 145.5430123333333C144.612806 145.5430123333333 114.4563463333334 115.3865526666667 114.4563463333334 78.1878521666667C114.4563463333334 40.9891516666667 144.612806 10.832692 181.8115065 10.832692C219.01124375 10.832692 249.1666666666667 40.9891516666667 249.1666666666667 78.1878521666667C249.1666666666667 115.3865526666667 219.01124375 145.5430123333333 181.8115065 145.5430123333333L181.8115065 145.5430123333333z" />
    <glyph glyph-name="one-click"
      unicode="&#xF129;"
      horiz-adv-x="260" d=" M130 10.8333333333333C63.9166666666667 10.8333333333333 10.8333333333333 63.9166666666666 10.8333333333333 130S63.9166666666667 249.1666666666667 130 249.1666666666667S249.1666666666667 196.0833333333333 249.1666666666667 130S196.0833333333334 10.8333333333333 130 10.8333333333333zM130 32.5C184.1666666666667 32.5 227.5 75.8333333333333 227.5 130S184.1666666666667 227.5 130 227.5S32.5 184.1666666666667 32.5 130S75.8333333333333 32.5 130 32.5zM130 65C94.25 65 65 94.25 65 130S94.25 195 130 195S195 165.75 195 130S165.75 65 130 65zM130 86.6666666666667C153.8333333333334 86.6666666666667 173.3333333333334 106.1666666666667 173.3333333333334 130S153.8333333333334 173.3333333333333 130 173.3333333333333S86.6666666666667 153.8333333333333 86.6666666666667 130S106.1666666666667 86.6666666666667 130 86.6666666666667z" />
    <glyph glyph-name="order"
      unicode="&#xF12A;"
      horiz-adv-x="260" d=" M20 210H240.1V180H20V210z M20 145H240.1V115H20V145z M20 80H240.1V50H20V80z" />
    <glyph glyph-name="pdf"
      unicode="&#xF12B;"
      horiz-adv-x="260" d=" M43.3333333333333 238.3333333333334C43.3333333333333 244.8333333333334 48.75 249.1666666666667 54.1666666666667 249.1666666666667H151.6666666666667L216.6666666666667 184.1666666666667V21.6666666666667C216.6666666666667 15.1666666666666 212.3333333333334 10.8333333333333 205.8333333333334 10.8333333333333H54.1666666666667C47.6666666666667 10.8333333333333 43.3333333333333 15.1666666666666 43.3333333333333 21.6666666666667V238.3333333333334zM81.25 101.8333333333333V119.1666666666667H86.6666666666667C99.6666666666667 119.1666666666667 107.25 123.5 107.25 135.4166666666667C108.3333333333333 147.3333333333333 100.75 151.6666666666667 86.6666666666667 151.6666666666667H68.25V101.8333333333333H81.25zM81.25 128.9166666666667V140.8333333333333H87.75C93.1666666666667 140.8333333333333 95.3333333333333 138.6666666666667 95.3333333333333 135.4166666666667C95.3333333333333 131.0833333333333 93.1666666666667 128.9166666666667 87.75 128.9166666666667H81.25zM127.8333333333334 101.8333333333333C145.1666666666667 101.8333333333333 154.9166666666667 110.5 154.9166666666667 126.75C154.9166666666667 144.0833333333333 145.1666666666667 151.6666666666667 127.8333333333334 151.6666666666667H111.5833333333333V101.8333333333333H127.8333333333334zM125.6666666666667 112.6666666666667V140.8333333333333H128.9166666666667C138.6666666666667 140.8333333333333 141.9166666666667 136.5 141.9166666666667 126.75C141.9166666666667 115.9166666666667 138.6666666666667 112.6666666666667 128.9166666666667 112.6666666666667H125.6666666666667zM173.3333333333334 101.8333333333333V121.3333333333334H190.6666666666667L189.5833333333334 132.1666666666667H173.3333333333334V140.8333333333333H195V151.6666666666667H161.4166666666667V101.8333333333333H173.3333333333334z" />
    <glyph glyph-name="photo-login"
      unicode="&#xF12C;"
      horiz-adv-x="260" d=" M30 230L60 230L60 250L10 250L10 230L10 200L30 200z M30 60L10 60L10 10L60 10L60 30L30 30z M230 30L200 30L200 10L250 10L250 60L230 60z M200 250L200 230L230 230L230 200L250 200L250 250z M50.5 50H210.5V66C210.5 99.2 187.8 128.1 155.6 135.9C139.8 128 121.2 128 105.4 135.9C73.2 128 50.5 99.1 50.5 66V50zM129.5 100H179.5L159.5 80H129.5V100z M95.5 185C95.5 165.6700337559222 111.1700337559222 150 130.5 150C149.8299662440778 150 165.5 165.6700337559222 165.5 185C165.5 204.3299662440778 149.8299662440778 220 130.5 220C111.1700337559222 220 95.5 204.3299662440778 95.5 185z" />
    <glyph glyph-name="previous-appointment"
      unicode="&#xF12D;"
      horiz-adv-x="260" d=" M90.1 58.9V79H109.8C115.3 111.6 138.6 138.4 170.2 148.3V159.4H190.2V152C192.2 152.1 194.2 152.2 196.2 152.2C207.9 152.2 219.4 149.9 230.2 145.3V221.2C230.2 226.6 226.7 229.9 221.2 229.9H200.2V250H180.2V229.9H60V250H40V229.9H21C15.4 229.9 10 226.7 10 221.2V40C10 34.6 15.5 28.8 21 28.8H115.8C111.6 38.4 109.2 48.6 108.6 59L90.1 58.9zM110.1 99.1H90.1V119.2H110.1V99.1zM110.1 139.3H90.1V159.4H110.1V139.3zM150.1 139.3H130.1V159.4H150.1V139.3zM40 199.7H201.2L181.2 179.6H40V199.7zM70 58.9H50V79H70V58.9zM70 99.1H50V119.2H70V99.1z M229.6 120.7C203.5 137.2 169.3 133 148 110.6C136.4 98.4 129.9 82.2 129.9 65.4C129.9 63.6 130 61.8 130.1 60C133.2 24.2 164.8 -2.3 200.6 0.8S262.9 35.4999999999999 259.8 71.3C258 91.6 246.9 109.9 229.6 120.7L229.6 120.7zM189.5 109L200.3 98.1V70.9H227.4L216.6 60H189.5V109z" />
    <glyph glyph-name="print"
      unicode="&#xF12E;"
      horiz-adv-x="260" d=" M216.6666666666667 195L249.1666666666667 195L249.1666666666667 75.8333333333333C249.1666666666667 69.8502490833333 244.3164175833334 65 238.3333333333334 65L216.6666666666667 65L216.6666666666667 21.6666666666667C216.6666666666667 15.6835824166666 211.8164175833334 10.8333333333333 205.8333333333334 10.8333333333333L54.1666666666667 10.8333333333333C48.183581875 10.8333333333333 43.3333333333333 15.6835824166666 43.3333333333333 21.6666666666667L43.3333333333333 65L21.6666666666667 65C15.683581875 65 10.8333333333333 69.8502490833333 10.8333333333333 75.8333333333333L10.8333333333333 195L43.3333333333333 195L43.3333333333333 238.3333333333334C43.3333333333333 244.316418125 48.183581875 249.1666666666667 54.1666666666667 249.1666666666667L205.8333333333334 249.1666666666667C211.8164175833334 249.1666666666667 216.6666666666667 244.316418125 216.6666666666667 238.3333333333334L216.6666666666667 195zM65 227.5L65 195L195 195L195 227.5L65 227.5zM173.3333333333334 173.3333333333333L173.3333333333334 151.6666666666667L205.8333333333334 151.6666666666667L227.5 173.3333333333333L173.3333333333334 173.3333333333333zM65 97.5L65 32.5L195 32.5L195 97.5L65 97.5zM86.6666666666667 75.8333333333333L162.5 75.8333333333333L140.8333333333334 54.1666666666667L86.6666666666667 54.1666666666667L86.6666666666667 75.8333333333333z" />
    <glyph glyph-name="recognition-eye"
      unicode="&#xF12F;"
      horiz-adv-x="260" d=" M30 230L60 230L60 250L10 250L10 230L10 200L30 200z M30 60L10 60L10 10L60 10L60 30L30 30z M230 30L200 30L200 10L250 10L250 60L230 60z M200 250L200 230L230 230L230 200L250 200L250 250z M130 129.5V166.2C109.7 166.2 93.3 149.8 93.3 129.5S109.7 92.8 130 92.8S166.7 109.2 166.7 129.5C166.7 139.2 162.8 148.6 156 155.4L130 129.5z M240 129.5C240 129.5 212.5 212 130 212S20 129.5 20 129.5S47.5 47 130 47S240 129.5 240 129.5zM130 74.5C99.6 74.5 75 99.1 75 129.5S99.6 184.5 130 184.5S185 159.9 185 129.5S160.4 74.5 130 74.5z" />
    <glyph glyph-name="recycle"
      unicode="&#xF130;"
      horiz-adv-x="260" d=" M250 76.5L216.8 137.1L179.8 100.1L194.4 70.9H156.9V93.9L110 47.1L156.8 0.7V25.2H200.9C202.8 25.1 204.7 25.1 206.5 25.2H207.1C218.1 27.1 227.9 34.8 233.4 45.2L250 76.3L249.9 76.5L250 76.5z M127 193.4L144.7 160.2L124.3 149.5L187.6 130.1L206.8 192.8L185.1 181.4L164.2 220.6C163.5 222.3 162.6 224 161.6 225.6L161.3 226.1C154.4 234.9 143.1 239.9 131.3 239.9H96.1L96 239.7V239.8L60.2 185.1L110.2 169.8L127 193.4z M58 76.5L75.8 109.7L96 98.7L77 162.1L14.3 143.3L35.8 131.6L14.7 92.5C13.7 90.9 12.8 89.2 12 87.5L11.7 87C8.2 76.4 10.3 64.2 16.8 54.3L36.4 25H36.7L36.6 24.9L100.9 25L85.2 76.5H58z" />
    <glyph glyph-name="rotate-screen"
      unicode="&#xF131;"
      horiz-adv-x="260" d=" M257 163.2L163.4 256.7C159.7 260.4 153.7 260.4 150 256.7C150 256.7 150 256.7 150 256.7L130.1 236.8C135.7 233.6 140.9 229.9 145.7 225.7L156.6 236.6L236.8 156.4L116.6 36.2L36.4 116.4L103.3 183.3C97.5 187.4 90.6 189.8 83.5 190.3L3 109.7C-0.7 106 -0.7 100 3 96.3C3 96.3 3 96.3 3 96.3L96.5 2.8C100.2 -0.9 106.2 -0.9 109.9 2.8C109.9 2.8 109.9 2.8 109.9 2.8L256.9 149.8C260.6 153.4 260.7 159.4 257 163.2C257 163.1 257 163.1 257 163.2zM70.2 55.9C66.3 52 60 52 56.1 55.9S52.2 66.1 56.1 70S66.3 73.9 70.2 70C70.2 70 70.2 70 70.2 70C74.1 66.1 74.1 59.8 70.2 55.9C70.2 55.9 70.2 55.9 70.2 55.9z M145.2 197.3C119.4 232.9 69.6 240.8 34.1 215C28.8 211.1 23.9 206.6 19.7 201.5L33.6 187C53.7 213.2 91.2 218 117.2 197.8C122.1 194 126.4 189.4 130 184.3L113.9 170.5L160.3 157.2V210.2L145.2 197.3z" />
    <glyph glyph-name="save-for-later"
      unicode="&#xF132;"
      horiz-adv-x="260" d=" M32.5 238.3333333333334L184.1666666666667 238.3333333333334L238.3333333333334 184.1666666666667L238.3333333333334 32.5C238.3333333333334 26.51691575 233.48308425 21.6666666666667 227.5 21.6666666666667L32.5 21.6666666666667C26.5169152083333 21.6666666666667 21.6666666666667 26.51691575 21.6666666666667 32.5L21.6666666666667 227.5C21.6666666666667 233.4830847916667 26.5169152083333 238.3333333333334 32.5 238.3333333333334zM130 43.3333333333333L195 110.6180833333333L179.85168825 126.0685833333333L140.8333333333334 86.6666666666667L140.8333333333334 195L119.1666666666667 216.6666666666667L119.1666666666667 86.6666666666667L79.9698369166667 125.5995L65 110.1316666666667L130 43.3333333333333z" />
    <glyph glyph-name="school-supplies"
      unicode="&#xF133;"
      horiz-adv-x="260" d=" M246.5 228.5L228.1 246.9C223.4 251.6 215.8 251.6 211.1 246.9L200.7 236.5L211.3 225.9L204.2 218.8L193.6 229.4L179.5 215.3L190.1 204.7L183 197.6L172.4 208.2L158.3 194L168.9 183.4L161.8 176.3L151.2 187L137.1 172.8L147.7 162.2L140.6 155.1L130 165.7L115.9 151.6L126.5 141L119.4 133.9L108.8 144.5L94.7 130.3L105.3 119.7L98.2 112.6L87.6 123.2L73.5 109.1L84 98.6L77 91.5L66.4 102.1L52.3 88L62.9 77.4L55.8 70.3L45.2 80.9L31 66.7L41.6 56.1L34.5 49L23.9 59.6L13.5 49.2C8.8 44.5 8.8 36.9 13.5 32.2L31.9 13.8C36.6 9.1 44.2 9.1 48.9 13.8L246.5 211.5C251.2 216.2 251.2 223.8 246.5 228.5z M40 180L80 220L18.4 249.5C15.4 250.8 11.8 249.4 10.5 246.4C9.9 244.9 9.9 243.2 10.5 241.7L40 180z M183.3 119.1L169.1 105L233.7 40.4H205.4L155 90.9L140.9 76.8L204.1 13.6C208.8 8.9 216.4 8.9 221.1 13.6L246.5000000000001 39.1C251.2 43.8 251.2 51.4 246.5000000000001 56.1L183.3 119.1z M76.7 140.9L45 172.5L59.2 186.7L90.9 155z M105 169.2L73.3 200.9L87.4 215L119.1 183.3z" />
    <glyph glyph-name="search"
      unicode="&#xF134;"
      horiz-adv-x="260" d=" M182.9 97.1C212.1 137.3 203.1 193.6 162.9 222.8S66.4 243 37.2 202.8S17 106.3 57.2 77.1C88.7 54.2 131.4 54.2 162.9 77.1L220 20L240 40L182.9 97.1zM150 150C150 172.1 132.1 190 110 190V210C143.1 210 170 183.1 170 150L170 150H150z" />
    <glyph glyph-name="settings"
      unicode="&#xF135;"
      horiz-adv-x="260" d=" M130 80C102.4 80 80 102.4 80 130S102.4 180 130 180S180 157.6 180 130S157.6 80 130 80M248.5 135.7L193.4 233.7C191.3 237.6 187.3 240 182.9 240H77.1C72.7 240 68.7 237.6 66.6 233.7L11.5 135.7C9.5 132.1 9.5 127.8 11.5 124.2L66.6 26.2C68.7 22.3 72.7 19.9 77.1 19.9H182.8C187.2 19.9 191.2 22.3 193.3 26.2L248.4 124.2C250.5 127.8 250.5 132.2 248.5 135.7" />
    <glyph glyph-name="simulator"
      unicode="&#xF136;"
      horiz-adv-x="260" d=" M50 210C50 193.4314575050762 63.4314575050762 180 80 180C96.5685424949238 180 110 193.4314575050762 110 210C110 226.5685424949238 96.5685424949238 240 80 240C63.4314575050762 240 50 226.5685424949238 50 210z M125.8 230C129.9 220.6 131 210.1 129 200H230L260 230H125.8z M130 130C130 113.4314575050762 143.4314575050762 100 160 100C176.5685424949238 100 190 113.4314575050762 190 130C190 146.5685424949238 176.5685424949238 160 160 160C143.4314575050762 160 130 146.5685424949238 130 130z M10 150V120H111C108.9 130.1 110.1 140.6 114.2 150H10z M50 50C50 33.4314575050762 63.4314575050762 20 80 20C96.5685424949238 20 110 33.4314575050762 110 50C110 66.5685424949238 96.5685424949238 80 80 80C63.4314575050762 80 50 66.5685424949238 50 50z M125.8 70C129.9 60.6 131 50.1 129 40H230L260 70H125.8z" />
    <glyph glyph-name="tablet"
      unicode="&#xF137;"
      horiz-adv-x="260" d=" M54.1666666666667 249.1666666666667H205.8333333333334C212.3333333333334 249.1666666666667 216.6666666666667 244.8333333333334 216.6666666666667 238.3333333333334V21.6666666666667C216.6666666666667 15.1666666666666 212.3333333333334 10.8333333333333 205.8333333333334 10.8333333333333H54.1666666666667C47.6666666666667 10.8333333333333 43.3333333333333 15.1666666666666 43.3333333333333 21.6666666666667V238.3333333333334C43.3333333333333 244.8333333333334 47.6666666666667 249.1666666666667 54.1666666666667 249.1666666666667zM65 227.5V54.1666666666667H195V227.5H65zM86.6666666666667 205.8333333333333H173.3333333333334V151.6666666666667L86.6666666666667 86.6666666666667V205.8333333333333zM130 21.6666666666667C136.5 21.6666666666667 140.8333333333334 26 140.8333333333334 32.5S136.5 43.3333333333333 130 43.3333333333333S119.1666666666667 39 119.1666666666667 32.5S123.5 21.6666666666667 130 21.6666666666667z" />
    <glyph glyph-name="tasks"
      unicode="&#xF138;"
      horiz-adv-x="260" d=" M160 250H46C42.7 250 40 247.3 40 244V17C40 13.5 42.5 10.5 46 10H214C217.1 10.4 219.6 12.9 220 16V190L160 250zM60 190H160L140 170H60V190zM60 150H120L100 130H60V150zM131 35L93 73L107 87L129 65L182 127L197 114L131 35z" />
    <glyph glyph-name="team"
      unicode="&#xF139;"
      horiz-adv-x="260" d=" M64.5 169.1C64.5 146.5115537319206 82.8115537319206 128.2 105.4 128.2C127.9884462680795 128.2 146.3 146.5115537319206 146.3 169.1C146.3 191.6884462680795 127.9884462680795 210 105.4 210C82.8115537319206 210 64.5 191.6884462680795 64.5 169.1z M131.8 120C123.5 115.9 114.4 113.8 105.2 113.9C95.9 113.9 86.7 116 78.4 120C45 112 20 82.6 20 47.6V30H190V47.6C190 82.6 165.1 112 131.8 120z M161.3 169.1C161.3 165.2 160.9 161.4 160.1 157.6C180 154.9 198.3 168.9 201 188.8S189.7 227 169.8 229.7C156.9 231.4 144.1 226.1 136.1 215.8C151.9 205.5 161.3 187.9 161.3 169.1z M240 85.6C240 116.8 217.9 142.9 188.3 150C180.9 146.4 172.9 144.5 164.7 144.5C161.8 144.5 158.9 144.7 156 145.2C153.6 140.1 150.3000000000001 135.3 146.5 131.1C173.9 121 194.7000000000001 98.2 202.2000000000001 69.9H240V85.6z" />
    <glyph glyph-name="tiled-view"
      unicode="&#xF13A;"
      horiz-adv-x="260" d=" M79.4 180L79.4 220L39.4 220L39.4 180L79.4 180z M150 180L150 220L110 220L110 180L150 180z M220 180L220 220L180 220L180 180L220 180z M150 110L150 150L110 150L110 110L150 110z M220 110L220 150L180 150L180 110L220 110z M79.4 40L79.4 80L39.4 80L39.4 40L79.4 40z M150 40L150 80L110 80L110 40L150 40z M79.4 110L79.4 150L39.4 150L39.4 110L79.4 110z M220 40L220 80L180 80L180 40L220 40z" />
    <glyph glyph-name="tools"
      unicode="&#xF13B;"
      horiz-adv-x="260" d=" M246.5 55.8L184.5 117.8L170.3 103.6L233.8 40.1H205.4L156.1 89.4L141.9 75.3L203.9 13.3C208.6 8.6000000000001 216.2000000000001 8.6000000000001 220.9 13.3C220.9 13.3 220.9 13.3 220.9 13.3L246.4000000000001 38.8C251.1 43.5 251.1 51.1 246.5 55.8z M62.7 182.9L92 153.5L106.2 167.7L76.8 197L78.3 224L21.6 252.3L7.4 238.1L35.8 181.5z M234 155.5C249.2 170.8 253 192 246.7 211.3L212.5 177.2C207.8 172.5 200.2 172.5 195.5 177.2L177 195.6C172.3 200.3 172.3 207.9 177 212.6L211.2 246.8C192 253 170.8 249.2 155.5 234C140.7 219.2 135.5 197.3 142 177.5L13.4 48.9C8.7 44.2 8.7 36.6 13.4 31.9L31.9 13.5C36.6 8.8 44.2 8.8 48.9 13.5L177.5 142C197.3 135.5 219.2 140.7 234 155.5z" />
    <glyph glyph-name="trash"
      unicode="&#xF13C;"
      horiz-adv-x="260" d=" M43.3333333333333 227.5L86.6666666666667 227.5L86.6666666666667 238.2318369166667C86.6666666666667 244.270976625 91.574560025 249.1666666666667 97.4678265166667 249.1666666666667L162.5321739166667 249.1666666666667C168.4974893333334 249.1666666666667 173.3333333333334 244.3636738833333 173.3333333333334 238.2318369166667L173.3333333333334 227.5L216.6666666666667 227.5L238.3333333333334 227.5L238.3333333333334 195L216.6666666666667 195L216.6666666666667 21.5778669166666C216.6666666666667 15.6438251666667 211.8498319166667 10.8333333333333 205.8238899166667 10.8333333333333L54.17610965 10.8333333333333C48.1878095833333 10.8333333333333 43.3333333333333 15.7658106666667 43.3333333333333 21.5778669166666L43.3333333333333 195L21.6666666666667 195L21.6666666666667 227.5L43.3333333333333 227.5zM97.5 43.3333333333333L97.5 130L75.8333333333333 130L75.8333333333333 65L97.5 43.3333333333333zM140.8333333333334 43.3333333333333L140.8333333333334 130L119.1666666666667 130L119.1666666666667 65L140.8333333333334 43.3333333333333zM184.1666666666667 43.3333333333333L184.1666666666667 130L162.5 130L162.5 65L184.1666666666667 43.3333333333333z" />
    <glyph glyph-name="travel-expenses"
      unicode="&#xF13D;"
      horiz-adv-x="260" d=" M195 140C159.1 140 130 110.9 130 75S159.1 10 195 10S260 39.1 260 75S230.9 140 195 140L195 140zM202 43.9V32H201.2L191 37.3V43.2C186.4 43.5 181.8 44.8 177.7 47L177.3 47.3L177 47.5L177.1 47.9L177.2 48.5L178.4 56.6L178.5999999999999 58L178.6999999999999 58.9L179.5 58.4L180.6999999999999 57.6C185 54.7 190 53.1 195.0999999999999 52.9C200.5999999999999 52.9 204 55.7 204 60.3S202.1999999999999 66.6000000000001 193.8 70.4C181.6 76 177.6 80.2000000000001 177.6 88.7000000000001C177.6 97.1000000000001 183.1 103.2000000000001 191.1 105.0000000000001V116.0000000000001H192.2L202.1 110.9000000000001V105.2000000000001C205.3 104.8000000000001 208.4 103.8000000000001 211.1 102.1000000000001L211.6 101.8000000000001L211.9 101.6000000000001L211.8 101.2000000000001L211.7 100.6000000000001L210.4 92.7000000000001L210.2 91.2000000000001L210 90.2000000000001L209.2 90.8000000000001L208 91.7000000000001C204.8 94.2000000000001 200.8 95.6000000000001 196.7 95.7000000000001C191.5 95.7000000000001 188.6 93.3000000000001 188.6 89.4000000000001C188.6 85.7000000000001 190.5 84.0000000000001 198.8 80.2000000000001C211.1 74.6000000000001 214.9 70.2000000000001 214.9 61.1000000000001C214.9 52.4 210 46.2 202 43.9z M188.7 159.8L187.8 164.5L232.8 209.5C242 218.7 242 233.6 232.8 242.8C232.8 242.8 232.8 242.8 232.8 242.8L232.8 242.8C223.6 252 208.7 252 199.5 242.8C199.5 242.8 199.5 242.8 199.5 242.8L154.5 197.8L29.5 221.9C25.8 222.6 22 221.5 19.3 218.8L10.2 209.7L107.8 151.2L62.1 105.5L10 104.1C7.8 103.7 5.8 102.6 4.2 101L0 96.7L58.6 68.6L86.7 10L91 14.2C92.6 15.8 93.7 17.8 94.1 20L95.6 72.1L111 87.5C116.9 126.8 149.1 156.8 188.7 159.8z" />
    <glyph glyph-name="tv"
      unicode="&#xF13E;"
      horiz-adv-x="260" d=" M240 210.1H142.1L179 247H159L129 217L99 247H79L115.9 210.1H20C14.5 210.1 10 205.6 10 200.1V60.1C10 54.6 14.5 50.1 20 50.1H240C245.5 50.1 250 54.6 250 60.1V200.1C250 205.6 245.5 210.1 240 210.1L240 210.1zM230 70.1H30V190.1H230V70.1z M180 170L50 170L50 90L100 90z M60.2 30.1H200.2V10.1H60.2V30.1z" />
    <glyph glyph-name="upload"
      unicode="&#xF13F;"
      horiz-adv-x="260" d=" M10 130C10 63.7 63.7 10 130 10S250 63.7 250 130S196.3 250 130 250S10 196.3 10 130zM192 148.3L177.7 134L140.3 171.5L140.6 49.9L121 70V171.8L82.6 133.6L68.2 147.9L130.3 210L192 148.3z" />
    <glyph glyph-name="virtual-reality"
      unicode="&#xF140;"
      horiz-adv-x="260" d=" M130 103.5V140.2C109.7 140.2 93.3 123.8 93.3 103.5S109.7 66.8 130 66.8S166.7 83.2 166.7 103.5C166.7 113.2 162.8 122.6 156 129.4L130 103.5z M160 181V166C160 160.7 158.4 155.6 155.4 151.3C182.3 137.3 192.8 104.1 178.8 77.1C164.8 50.2 131.6 39.7 104.6 53.7C77.7 67.7 67.2 100.9 81.2 127.9C83.5 132.3 86.4 136.4 89.8 140H41C32.1 128.6 25 116 20 102.5C20 102.5 47.5 20 130 20S240 102.5 240 102.5S219.3 164.5 160 181z M96.2 208.7H90V197.4H96.2C101.5 197.4 104 198.9 104 203.1S101.5 208.7 96.2 208.7z M134 230H26C22.7 230 20 227.3 20 224V166C20 162.7 22.7 160 26 160H134C137.3 160 140 162.7 140 166V224C140 227.3 137.3 230 134 230zM62.5 174H53.8L39.8 215.1L48.6 216.4L58.3 186H58.4L68.2 215.7H76.8L62.5 174zM105.1 173.5L95.5 189.9H90.2V174.2H81.2V215.8H96.8C107 215.8 113.1 212.1 113.1 202.9C113.1 196.3 110 192.7 104.4 191L113.8 174.8L105.1 173.5z" />
    <glyph glyph-name="watch"
      unicode="&#xF141;"
      horiz-adv-x="260" d=" M180 192.8L170.5 250H90.5L81 192.8C46.3 165.5 40.4 115.2 67.7 80.5C71.6 75.6 76.1 71.1 81 67.2L90.5 10H170.5L180 67.2C214.7 94.5 220.6 144.8 193.3 179.5C189.4 184.4 184.9 188.9 180 192.8zM130.5 70C97.4 70 70.5 96.9 70.5 130S97.4 190 130.5 190S190.5 163.1 190.5 130S163.6 70 130.5 70z M132.4 158.2L121.6 169.1L121.6 120.3L148.7 120.3L159.5 131.2L132.4 131.2z" />
    <glyph glyph-name="word"
      unicode="&#xF142;"
      horiz-adv-x="260" d=" M43.3333333333333 238.3333333333334C43.3333333333333 244.8333333333334 48.75 249.1666666666667 54.1666666666667 249.1666666666667H151.6666666666667L216.6666666666667 184.1666666666667V21.6666666666667C216.6666666666667 15.1666666666666 212.3333333333334 10.8333333333333 205.8333333333334 10.8333333333333H54.1666666666667C47.6666666666667 10.8333333333333 43.3333333333333 15.1666666666666 43.3333333333333 21.6666666666667V238.3333333333334zM75.8333333333333 100.75C93.1666666666667 100.75 102.9166666666667 109.4166666666667 102.9166666666667 125.6666666666667C102.9166666666667 143 93.1666666666667 150.5833333333334 75.8333333333333 150.5833333333334H59.5833333333333V100.75H75.8333333333333zM72.5833333333333 111.5833333333333V139.75H75.8333333333333C85.5833333333333 139.75 88.8333333333333 135.4166666666667 88.8333333333333 125.6666666666667C88.8333333333333 114.8333333333333 85.5833333333333 111.5833333333333 75.8333333333333 111.5833333333333H72.5833333333333zM128.9166666666667 99.6666666666667C143 99.6666666666667 152.75 109.4166666666667 152.75 125.6666666666667C152.75 141.9166666666667 143 151.6666666666667 128.9166666666667 151.6666666666667C114.8333333333334 151.6666666666667 105.0833333333334 141.9166666666667 105.0833333333334 125.6666666666667C105.0833333333333 109.4166666666667 115.9166666666667 99.6666666666667 128.9166666666667 99.6666666666667zM128.9166666666667 110.5C122.4166666666667 110.5 118.0833333333334 115.9166666666667 118.0833333333334 125.6666666666667C118.0833333333334 135.4166666666667 122.4166666666667 140.8333333333333 128.9166666666667 140.8333333333333C135.4166666666667 140.8333333333333 139.75 135.4166666666667 139.75 125.6666666666667C139.75 115.9166666666667 135.4166666666667 110.5 128.9166666666667 110.5zM179.8333333333334 99.6666666666667C190.6666666666667 99.6666666666667 197.1666666666667 105.0833333333333 200.4166666666667 113.75L199.3333333333334 114.8333333333333L190.6666666666667 119.1666666666667L189.5833333333334 118.0833333333334C187.4166666666667 112.6666666666667 184.1666666666667 110.5 179.8333333333334 110.5C173.3333333333334 110.5 169 115.9166666666667 169 125.6666666666667C169 135.4166666666667 172.25 140.8333333333334 178.75 140.8333333333334C183.0833333333333 140.8333333333334 186.3333333333334 138.6666666666667 188.5 134.3333333333334L189.5833333333334 134.3333333333334L198.25 138.6666666666667L198.25 139.75C195 147.3333333333333 188.5 151.6666666666667 178.75 151.6666666666667C165.75 151.6666666666667 156 141.9166666666667 156 125.6666666666667C156 109.4166666666667 165.75 99.6666666666667 179.8333333333334 99.6666666666667z" />
    <glyph glyph-name="xml"
      unicode="&#xF143;"
      horiz-adv-x="260" d=" M160 250H47C43.5 250 40 247.2 40 243.7V16.3C40 12.8 43.5 10 47 10H214.3C217.8 10 220 12.8 220 16.3V190L160 250zM87.3 99.3L76.4 117.5L66.2 100.2H51.7L69 128.6L53.8 153L68 155L77.2 139.4L85.5 154H99.7L84.3 128.4L101.1 101.1L87.3 99.3zM161.7 100.2H148.7V128.4C148.4 127.3 148 126.1 147.7 124.9L147.6 124.7L139.6 100.1H128L119.9 125C119.5 126.4 119.1 127.5 118.8 128.7V100H106.5V154H123.3L134.2 118.1L144.4 154H161.6L161.7 100.2L161.7 100.2zM170.4 100.2V154.2H183.8V111.5H205.7L207.7 100.2L170.4 100.2z" />
  </font>
</defs>
</svg>
