<?xml version="1.0" standalone="no"?> 
<!DOCTYPE svg PUBLIC "-//W3C//DTD SVG 1.1//EN" "http://www.w3.org/Graphics/SVG/1.1/DTD/svg11.dtd" >
<svg xmlns="http://www.w3.org/2000/svg">
<defs>
  <font id="bbva-icons" horiz-adv-x="261">
    <font-face font-family="bbva-icons"
      units-per-em="261" ascent="261"
      descent="0" />
    <missing-glyph horiz-adv-x="0" />
    <glyph glyph-name="360-mobile-view"
      unicode="&#xF101;"
      horiz-adv-x="261" d=" M170.8546153846154 250.9615384615385H30.3161538461538C24.6946153846154 250.9615384615385 20.0769230769231 246.5446153846154 19.9765384615385 240.923076923077V20.0769230769231C20.1773076923077 14.4553846153846 24.6946153846154 10.0384615384615 30.3161538461538 10.0384615384615H170.8546153846154C176.2753846153846 10.0384615384615 180.5919230769231 14.4553846153846 180.5919230769231 19.7757692307692C180.5919230769231 19.7757692307692 180.5919230769231 19.7757692307692 180.5919230769231 19.7757692307692C180.5919230769231 19.8761538461538 180.5919230769231 19.9765384615384 180.5919230769231 20.0769230769231V80.3076923076923H160.515V50.1923076923077H40.0534615384615V230.8846153846154H160.515V200.7692307692308H180.5919230769231V240.923076923077C180.7926923076923 246.3438461538462 176.4761538461538 250.7607692307693 171.1557692307692 250.9615384615385H170.8546153846154zM100.5853846153846 40.1538461538462C106.1065384615385 40.1538461538462 110.6238461538462 35.6365384615385 110.6238461538462 30.1153846153846S106.1065384615385 20.0769230769231 100.5853846153846 20.0769230769231S90.5469230769231 24.5942307692308 90.5469230769231 30.1153846153846S95.0642307692308 40.1538461538462 100.5853846153846 40.1538461538462L100.5853846153846 40.1538461538462z M220.2438461538462 180.9934615384615L210.8076923076923 171.6576923076923L235.9038461538462 146.7623076923077L181.0938461538462 146.7623076923077L181.0938461538462 134.1138461538462L235.703076923077 134.3146153846154L211.1088461538462 110.1219230769231L220.4446153846154 100.8865384615385L261 140.7392307692308z M159.3103846153846 147.7661538461539L104.7011538461538 147.5653846153846L129.2953846153846 171.7580769230769L119.9596153846154 180.9934615384615L79.5046153846154 141.0403846153846L120.2607692307692 100.8865384615385L129.5965384615385 110.2223076923077L104.5003846153846 135.0173076923077L159.3103846153846 135.0173076923077z" />
    <glyph glyph-name="accesible-toilet"
      unicode="&#xF102;"
      horiz-adv-x="261" d=" M220.6453846153846 51.4973076923077L201.3715384615385 130.5H146.9630769230769L158.8084615384615 189.6265384615385C160.0130769230769 195.3484615384616 155.4957692307692 200.7692307692308 149.6734615384616 200.7692307692308H60.2307692307692L45.1730769230769 163.3257692307693C42.6634615384615 157.2023076923077 47.2811538461539 150.5769230769231 53.9065384615385 150.5769230769231L53.9065384615385 150.5769230769231C57.7211538461539 150.5769230769231 61.1342307692308 152.8857692307692 62.64 156.3992307692308L72.2769230769231 180.6923076923077H116.6469230769231L102.7938461538462 111.5273076923077C101.5892307692308 105.8053846153846 106.1065384615385 100.3846153846154 111.9288461538462 100.3846153846154H187.92L201.3715384615385 47.4819230769231C202.275 43.2657692307693 206.0896153846154 40.1538461538462 210.5065384615385 40.1538461538462H211.5103846153846C217.4330769230769 40.1538461538462 221.9503846153846 45.675 220.6453846153846 51.4973076923077z M140.8396153846154 230.8846153846154C140.8396153846154 219.7964369457049 149.873303745818 210.8076923076923 161.0169230769231 210.8076923076923C172.1605424080282 210.8076923076923 181.1942307692308 219.7964369457049 181.1942307692308 230.8846153846154C181.1942307692308 241.972793823526 172.1605424080282 250.9615384615385 161.0169230769231 250.9615384615385C149.873303745818 250.9615384615385 140.8396153846154 241.972793823526 140.8396153846154 230.8846153846154z M105.8053846153846 40.1538461538462C80.7092307692308 40.1538461538462 60.3311538461539 60.4315384615385 60.3311538461539 85.3269230769231C60.3311538461539 101.1876923076923 68.5626923076923 115.1411538461538 81.1107692307692 123.1719230769231C80.8096153846154 125.5811538461539 80.6088461538462 127.9903846153846 80.6088461538462 130.5C80.6088461538462 136.1215384615385 81.5123076923077 141.5423076923077 83.3192307692308 146.6619230769231C58.1226923076923 137.4265384615385 40.1538461538462 113.4346153846154 40.1538461538462 85.3269230769231C40.1538461538462 49.2888461538462 69.5665384615385 20.0769230769231 105.8053846153846 20.0769230769231C140.3376923076923 20.0769230769231 168.6461538461539 46.5784615384615 171.2561538461539 80.3076923076923H150.9784615384616C148.4688461538462 57.7211538461538 129.0946153846154 40.1538461538462 105.8053846153846 40.1538461538462z" />
    <glyph glyph-name="account"
      unicode="&#xF103;"
      horiz-adv-x="261" d=" M65.25 54.375L239.25 54.375L239.25 152.25L261 174L261 32.625L43.5 32.625L65.25 54.375zM0 217.5L217.5 217.5L217.5 76.125L0 76.125L0 217.5zM32.625 130.5L32.625 108.75L152.25 108.75L174 130.5L32.625 130.5zM32.625 184.875L32.625 163.125L76.125 163.125L97.875 184.875L32.625 184.875z" />
    <glyph glyph-name="add-notes"
      unicode="&#xF104;"
      horiz-adv-x="261" d=" M185.9123076923077 150.7776923076923C194.3446153846154 150.7776923076923 202.6765384615384 149.573076923077 210.8076923076923 147.0634615384615V240.923076923077C210.8076923076923 246.4442307692308 206.3907692307692 250.9615384615385 200.8696153846154 250.9615384615385H190.7307692307692L180.6923076923077 240.923076923077H170.6538461538462V250.9615384615385H160.6153846153846L150.5769230769231 240.923076923077H140.5384615384616V250.9615384615385H130.5L120.4615384615385 240.923076923077H110.4230769230769V250.9615384615385H100.3846153846154L90.3461538461538 240.923076923077H80.3076923076923V250.9615384615385H70.2692307692308L60.2307692307692 240.923076923077H50.1923076923077V250.9615384615385H40.0534615384615C34.5323076923077 250.9615384615385 30.1153846153846 246.4442307692308 30.1153846153846 240.923076923077V20.0769230769231C30.1153846153846 14.5557692307692 34.5323076923077 10.0384615384615 40.0534615384615 10.0384615384615H50.1923076923077L60.2307692307692 20.0769230769231H70.2692307692308V10.0384615384615H80.3076923076923L90.3461538461538 20.0769230769231H100.3846153846154V10.0384615384615H110.4230769230769L116.4461538461539 16.0615384615385C89.1415384615385 54.4084615384615 98.0757692307692 107.6123076923077 136.4226923076923 135.0173076923077C150.878076923077 145.2565384615385 168.1442307692308 150.7776923076923 185.9123076923077 150.7776923076923L185.9123076923077 150.7776923076923zM60.2307692307692 200.7692307692308H170.6538461538462L150.5769230769231 180.6923076923077H60.2307692307692V200.7692307692308zM60.2307692307692 140.5384615384616V160.6153846153846H140.5384615384616L120.4615384615385 140.5384615384616H60.2307692307692z M185.7115384615385 130.5C149.6734615384616 130.5 120.4615384615385 101.2880769230769 120.4615384615385 65.25S149.6734615384616 0 185.7115384615385 0S250.9615384615385 29.2119230769231 250.9615384615385 65.25S221.7496153846154 130.5 185.7115384615385 130.5L185.7115384615385 130.5zM219.1396153846154 57.1188461538462H193.8426923076923V25.0961538461538H177.5803846153847V57.1188461538462H145.5576923076923V73.3811538461538H177.5803846153846V105.4038461538462H193.8426923076923V73.3811538461538H225.8653846153846L219.1396153846154 57.1188461538462z" />
    <glyph glyph-name="add"
      unicode="&#xF105;"
      horiz-adv-x="261" d=" M130.5 250.9615384615385C63.945 250.9615384615385 10.0384615384615 197.055 10.0384615384615 130.5S63.945 10.0384615384615 130.5 10.0384615384615S250.9615384615385 63.945 250.9615384615385 130.5S197.055 250.9615384615385 130.5 250.9615384615385zM180.6923076923077 119.9596153846154H140.0365384615385V69.7673076923077H119.9596153846154V119.9596153846154H69.7673076923077V140.0365384615385H119.9596153846154V190.2288461538462H140.0365384615385V140.0365384615385H200.7692307692308L180.6923076923077 119.9596153846154z" />
    <glyph glyph-name="address-book"
      unicode="&#xF106;"
      horiz-adv-x="261" d=" M210.8076923076923 220.8461538461539V30.015C209.8038461538462 30.015 120.8630769230769 30.015 67.9603846153846 30.015C50.7946153846154 30.015 51.1961538461538 50.1923076923077 68.1611538461538 50.1923076923077H190.7307692307692V248.9538461538462H190.9315384615385V250.9615384615385H55.3119230769231C41.5592307692308 250.9615384615385 30.1153846153846 239.0157692307692 30.1153846153846 225.1626923076923V210.8076923076923H50.1923076923077V190.7307692307692H30.1153846153846V182.198076923077C30.1153846153846 181.7965384615385 30.2157692307692 181.6961538461538 30.2157692307692 181.2946153846154L30.3161538461539 160.6153846153846H50.1923076923077V140.5384615384616H30.3161538461538V110.4230769230769H50.1923076923077V90.3461538461538H30.3161538461538V37.3430769230769C30.3161538461538 24.2930769230769 44.2696153846154 13.6523076923077 56.8176923076923 10.6407692307692C59.2269230769231 10.1388461538461 61.6361538461538 9.8376923076923 64.0453846153846 9.8376923076923C121.8669230769231 9.8376923076923 172.9626923076923 9.7373076923077 230.7842307692308 9.7373076923077V220.8461538461539H210.8076923076923zM81.3115384615385 130.5H160.6153846153846L142.0442307692308 110.4230769230769H81.3115384615385V130.5z" />
    <glyph glyph-name="advance"
      unicode="&#xF107;"
      horiz-adv-x="261" d=" M194.1438461538462 144.855L137.4265384615385 201.4719230769231L158.6076923076923 222.7534615384615L250.9615384615385 129.9980769230769L159.3103846153846 38.0457692307693L138.0288461538462 59.2269230769231L193.7423076923077 114.9403846153846L10.0384615384615 114.9403846153846L38.9492307692308 144.855z" />
    <glyph glyph-name="aeroplane"
      unicode="&#xF108;"
      horiz-adv-x="261" d=" M243.8342307692308 243.7338461538462L243.8342307692308 243.7338461538462C234.5988461538462 252.9692307692308 219.6415384615385 252.9692307692308 210.4061538461539 243.7338461538462C210.4061538461539 243.7338461538462 210.4061538461539 243.7338461538462 210.4061538461539 243.7338461538462L165.2330769230769 198.5607692307693L39.8526923076923 222.7534615384615C36.1384615384615 223.4561538461539 32.3238461538462 222.3519230769231 29.6134615384615 219.6415384615385L20.4784615384615 210.5065384615385L118.4538461538462 151.7815384615385L72.5780769230769 105.9057692307692L20.1773076923077 104.4C17.9688461538461 103.9984615384615 15.9611538461538 102.8942307692308 14.355 101.2880769230769L10.1388461538461 97.0719230769231L68.9642307692308 68.8638461538462L97.1723076923077 10.0384615384615L101.3884615384615 14.2546153846154C102.9946153846154 15.8607692307692 104.0988461538462 17.8684615384615 104.5003846153846 20.0769230769231L106.0061538461538 72.3773076923077L151.8819230769231 118.253076923077L210.7073076923077 20.2776923076923L219.8423076923077 29.4126923076923C222.5526923076923 32.1230769230769 223.6569230769231 35.9376923076923 222.9542307692308 39.6519230769231L198.6611538461538 165.1326923076923L243.8342307692308 210.3057692307692C253.0696153846154 219.5411538461539 253.17 234.4984615384616 243.8342307692308 243.7338461538462C243.8342307692308 243.7338461538462 243.8342307692308 243.7338461538462 243.8342307692308 243.7338461538462z" />
    <glyph glyph-name="alarm"
      unicode="&#xF109;"
      horiz-adv-x="261" d=" M66.0530769230769 139.2334615384616L88.3384615384615 143.55L144.5538461538462 86.9330769230769L138.4303846153846 66.3542307692308L66.0530769230769 139.2334615384616L66.0530769230769 139.2334615384616zM171.4569230769231 75.7903846153846L212.3134615384615 116.8476923076923C225.1626923076923 129.6969230769231 232.4907692307692 147.0634615384615 232.6915384615385 165.3334615384616C232.8923076923077 179.2869230769231 228.6761538461539 192.9392307692308 220.7457692307693 204.383076923077L240.9230769230769 224.7611538461538L224.8615384615385 240.923076923077L204.885 220.7457692307692C193.3407692307692 229.2784615384616 179.2869230769231 233.7957692307692 164.8315384615385 233.4946153846154C146.7623076923077 233.0930769230769 129.5965384615385 225.6646153846154 116.9480769230769 212.715L76.1919230769231 171.7580769230769L23.3896153846154 157.6038461538462C19.7757692307692 156.6 19.0730769230769 153.7892307692308 21.6830769230769 151.1792307692308L61.4353846153846 111.6276923076923C61.2346153846154 111.4269230769231 61.0338461538462 111.2261538461538 60.8330769230769 111.0253846153846C47.3815384615385 97.4734615384615 47.3815384615385 75.5896153846154 60.8330769230769 62.0376923076923C74.1842307692308 48.5861538461539 95.8673076923077 48.4857692307693 109.3188461538462 61.8369230769231C109.4192307692308 61.9373076923077 109.4192307692308 61.9373076923077 109.5196153846154 62.0376923076923L110.1219230769231 62.64L150.3761538461539 21.5826923076923C152.9861538461539 18.9726923076923 155.8973076923077 19.6753846153846 156.9011538461539 23.2892307692308L171.4569230769231 75.7903846153846L171.4569230769231 75.7903846153846z" />
    <glyph glyph-name="alphabetical-order"
      unicode="&#xF10A;"
      horiz-adv-x="261" d=" M53.1034615384615 191.2326923076923L10.2392307692308 69.6669230769231H34.7330769230769L44.0688461538461 96.6703846153846H85.3269230769231L94.9638461538462 67.7596153846154L120.6623076923077 71.6746153846154L78.5007692307692 191.2326923076923L53.1034615384615 191.2326923076923zM50.5938461538462 115.9442307692308L64.8484615384615 157.2023076923077H65.25L79.1030769230769 115.9442307692308L50.5938461538462 115.9442307692308z M247.2473076923077 92.2534615384616L187.6188461538462 92.2534615384616L249.1546153846154 172.3603846153846L249.1546153846154 191.2326923076923L155.0942307692308 191.2326923076923L159.0092307692308 169.2484615384615L215.8269230769231 169.2484615384615L152.9861538461539 89.0411538461538L152.9861538461539 70.7711538461539L251.1623076923077 70.7711538461539z M165.2330769230769 141.0403846153846L115.0407692307692 141.0403846153846L115.0407692307692 120.9634615384615L155.1946153846154 120.9634615384615z" />
    <glyph glyph-name="angry"
      unicode="&#xF10B;"
      horiz-adv-x="261" d=" M250.125 130.5C250.125 64.1625 196.8375 10.875 130.5 10.875C64.1625 10.875 10.875 64.1625 10.875 130.5C10.875 196.8375 64.1625 250.125 130.5 250.125C196.8375 250.125 250.125 196.8375 250.125 130.5zM70.6875 70.6875H190.3125V90.2625H70.6875V70.6875zM64.1625 160.95C64.1625 150.075 72.8625 141.375 83.7375 141.375C94.6125 141.375 103.3125 150.075 103.3125 160.95C103.3125 171.825 94.6125 180.525 83.7375 180.525C72.8625 180.525 64.1625 171.825 64.1625 160.95zM157.6875 160.95C157.6875 150.075 166.3875 141.375 177.2625 141.375C188.1375 141.375 196.8375 150.075 196.8375 160.95C196.8375 171.825 188.1375 180.525 177.2625 180.525C166.3875 180.525 157.6875 171.825 157.6875 160.95z" />
    <glyph glyph-name="app-store"
      unicode="&#xF10C;"
      horiz-adv-x="261" d=" M176.8776923076923 244.9384615384615C176.8776923076923 238.9153846153846 175.4723076923077 232.29 172.6615384615385 225.1626923076923C169.8507692307692 218.0353846153846 165.3334615384615 211.41 159.21 205.2865384615385C153.99 200.0665384615385 148.77 196.6534615384616 143.55 194.8465384615385C140.2373076923077 193.8426923076923 135.3184615384616 193.0396153846154 128.5926923076923 192.4373076923077C128.7934615384615 206.6919230769231 132.5076923076923 219.1396153846154 139.8357692307692 229.5796153846154S159.21 247.1469230769231 176.0746153846154 251.0619230769231C176.4761538461538 249.8573076923077 176.676923076923 248.7530769230769 176.7773076923077 247.8496153846154C176.7773076923077 246.7453846153846 176.8776923076923 245.8419230769231 176.8776923076923 244.9384615384615M132.7084615384615 186.615C136.9246153846154 186.615 143.8511538461538 188.2211538461539 153.4880769230769 191.5338461538462C163.125 194.8465384615385 171.3565384615384 196.4526923076923 178.4838461538462 196.4526923076923C190.0280769230769 196.4526923076923 200.3676923076923 193.3407692307693 209.4023076923077 187.1169230769231C214.5219230769231 183.503076923077 219.5411538461538 178.6846153846154 224.46 172.5611538461539C216.9311538461539 166.1365384615385 211.41 160.515 207.8965384615385 155.4957692307693C201.5723076923077 146.4611538461539 198.4603846153846 136.523076923077 198.4603846153846 125.5811538461539C198.4603846153846 113.6353846153846 201.7730769230769 102.8942307692308 208.4988461538461 93.2573076923077C215.2246153846154 83.6203846153847 222.8538461538462 77.5973076923077 231.3865384615385 75.0876923076924C227.7726923076923 63.5434615384616 221.85 51.3969230769231 213.6184615384616 38.8488461538462C201.0703846153846 19.9765384615385 188.7230769230769 10.44 176.3757692307692 10.44C171.4569230769231 10.44 164.7311538461539 12.0461538461539 156.098076923077 15.0576923076924C147.465 18.1696153846154 140.2373076923077 19.6753846153846 134.3146153846154 19.6753846153846C128.3919230769231 19.6753846153846 121.4653846153847 18.0692307692308 113.6353846153847 14.7565384615385C105.8053846153847 11.5442307692308 99.3807692307693 9.8376923076923 94.4619230769231 9.8376923076923C79.7053846153847 9.8376923076923 65.1496153846154 22.3857692307693 50.9953846153847 47.3815384615385C36.7407692307693 72.0761538461539 29.7138461538462 96.3692307692308 29.7138461538462 120.1603846153846C29.7138461538462 142.245 35.1346153846154 160.3142307692308 45.9761538461539 174.1673076923077S70.5703846153847 195.0473076923077 87.1338461538462 195.0473076923077C94.1607692307693 195.0473076923077 102.6934615384616 193.6419230769231 112.7319230769231 190.6303846153846C122.7703846153846 188.0203846153846 129.3957692307693 186.615 132.7084615384615 186.615" />
    <glyph glyph-name="archive-mail"
      unicode="&#xF10D;"
      horiz-adv-x="261" d=" M20.0769230769231 204.7846153846154L120.4615384615385 144.2526923076923L120.4615384615385 144.2526923076923z M235.4019230769231 230.8846153846154H5.5211538461538C2.5096153846154 230.8846153846154 0 228.375 0 225.3634615384616C0 225.3634615384616 0 225.3634615384616 0 225.3634615384616V55.7134615384615C0 52.7019230769231 2.5096153846154 50.1923076923077 5.5211538461538 50.1923076923077H123.3726923076923C109.62 72.1765384615385 106.7088461538462 99.18 115.2415384615385 123.5734615384616L20.0769230769231 180.7926923076923V204.7846153846154L120.4615384615385 144.2526923076923L120.4615384615385 144.2526923076923L124.2761538461539 141.9438461538462C149.6734615384616 180.8930769230769 201.4719230769231 192.3369230769231 240.9230769230769 167.7426923076923V225.3634615384616C240.9230769230769 228.375 238.4134615384616 230.8846153846154 235.4019230769231 230.8846153846154z M261 95.3653846153846C261 131.4034615384616 231.7880769230769 160.6153846153846 195.75 160.6153846153846S130.5 131.4034615384616 130.5 95.3653846153846S159.7119230769231 30.1153846153846 195.75 30.1153846153846S261 59.3273076923077 261 95.3653846153846zM162.0207692307693 85.4273076923077L169.7503846153846 93.1569230769231L190.0280769230769 72.7788461538461L189.8273076923077 138.831923076923L200.5684615384615 127.9903846153846V72.5780769230769L221.4484615384616 93.3576923076923L229.2784615384616 85.6280769230769L195.4488461538462 51.8988461538461L162.0207692307693 85.4273076923077z" />
    <glyph glyph-name="arrows"
      unicode="&#xF10E;"
      horiz-adv-x="261" d=" M80.3076923076923 250.9615384615385L92.8557692307692 238.7146153846154L130.5 202.1746153846154L117.9519230769231 189.9276923076923L91.0488461538462 216.0276923076923L91.0488461538462 100.3846153846154L69.5665384615385 120.8630769230769L69.5665384615385 216.0276923076923L42.6634615384615 189.9276923076923L30.1153846153846 202.1746153846154z M180.6923076923077 10.0384615384615L168.1442307692308 22.2853846153846L130.5 58.8253846153846L143.0480769230769 71.0723076923077L169.9511538461539 44.9723076923077L169.9511538461539 160.6153846153846L191.4334615384615 140.1369230769231L191.4334615384615 44.9723076923077L218.3365384615385 71.0723076923077L230.8846153846154 58.8253846153846z" />
    <glyph glyph-name="atm"
      unicode="&#xF10F;"
      horiz-adv-x="261" d=" M174 195.75L206.625 195.75L206.625 174L228.375 174L228.375 217.5L32.625 217.5L32.625 174L54.375 174L54.375 195.75L152.25 195.75L152.25 65.25L174 43.5L174 195.75zM206.625 152.25L206.625 21.75C206.625 15.7439038875 201.7560961125 10.875 195.75 10.875L65.25 10.875C59.24390334375 10.875 54.375 15.7439038875 54.375 21.75L54.375 152.25L10.875 152.25L10.875 239.25L250.125 239.25L250.125 152.25L206.625 152.25zM97.875 32.625L97.875 87L76.125 87L76.125 54.375L97.875 32.625z" />
    <glyph glyph-name="attached"
      unicode="&#xF110;"
      horiz-adv-x="261" d=" M115.4423076923077 190.7307692307692L115.4423076923077 100.3846153846154L145.5576923076923 70.2692307692308L145.5576923076923 160.6153846153846z M130.5 220.8461538461539C155.4957692307693 220.8461538461539 175.6730769230769 200.6688461538462 175.6730769230769 175.6730769230769V120.4615384615385L205.7884615384616 90.3461538461538V175.6730769230769C205.7884615384616 217.1319230769231 172.0592307692308 250.9615384615385 130.5 250.9615384615385C96.57 250.9615384615385 67.86 228.4753846153847 58.4238461538462 197.5569230769231L85.3269230769231 170.6538461538462V175.6730769230769C85.3269230769231 200.6688461538462 105.6046153846154 220.8461538461539 130.5 220.8461538461539z M199.8657692307692 56.115L175.3719230769231 80.6088461538462C172.9626923076923 57.9219230769231 153.7892307692308 40.2542307692308 130.3996153846154 40.2542307692308C105.4038461538461 40.2542307692308 85.2265384615384 60.4315384615385 85.2265384615384 85.4273076923077V130.6003846153846L55.1111538461538 160.7157692307693V85.4273076923077C55.1111538461538 43.9684615384616 88.8403846153846 10.1388461538462 130.3996153846154 10.1388461538462C161.6192307692308 10.0384615384615 188.4219230769231 29.0111538461539 199.8657692307692 56.115z" />
    <glyph glyph-name="audio"
      unicode="&#xF111;"
      horiz-adv-x="261" d=" M133.4111538461538 239.3169230769231L61.1342307692308 180.6923076923077H20.9803846153846C15.4592307692308 180.6923076923077 10.9419230769231 176.175 10.9419230769231 170.6538461538462V90.3461538461538C10.9419230769231 84.825 15.4592307692308 80.3076923076923 20.9803846153846 80.3076923076923H61.1342307692308L133.4111538461538 21.7834615384615C137.8280769230769 18.4707692307692 141.4419230769231 20.1773076923077 141.4419230769231 25.8992307692308V235.2011538461539C141.4419230769231 240.8226923076923 137.7276923076923 242.5292307692308 133.4111538461538 239.3169230769231z M183.1015384615385 171.8584615384616L161.7196153846154 150.5769230769231C173.4646153846154 138.8319230769231 173.565 119.7588461538462 161.82 108.0138461538462C161.82 108.0138461538462 161.82 108.0138461538462 161.7196153846154 107.9134615384616L183.1015384615385 86.6319230769231C206.6919230769231 110.1219230769231 206.6919230769231 148.2680769230769 183.1015384615385 171.8584615384616C183.1015384615385 171.8584615384616 183.1015384615385 171.8584615384616 183.1015384615385 171.8584615384616z M225.765 214.5219230769231L204.3830769230769 193.2403846153846C239.7184615384616 157.905 239.7184615384616 100.5853846153846 204.3830769230769 65.25C204.3830769230769 65.25 204.3830769230769 65.25 204.3830769230769 65.25L225.765 43.9684615384616C272.0423076923077 90.8480769230769 271.3396153846154 166.8392307692308 225.765 214.5219230769231z" />
    <glyph glyph-name="auto-bank"
      unicode="&#xF112;"
      horiz-adv-x="261" d=" M240.9230769230769 250.9615384615385L10.0384615384615 250.9615384615385L10.0384615384615 250.6603846153846L10.0384615384615 228.5757692307693L10.0384615384615 20.0769230769231L32.4242307692308 20.0769230769231L32.4242307692308 228.5757692307693L240.9230769230769 228.5757692307693z M245.6411538461539 131.5038461538462H235.9038461538462L219.0392307692308 189.225C218.6376923076923 190.2288461538462 217.7342307692308 190.8311538461538 216.63 190.7307692307692H89.1415384615385C88.1376923076923 190.8311538461538 87.1338461538462 190.1284615384616 86.7323076923077 189.225L69.0646153846154 131.5038461538462H59.5280769230769C54.4084615384615 131.5038461538462 50.1923076923077 126.8861538461539 50.1923076923077 121.6661538461538V112.3303846153846C50.1923076923077 107.3111538461538 54.3080769230769 103.2957692307692 59.2269230769231 103.2957692307692C59.3273076923077 103.2957692307692 59.4276923076923 103.2957692307692 59.4276923076923 103.2957692307692H67.2576923076923V29.3123076923077C67.2576923076923 24.1926923076923 71.3734615384615 19.9765384615384 76.5934615384615 19.9765384615384H76.5934615384615H87.3346153846154C92.3538461538462 19.9765384615384 96.3692307692308 23.9919230769231 96.3692307692308 29.0111538461538C96.3692307692308 29.1115384615384 96.3692307692308 29.2119230769231 96.3692307692308 29.3123076923077V37.1423076923077H207.7961538461539V29.4126923076923C207.8965384615385 24.1926923076923 212.1126923076923 20.0769230769231 217.3326923076923 20.0769230769231H226.6684615384616C231.7880769230769 20.0769230769231 237.9115384615385 24.1926923076923 237.9115384615385 29.4126923076923V39.7523076923077L237.9115384615385 39.7523076923077V103.3961538461539H245.6411538461539C250.6603846153846 103.1953846153846 254.7761538461538 107.1103846153846 254.9769230769231 112.1296153846154C254.9769230769231 112.23 254.9769230769231 112.23 254.9769230769231 112.3303846153846V121.6661538461538C254.9769230769231 126.8861538461539 250.8611538461539 131.5038461538462 245.6411538461539 131.5038461538462zM101.3884615384615 173.6653846153846H203.7807692307693L216.63 131.5038461538462H88.5392307692308L101.3884615384615 173.6653846153846zM99.3807692307692 75.2884615384616C91.0488461538462 75.2884615384616 84.3230769230769 82.0142307692308 84.3230769230769 90.3461538461538S91.0488461538462 105.4038461538462 99.3807692307692 105.4038461538462S114.4384615384616 98.6780769230769 114.4384615384616 90.3461538461538L114.4384615384616 90.3461538461538C114.4384615384616 82.0142307692308 107.7126923076923 75.2884615384616 99.3807692307692 75.2884615384616zM205.7884615384616 75.2884615384616C197.4565384615385 75.2884615384616 190.7307692307692 82.0142307692308 190.7307692307692 90.3461538461538S197.4565384615385 105.4038461538462 205.7884615384616 105.4038461538462S220.8461538461539 98.6780769230769 220.8461538461539 90.3461538461538L220.8461538461539 90.3461538461538C220.8461538461539 82.0142307692308 214.1203846153846 75.2884615384616 205.7884615384616 75.2884615384616z" />
    <glyph glyph-name="auto"
      unicode="&#xF113;"
      horiz-adv-x="261" d=" M240.0196153846154 150.5769230769231H228.5757692307693L208.6996153846154 218.7380769230769C208.2980769230769 219.9426923076923 207.1938461538461 220.7457692307693 205.8888461538461 220.8461538461539H55.8138461538462C54.5088461538462 220.7457692307693 53.4046153846154 219.9426923076923 53.0030769230769 218.7380769230769L32.2234615384615 150.5769230769231H20.9803846153846C14.9573076923077 150.5769230769231 10.0384615384615 145.6580769230769 10.0384615384615 139.635V139.635V128.6930769230769C10.0384615384615 122.5696153846154 14.8569230769231 117.6507692307692 20.9803846153846 117.45H30.1153846153846V31.0188461538462C30.1153846153846 24.9957692307692 35.0342307692308 20.0769230769231 41.0573076923077 20.0769230769231C41.0573076923077 20.0769230769231 41.0573076923077 20.0769230769231 41.0573076923077 20.0769230769231H53.7057692307692C59.7288461538462 20.0769230769231 64.2461538461539 24.9957692307692 64.2461538461539 31.0188461538462V40.1538461538462H195.75V31.0188461538462C195.75 24.9957692307692 200.5684615384616 20.0769230769231 206.5915384615385 20.0769230769231C206.5915384615385 20.0769230769231 206.5915384615385 20.0769230769231 206.5915384615385 20.0769230769231H217.5334615384616C223.5565384615385 20.0769230769231 230.7842307692308 24.9957692307692 230.7842307692308 31.0188461538462V43.1653846153846L230.7842307692308 43.1653846153846V117.45H239.9192307692308C246.0426923076923 117.5503846153846 250.8611538461539 122.5696153846154 250.8611538461539 128.6930769230769V139.635C250.9615384615385 145.6580769230769 246.0426923076923 150.5769230769231 240.0196153846154 150.5769230769231C240.0196153846154 150.5769230769231 240.0196153846154 150.5769230769231 240.0196153846154 150.5769230769231zM70.2692307692308 200.7692307692308H190.7307692307692L205.7884615384616 150.5769230769231H55.2115384615385L70.2692307692308 200.7692307692308zM65.25 90.3461538461538C56.9180769230769 90.3461538461538 50.1923076923077 97.0719230769231 50.1923076923077 105.4038461538462S56.9180769230769 120.4615384615385 65.25 120.4615384615385S80.3076923076923 113.7357692307693 80.3076923076923 105.4038461538462S73.5819230769231 90.3461538461538 65.25 90.3461538461538L65.25 90.3461538461538zM195.75 90.3461538461538C187.4180769230769 90.3461538461538 180.6923076923077 97.0719230769231 180.6923076923077 105.4038461538462S187.4180769230769 120.4615384615385 195.75 120.4615384615385S210.8076923076923 113.7357692307693 210.8076923076923 105.4038461538462S204.0819230769231 90.3461538461538 195.75 90.3461538461538L195.75 90.3461538461538z" />
    <glyph glyph-name="automate"
      unicode="&#xF114;"
      horiz-adv-x="261" d=" M195.9507692307692 130.5C159.9126923076923 130.5 130.7007692307692 101.2880769230769 130.7007692307692 65.25S159.9126923076923 0 195.9507692307692 0C231.9888461538462 0 261.2007692307692 29.2119230769231 261.2007692307692 65.25S231.9888461538462 130.5 195.9507692307692 130.5zM180.6923076923077 30.1153846153846V100.3846153846154L230.8846153846154 65.25L180.6923076923077 30.1153846153846z M113.7357692307692 41.76C71.8753846153846 49.59 40.1538461538462 86.3307692307692 40.1538461538462 130.5C40.1538461538462 180.3911538461539 80.6088461538462 220.8461538461539 130.5 220.8461538461539C161.5188461538462 220.8461538461539 188.8234615384616 205.2865384615385 205.0857692307693 181.4953846153846L180.6923076923077 160.6153846153846L250.9615384615385 140.5384615384616V220.8461538461539L228.0738461538462 201.1707692307692C206.0896153846154 231.3865384615385 170.6538461538462 250.9615384615385 130.5 250.9615384615385C63.945 250.9615384615385 10.0384615384615 197.055 10.0384615384615 130.5S63.945 10.0384615384615 130.5 10.0384615384615C130.6003846153846 10.0384615384615 130.6003846153846 10.0384615384615 130.7007692307692 10.0384615384615C122.9711538461539 19.1734615384615 117.1488461538462 29.9146153846154 113.7357692307692 41.76z" />
    <glyph glyph-name="automatic-access"
      unicode="&#xF115;"
      horiz-adv-x="261" d=" M140.5384615384616 100.3846153846154L100.3846153846154 140.5384615384616L114.4384615384616 154.5923076923077L140.5384615384616 128.4923076923077L216.8307692307692 204.7846153846154L230.8846153846154 190.7307692307692z M180.6923076923077 50.1923076923077H60.2307692307692V230.8846153846154H180.6923076923077V196.7538461538462L200.7692307692308 216.8307692307693V240.923076923077C200.7692307692308 246.4442307692308 196.2519230769231 250.9615384615385 190.7307692307692 250.9615384615385H50.1923076923077C44.6711538461538 250.9615384615385 40.1538461538462 246.4442307692308 40.1538461538462 240.923076923077V20.0769230769231C40.1538461538462 14.5557692307692 44.6711538461538 10.0384615384615 50.1923076923077 10.0384615384615H190.7307692307692C196.2519230769231 10.0384615384615 200.7692307692308 14.5557692307692 200.7692307692308 20.0769230769231V132.5076923076923L180.6923076923077 112.4307692307692V50.1923076923077zM120.4615384615385 20.0769230769231C114.9403846153846 20.0769230769231 110.4230769230769 24.5942307692308 110.4230769230769 30.1153846153846S114.9403846153846 40.1538461538462 120.4615384615385 40.1538461538462S130.5 35.6365384615385 130.5 30.1153846153846S125.9826923076923 20.0769230769231 120.4615384615385 20.0769230769231z" />
    <glyph glyph-name="baby-cart"
      unicode="&#xF116;"
      horiz-adv-x="261" d=" M110.4230769230769 240.3207692307693C70.8715384615385 235.3015384615385 40.9569230769231 202.0742307692308 40.1538461538462 162.2215384615385C40.1538461538462 162.0207692307692 40.1538461538462 161.4184615384616 40.1538461538462 160.6153846153846H110.4230769230769V240.3207692307693z M20.0769230769231 160.6153846153846C20.0769230769231 160.3142307692308 20.0769230769231 160.0130769230769 20.0769230769231 159.7119230769231C20.0769230769231 160.0130769230769 20.0769230769231 160.3142307692308 20.0769230769231 160.6153846153846z M60.2307692307692 25.0961538461538C60.2307692307692 11.2359307975157 71.4667000282849 0 85.3269230769231 0C99.1871461255613 0 110.4230769230769 11.2359307975157 110.4230769230769 25.0961538461538C110.4230769230769 38.956376894792 99.1871461255613 50.1923076923077 85.3269230769231 50.1923076923077C71.4667000282849 50.1923076923077 60.2307692307692 38.956376894792 60.2307692307692 25.0961538461538z M140.5384615384616 25.0961538461538C140.5384615384616 11.2359307975157 151.7743923359772 0 165.6346153846154 0C179.4948384332536 0 190.7307692307692 11.2359307975157 190.7307692307692 25.0961538461538C190.7307692307692 38.956376894792 179.4948384332536 50.1923076923077 165.6346153846154 50.1923076923077C151.7743923359772 50.1923076923077 140.5384615384616 38.956376894792 140.5384615384616 25.0961538461538z M220.8461538461539 210.8076923076923H200.7692307692308V160.6153846153846H130.5V249.3553846153846C130.5 255.78 125.28 261 118.8553846153846 261C118.8553846153846 261 118.755 261 118.755 261H118.6546153846154C65.3503846153846 260.2973076923077 21.0807692307692 217.0315384615385 20.0769230769231 162.4223076923077C20.0769230769231 162.3219230769231 20.0769230769231 161.6192307692308 20.0769230769231 160.6153846153846L20.0769230769231 160.6153846153846C20.0769230769231 160.3142307692308 20.0769230769231 160.0130769230769 20.0769230769231 159.7119230769231C20.4784615384615 104.6007692307692 65.3503846153846 60.1303846153846 120.4615384615385 60.2307692307692C123.8746153846154 60.2307692307692 127.1873076923077 60.4315384615385 130.5 60.7326923076923C181.7965384615385 65.8523076923077 220.8461538461539 109.0176923076923 220.8461538461539 160.6153846153846V190.7307692307692H250.9615384615385L261 210.8076923076923H220.8461538461539zM110.4230769230769 162.2215384615385V160.6153846153846H40.1538461538462C40.1538461538462 161.4184615384616 40.1538461538462 161.9203846153846 40.1538461538462 162.2215384615385C40.9569230769231 202.0742307692308 70.8715384615385 235.4019230769231 110.4230769230769 240.3207692307693V162.2215384615385z" />
    <glyph glyph-name="baby"
      unicode="&#xF117;"
      horiz-adv-x="261" d=" M261 120.7626923076923C261 134.1138461538462 252.1661538461539 145.9592307692308 239.3169230769231 149.6734615384616C239.3169230769231 149.8742307692308 239.2165384615385 150.075 239.2165384615385 150.2757692307693L239.1161538461539 150.6773076923077C230.1819230769231 199.665 189.5261538461539 236.5061538461539 139.9361538461539 240.8226923076923C136.9246153846154 241.1238461538462 133.913076923077 240.923076923077 130.9015384615385 240.3207692307693C122.4692307692308 238.5138461538462 120.5619230769231 233.7957692307692 120.4615384615385 226.0661538461539V214.1203846153846C120.4615384615385 209.3019230769231 121.7665384615385 201.2711538461539 130.8011538461539 201.0703846153846C134.6157692307693 200.97 137.5269230769231 201.6726923076923 138.8319230769231 202.9776923076923S140.6388461538462 217.4330769230769 140.5384615384616 220.9465384615385L160.6153846153847 210.9080769230769C160.9165384615385 199.2634615384616 156.6 192.4373076923077 152.9861538461539 188.7230769230769C147.5653846153846 183.3023076923077 139.9361538461539 180.6923076923077 130.2992307692308 180.9934615384615C112.7319230769231 181.4953846153846 100.485 195.0473076923077 100.485 214.1203846153846V226.2669230769231C100.485 229.9811538461539 100.9869230769231 233.7957692307692 101.8903846153847 237.4096153846154C60.6323076923077 226.2669230769231 29.513076923077 192.3369230769231 21.8838461538462 150.2757692307693V150.1753846153847C21.8838461538462 149.9746153846154 21.7834615384616 149.7738461538462 21.7834615384616 149.573076923077C5.8223076923077 144.9553846153846 -3.3126923076923 128.1911538461539 1.305 112.23C4.8184615384616 100.2842307692308 15.2584615384616 91.7515384615385 27.7061538461539 90.6473076923077C44.1692307692308 48.6865384615385 84.4234615384616 20.88 129.4961538461539 20.3780769230769C176.4761538461539 19.8761538461539 217.1319230769231 49.1884615384616 233.4946153846155 90.6473076923077C248.9538461538462 92.0526923076923 261 105.1026923076923 261 120.7626923076923zM70.2692307692308 130.8011538461539C70.2692307692308 141.8434615384616 79.3038461538462 150.878076923077 90.3461538461538 150.878076923077S110.4230769230769 141.8434615384616 110.4230769230769 130.8011538461539S101.3884615384615 110.7242307692308 90.3461538461538 110.7242307692308S70.2692307692308 119.6584615384615 70.2692307692308 130.8011538461539zM178.1826923076923 82.4157692307692C170.6538461538462 63.945 151.6811538461539 51.6980769230769 130.3996153846154 51.6980769230769S90.1453846153846 64.0453846153846 82.7169230769231 82.4157692307692C81.5123076923077 85.5276923076923 83.0180769230769 89.0411538461538 86.13 90.2457692307692C86.8326923076923 90.5469230769231 87.5353846153846 90.6473076923077 88.3384615384616 90.6473076923077H172.5611538461539C175.8738461538462 90.6473076923077 178.5842307692308 87.9369230769231 178.5842307692308 84.6242307692308C178.5842307692308 83.8211538461539 178.4838461538462 83.1184615384616 178.1826923076923 82.4157692307692L178.1826923076923 82.4157692307692zM170.6538461538462 110.7242307692308C159.6115384615385 110.7242307692308 150.5769230769231 119.7588461538462 150.5769230769231 130.8011538461539S159.6115384615385 150.878076923077 170.6538461538462 150.878076923077S190.7307692307692 141.8434615384616 190.7307692307692 130.8011538461539S181.6961538461538 110.7242307692308 170.6538461538462 110.7242307692308z" />
    <glyph glyph-name="back"
      unicode="&#xF118;"
      horiz-adv-x="261" d=" M161.4184615384616 173.1634615384616L147.2642307692308 187.4180769230769L104.7011538461538 144.855L90.4465384615385 130.6003846153846L104.7011538461538 116.4461538461538L147.2642307692308 73.7826923076923L161.4184615384616 88.0373076923077L118.8553846153846 130.6003846153846z" />
    <glyph glyph-name="bakery"
      unicode="&#xF119;"
      horiz-adv-x="261" d=" M231.9888461538462 232.7919230769231C211.5103846153846 253.2703846153846 162.9242307692308 239.2165384615385 115.0407692307692 201.7730769230769H170.6538461538462L153.8896153846154 181.6961538461538H91.7515384615385C89.8442307692308 179.8892307692308 87.9369230769231 177.9819230769231 85.9292307692308 176.0746153846154C81.3115384615385 171.2561538461538 76.6938461538462 166.5380769230769 72.4776923076923 161.6192307692308H140.5384615384616L123.7742307692308 141.5423076923077H56.115C51.0957692307692 134.8165384615385 46.5784615384615 128.0907692307693 42.5630769230769 121.4653846153846H101.3884615384615L84.6242307692308 101.3884615384615H31.7215384615385C17.3665384615385 70.6707692307693 15.4592307692308 43.9684615384616 29.2119230769231 30.1153846153846C53.8061538461539 5.5211538461539 119.1565384615385 30.9184615384615 175.1711538461539 86.8326923076923S256.583076923077 208.1976923076923 231.9888461538462 232.7919230769231z" />
    <glyph glyph-name="balance-dollar"
      unicode="&#xF11A;"
      horiz-adv-x="261" d=" M224.025 55.4625C202.275 28.275 168.5625 10.875 130.5 10.875C67.425 10.875 16.3125 59.8125 10.875 121.8L38.0625 127.2375C40.2375 78.3 80.475 39.15 130.5 39.15C160.95 39.15 187.05 53.2875 204.45 76.125L185.9625 94.6125L250.125 103.3125L241.425 39.15L224.025 55.4625zM36.975 205.5375C58.725 232.725 92.4375 250.125 130.5 250.125C193.575 250.125 244.6875 201.1875 250.125 139.2L222.9375 137.025C219.675 184.875 179.4375 221.85 131.5875 221.85C101.1375 221.85 75.0375 207.7125 57.6375 184.875L76.125 166.3875000000001L10.875 157.6875L19.575 221.85L36.975 205.5375zM121.8 84.825C114.1875 85.9125 107.6625 88.0875 101.1375 90.2625L103.3125 106.575C110.925 102.225 120.7125 98.9625 129.4125 98.9625C137.025 98.9625 143.55 102.225 143.55 109.8375C143.55 116.3625 140.2875 119.625 127.2375 125.0625C109.8375 132.675 102.225 138.1125 102.225 152.25C102.225 164.2125 109.8375 172.9125 121.8 176.175V194.6625L140.2875 185.9625V176.175C146.8125 175.0875 151.1625 174 156.6 170.7375L154.425 155.5125C147.9 159.8625 140.2875 162.0375 132.675 162.0375C123.975 162.0375 119.625 157.6875 119.625 152.25C119.625 146.8125 122.8875 143.55 134.85 138.1125C153.3375 130.5 160.95 123.975 160.95 109.8375C160.95 95.7 152.25 87 140.2875 83.7375V64.1625L121.8 72.8625V84.825z" />
    <glyph glyph-name="balance-euro"
      unicode="&#xF11B;"
      horiz-adv-x="261" d=" M50.1923076923077 190.7307692307692C68.4623076923077 215.1242307692308 97.6742307692308 230.8846153846154 130.5 230.8846153846154C174.1673076923077 230.8846153846154 211.3096153846154 203.0780769230769 225.0623076923077 164.1288461538462L254.9769230769231 169.5496153846154C238.4134615384616 222.5526923076923 188.9238461538462 261 130.5 261C89.3423076923077 261 52.7019230769231 241.9269230769231 28.71 212.2130769230769L10.0384615384615 230.8846153846154L0 160.6153846153846L70.2692307692308 170.6538461538462L50.1923076923077 190.7307692307692z M190.7307692307692 90.3461538461538L210.8076923076923 70.2692307692308C192.5376923076923 45.8757692307692 163.3257692307692 30.1153846153846 130.5 30.1153846153846C86.8326923076923 30.1153846153846 49.6903846153846 57.9219230769231 35.9376923076923 96.8711538461539L6.0230769230769 91.4503846153846C22.5865384615385 38.4473076923077 72.0761538461538 0 130.5 0C171.6576923076923 0 208.2980769230769 19.0730769230769 232.29 48.7869230769231L250.9615384615385 30.1153846153846L261 100.3846153846154L190.7307692307692 90.3461538461538z M131.1023076923077 162.8238461538462C140.0365384615385 162.8238461538462 148.0673076923077 159.21 153.8896153846154 153.3876923076923L163.0246153846154 162.5226923076923C154.8934615384615 170.6538461538462 143.55 175.6730769230769 131.1023076923077 175.6730769230769C107.3111538461538 175.6730769230769 87.8365384615385 157.2023076923077 86.0296153846154 133.9130769230769V133.8126923076923C85.9292307692308 132.7084615384616 85.9292307692308 131.7046153846154 85.9292307692308 130.6003846153846C85.9292307692308 105.6046153846154 106.1065384615385 85.4273076923077 131.1023076923077 85.4273076923077C143.55 85.4273076923077 154.8934615384615 90.4465384615385 163.0246153846154 98.6780769230769L153.8896153846154 107.8130769230769C148.0673076923077 101.9907692307692 139.9361538461539 98.3769230769231 131.1023076923077 98.3769230769231C119.1565384615385 98.3769230769231 108.7165384615385 104.9019230769231 103.1953846153846 114.5388461538462H124.6776923076923L137.6273076923077 127.4884615384615H98.9792307692308C98.8788461538462 128.5926923076923 98.7784615384615 129.5965384615385 98.7784615384615 130.7007692307692C98.7784615384615 131.805 98.8788461538461 132.9092307692308 98.9792307692308 133.9130769230769H124.6776923076923L137.6273076923077 146.8626923076923H103.1953846153846C108.7165384615385 156.2988461538462 119.1565384615385 162.8238461538462 131.1023076923077 162.8238461538462z" />
    <glyph glyph-name="balcony"
      unicode="&#xF11C;"
      horiz-adv-x="261" d=" M219.9426923076923 120.4615384615385V238.7146153846154C219.9426923076923 245.34 214.5219230769231 250.7607692307693 207.8965384615385 250.7607692307693H51.7984615384615C45.1730769230769 250.7607692307693 39.7523076923077 245.34 39.7523076923077 238.7146153846154V120.4615384615385H19.8761538461538V17.6676923076923H20.0769230769231V9.5365384615385H240.9230769230769V120.4615384615385H219.9426923076923zM100.485 100.3846153846154V29.6134615384615H80.1069230769231V100.3846153846154H100.485zM120.4615384615385 100.3846153846154H140.8396153846154V29.6134615384615H120.4615384615385V100.3846153846154zM160.8161538461539 100.3846153846154H181.1942307692308V29.6134615384615H160.8161538461539V100.3846153846154zM199.8657692307692 120.4615384615385H140.1369230769231V230.6838461538462H199.8657692307692V120.4615384615385zM59.8292307692308 230.6838461538462H120.06V120.4615384615385H59.8292307692308L59.8292307692308 230.6838461538462zM60.1303846153846 100.3846153846154V29.6134615384615H39.8526923076923V100.3846153846154H60.1303846153846zM220.9465384615385 29.6134615384615H201.2711538461539V100.3846153846154H220.9465384615385V29.6134615384615z" />
    <glyph glyph-name="bank"
      unicode="&#xF11D;"
      horiz-adv-x="261" d=" M20.0769230769231 40.1538461538462H240.9230769230769V20.0769230769231H20.0769230769231V40.1538461538462z M130.0984615384615 250.9615384615385L20.0769230769231 190.7307692307692L20.0769230769231 170.6538461538462L240.9230769230769 170.6538461538462L240.9230769230769 190.7307692307692z M40.1538461538462 150.5769230769231H80.3076923076923V60.2307692307692H40.1538461538462V150.5769230769231z M110.4230769230769 150.5769230769231H150.5769230769231V60.2307692307692H110.4230769230769V150.5769230769231z M180.6923076923077 150.5769230769231H220.8461538461539V60.2307692307692H180.6923076923077V150.5769230769231z" />
    <glyph glyph-name="bar"
      unicode="&#xF11E;"
      horiz-adv-x="261" d=" M244.3261153846154 208.3884230769231L187.7192307692308 208.278V233.5749230769231C187.7192307692308 237.3895384615385 184.9586538461539 240.923076923077 181.134 240.923076923077H16.7341153846154C12.9094615384615 240.923076923077 10.0384615384615 237.3995769230769 10.0384615384615 233.5749230769231V17.3866153846154C10.0384615384615 13.572 12.9094615384615 10.0384615384615 16.7341153846154 10.0384615384615H181.134C184.9586538461539 10.0384615384615 187.7192307692308 13.5619615384615 187.7192307692308 17.3866153846154V61.5558461538462L244.3261153846154 61.4454230769231A6.58523076923077 6.58523076923077 0 0 1 250.9615384615385 67.7495769230769V202.0842692307692A6.595269230769231 6.595269230769231 0 0 1 244.3261153846154 208.3884230769231zM62.2384615384615 120.4615384615385H61.5357692307692L41.1576923076923 140.6288076923077V209.8038461538462H62.2384615384615zM219.8423076923077 94.3615384615385H187.7192307692308V177.6807692307692H219.8423076923077z" />
    <glyph glyph-name="barcode"
      unicode="&#xF11F;"
      horiz-adv-x="261" d=" M245.4403846153846 220.8461538461539H15.5596153846154C12.5480769230769 220.9465384615385 10.0384615384615 218.5373076923077 10.0384615384615 215.5257692307693C10.0384615384615 215.5257692307693 10.0384615384615 215.5257692307693 10.0384615384615 215.5257692307693V45.5746153846154C10.1388461538462 42.5630769230769 12.5480769230769 40.1538461538461 15.5596153846154 40.2542307692307H245.34C248.3515384615385 40.1538461538461 250.8611538461539 42.5630769230769 250.8611538461539 45.5746153846154C250.8611538461539 45.5746153846154 250.8611538461539 45.5746153846154 250.8611538461539 45.5746153846154V215.5257692307693C250.8611538461539 218.5373076923077 248.4519230769231 220.9465384615385 245.4403846153846 220.8461538461539zM60.2307692307692 70.2692307692308H40.1538461538462V190.7307692307692H60.2307692307692V70.2692307692308zM100.3846153846154 70.2692307692308H80.3076923076923V90.3461538461538H100.3846153846154V70.2692307692308zM100.3846153846154 110.4230769230769H80.3076923076923V190.7307692307692H100.3846153846154V110.4230769230769zM140.5384615384616 70.2692307692308H120.4615384615385V90.3461538461538H140.5384615384616V70.2692307692308zM140.5384615384616 110.4230769230769H120.4615384615385V190.7307692307692H140.5384615384616V110.4230769230769zM180.6923076923077 70.2692307692308H160.6153846153846V90.3461538461538H180.6923076923077V70.2692307692308zM180.6923076923077 110.4230769230769H160.6153846153846V190.7307692307692H180.6923076923077V110.4230769230769zM220.8461538461539 70.2692307692308H200.7692307692308V190.7307692307692H220.8461538461539V70.2692307692308z" />
    <glyph glyph-name="bath"
      unicode="&#xF120;"
      horiz-adv-x="261" d=" M20.0769230769231 100.6857692307692C20.0769230769231 77.9988461538462 32.7253846153846 57.3196153846154 52.9026923076923 47.0803846153846L43.065 37.2426923076923C39.2503846153846 33.2273076923077 39.3507692307692 26.9030769230769 43.2657692307692 23.0884615384615C47.1807692307692 19.3742307692308 53.3042307692308 19.3742307692308 57.2192307692308 23.0884615384615L74.9873076923077 40.7561538461538C76.6938461538462 40.6557692307692 78.5007692307692 40.5553846153846 80.3076923076923 40.5553846153846H180.6923076923077C182.2984615384616 40.5553846153846 183.9046153846154 40.6557692307692 185.5107692307692 40.7561538461538L203.1784615384615 23.0884615384615C206.9930769230769 19.0730769230769 213.4176923076923 18.9726923076923 217.3326923076923 22.8876923076923S221.4484615384616 33.1269230769231 217.5334615384615 37.0419230769231C217.4330769230769 37.1423076923077 217.3326923076923 37.2426923076923 217.3326923076923 37.2426923076923L207.6957692307692 46.8796153846154C228.0738461538462 57.1188461538461 240.9230769230769 77.8984615384615 240.9230769230769 100.6857692307692V110.7242307692308H20.0769230769231V100.6857692307692z M240.9230769230769 140.8396153846154H60.2307692307692V221.1473076923077H150.5769230769231L130.5 241.2242307692308H52.2C45.5746153846154 241.2242307692308 40.1538461538462 235.8034615384616 40.1538461538462 229.178076923077V140.8396153846154H20.0769230769231C14.5557692307692 140.8396153846154 10.0384615384615 136.3223076923077 10.0384615384615 130.8011538461539C10.0384615384615 125.28 14.5557692307692 120.7626923076923 20.0769230769231 120.7626923076923H240.9230769230769C246.4442307692308 120.7626923076923 250.9615384615385 125.28 250.9615384615385 130.8011538461539C250.9615384615385 136.4226923076923 246.4442307692308 140.8396153846154 240.9230769230769 140.8396153846154z" />
    <glyph glyph-name="bbva-contigo"
      unicode="&#xF121;"
      horiz-adv-x="261" d=" M134.0134615384616 99.7823076923077L150.4765384615385 99.7823076923077L161.4184615384616 110.7242307692308L134.0134615384616 110.7242307692308z M240.9230769230769 230.8846153846154H20.0769230769231C14.5557692307692 230.8846153846154 10.0384615384615 226.4676923076923 10.0384615384615 220.9465384615385V10.0384615384615L50.1923076923077 50.1923076923077H240.9230769230769C246.4442307692308 50.1923076923077 250.9615384615385 54.6092307692308 250.9615384615385 60.1303846153846V220.9465384615385C250.9615384615385 226.4676923076923 246.4442307692308 230.8846153846154 240.9230769230769 230.8846153846154zM136.1215384615385 200.7692307692308C151.2796153846154 200.7692307692308 163.5265384615385 188.5223076923077 163.5265384615385 173.3642307692308S151.2796153846154 145.9592307692308 136.1215384615385 145.9592307692308S108.7165384615385 158.2061538461539 108.7165384615385 173.3642307692308S120.9634615384615 200.7692307692308 136.1215384615385 200.7692307692308L136.1215384615385 200.7692307692308zM190.8311538461538 80.3076923076923H81.3115384615385V91.2496153846154C81.3115384615385 113.9365384615385 96.8711538461539 133.7123076923077 118.8553846153846 139.133076923077C129.6969230769231 133.7123076923077 142.4457692307692 133.7123076923077 153.1869230769231 139.133076923077C175.2715384615385 133.7123076923077 190.7307692307693 113.9365384615385 190.7307692307693 91.2496153846154L190.8311538461538 80.3076923076923z" />
    <glyph glyph-name="bbva-experience"
      unicode="&#xF122;"
      horiz-adv-x="261" d=" M185.5107692307692 150.9784615384616C197.6573076923077 150.9784615384616 209.7034615384616 148.3684615384615 220.8461538461539 143.2488461538462V244.9384615384615C220.8461538461539 248.2511538461539 218.1357692307692 250.9615384615385 214.8230769230769 250.9615384615385H46.1769230769231C42.8642307692308 250.9615384615385 40.1538461538462 248.2511538461539 40.1538461538462 244.9384615384615V16.0615384615385C40.1538461538462 12.7488461538462 42.8642307692308 10.0384615384615 46.1769230769231 10.0384615384615H120.8630769230769C90.1453846153846 45.675 94.0603846153846 99.5815384615385 129.7973076923077 130.2992307692308C145.2565384615385 143.6503846153846 165.0323076923077 150.9784615384616 185.5107692307692 150.9784615384616zM70.2692307692308 220.8461538461539H188.7230769230769L168.6461538461539 200.7692307692308H70.2692307692308V220.8461538461539zM70.2692307692308 180.6923076923077H140.5384615384616L120.4615384615385 160.6153846153846H70.2692307692308V180.6923076923077z M185.7115384615385 130.5C149.6734615384616 130.5 120.4615384615385 101.2880769230769 120.4615384615385 65.25S149.6734615384616 0 185.7115384615385 0S250.9615384615385 29.2119230769231 250.9615384615385 65.25S221.7496153846154 130.5 185.7115384615385 130.5L185.7115384615385 130.5zM186.5146153846154 30.1153846153846C170.6538461538462 30.1153846153846 153.2873076923077 38.9492307692308 153.2873076923077 65.25C153.2873076923077 92.2534615384616 172.4607692307693 100.485 187.3176923076924 100.485C199.3638461538462 100.485 210.8076923076923 95.0642307692308 216.3288461538462 82.6165384615385L201.4719230769231 74.9873076923077C198.36 82.4157692307692 194.1438461538462 85.5276923076923 187.3176923076924 85.5276923076923C178.8853846153846 85.5276923076923 173.6653846153847 78.6011538461538 173.6653846153847 65.1496153846154C173.6653846153847 53.1034615384615 177.4800000000001 44.4703846153846 187.5184615384616 44.4703846153846C194.6457692307693 44.4703846153846 199.5646153846154 48.8873076923077 202.9776923076923 56.6169230769231L218.0353846153847 49.1884615384615C211.6107692307693 35.4357692307692 199.4642307692308 30.1153846153846 186.5146153846154 30.1153846153846z" />
    <glyph glyph-name="bbva-go"
      unicode="&#xF123;"
      horiz-adv-x="261" d=" M87.3346153846154 125.4807692307692L67.2576923076923 105.4038461538462L81.0103846153846 91.6511538461539C77.3965384615385 90.6473076923077 73.5819230769231 90.045 69.6669230769231 90.045C46.8796153846154 90.045 28.4088461538462 108.1142307692308 28.4088461538462 130.5C28.4088461538462 152.7853846153846 46.8796153846154 170.955 69.6669230769231 170.955C84.1223076923077 170.955 96.7707692307692 163.7273076923077 104.1992307692308 152.685C111.2261538461539 159.6115384615385 118.755 166.9396153846154 124.5773076923077 172.6615384615385C111.7280769230769 188.5223076923077 91.9523076923077 198.7615384615385 69.6669230769231 198.7615384615385C31.2196153846154 198.7615384615385 0 168.2446153846154 0 130.5C0 92.7553846153846 31.2196153846154 62.2384615384615 69.6669230769231 62.2384615384615C91.9523076923077 62.2384615384615 111.7280769230769 72.4776923076923 124.4769230769231 88.4388461538462C122.8707692307693 90.045 121.0638461538462 91.7515384615385 119.3573076923077 93.4580769230769L87.3346153846154 125.4807692307692z M240.6219230769231 178.785C213.5180769230769 205.4873076923077 169.5496153846154 205.4873076923077 142.4457692307692 178.785C129.7973076923077 166.3373076923077 93.3576923076923 130.5 93.3576923076923 130.5S127.9903846153846 96.4696153846154 142.4457692307692 82.215C169.5496153846154 55.6130769230769 213.5180769230769 55.6130769230769 240.6219230769231 82.215C267.7257692307693 108.9173076923077 267.7257692307693 152.0826923076923 240.6219230769231 178.785zM192.2365384615385 90.045C169.5496153846154 90.045 151.1792307692308 108.1142307692308 151.1792307692308 130.5S169.5496153846154 170.955 192.2365384615385 170.955S233.2938461538462 152.8857692307692 233.2938461538462 130.5S214.9234615384616 90.045 192.2365384615385 90.045z" />
    <glyph glyph-name="bbva-valora-view"
      unicode="&#xF124;"
      horiz-adv-x="261" d=" M240.9230769230769 130.5L261 150.5769230769231L130.5 261L0 150.5769230769231L20.0769230769231 130.5L130.5 220.8461538461539z M98.3769230769231 90.2457692307692C98.3769230769231 131.9053846153846 132.2065384615385 165.6346153846154 173.7657692307692 165.6346153846154H174.3680769230769L130.5 200.7692307692308L30.1153846153846 120.4615384615385V40.1538461538462C30.1153846153846 34.6326923076923 34.5323076923077 30.1153846153846 40.0534615384615 30.1153846153846L40.0534615384615 30.1153846153846H128.2915384615385C109.4192307692308 44.37 98.3769230769231 66.555 98.3769230769231 90.2457692307692z M234.1973076923077 90.2457692307692C234.1973076923077 123.5734615384616 207.1938461538462 150.5769230769231 173.8661538461539 150.5769230769231S113.4346153846154 123.5734615384616 113.4346153846154 90.2457692307692S140.4380769230769 29.9146153846154 173.7657692307692 29.9146153846154C186.5146153846154 29.9146153846154 198.8619230769231 33.93 209.2015384615384 41.4588461538462L247.5484615384615 3.1119230769231L261 16.5634615384616L222.6530769230769 54.9103846153847C230.1819230769231 65.0492307692308 234.1973076923077 77.4969230769231 234.1973076923077 90.2457692307692zM200.6688461538462 90.2457692307692C200.6688461538462 105.1026923076923 188.6226923076923 117.0484615384616 173.8661538461539 117.0484615384616V130.5C196.0511538461539 130.5 214.1203846153846 112.5311538461538 214.1203846153846 90.2457692307692H200.6688461538462z" />
    <glyph glyph-name="bbva-valora"
      unicode="&#xF125;"
      horiz-adv-x="261" d=" M130.5 261L0 150.5769230769231L20.0769230769231 130.5L130.5 220.8461538461539L240.9230769230769 130.5L261 150.5769230769231z M98.3769230769231 90.3461538461538C98.3769230769231 131.9053846153846 132.1061538461538 165.6346153846154 173.6653846153846 165.6346153846154H174.4684615384616L130.5 200.7692307692308L30.1153846153846 120.4615384615385V40.1538461538462C30.1153846153846 34.6326923076923 34.5323076923077 30.1153846153846 40.0534615384615 30.1153846153846L40.0534615384615 30.1153846153846H118.2530769230769C107.5119230769231 45.675 98.8788461538462 65.25 98.3769230769231 88.1376923076923C98.3769230769231 88.9407692307692 98.3769230769231 89.6434615384616 98.3769230769231 90.3461538461538z M173.6653846153846 150.5769230769231C140.4380769230769 150.5769230769231 113.4346153846154 123.5734615384616 113.4346153846154 90.3461538461538C113.4346153846154 89.7438461538462 113.4346153846154 89.1415384615385 113.4346153846154 88.5392307692308C114.6392307692308 35.3353846153846 168.6461538461539 1.4053846153846 168.6461538461539 1.4053846153846C171.6576923076923 -0.4015384615385 175.5726923076923 -0.501923076923 178.5842307692308 1.305C178.5842307692308 1.305 232.6915384615385 35.3353846153846 233.8961538461539 88.5392307692307C233.8961538461539 89.1415384615384 233.8961538461539 89.7438461538461 233.8961538461539 90.3461538461538C233.8961538461539 123.5734615384616 206.8926923076923 150.5769230769231 173.6653846153846 150.5769230769231zM173.6653846153846 60.2307692307692C157.0015384615385 60.2307692307692 143.55 73.6823076923077 143.55 90.3461538461538S157.0015384615385 120.4615384615385 173.6653846153846 120.4615384615385S203.7807692307693 107.01 203.7807692307693 90.3461538461538S190.3292307692308 60.2307692307692 173.6653846153846 60.2307692307692L173.6653846153846 60.2307692307692z" />
    <glyph glyph-name="bconomy"
      unicode="&#xF126;"
      horiz-adv-x="261" d=" M130.5 251.4634615384616C63.945 251.4634615384616 10.0384615384615 197.5569230769231 10.0384615384615 131.0019230769231S63.945 10.5403846153846 130.5 10.5403846153846S250.9615384615385 64.4469230769231 250.9615384615385 131.0019230769231S197.055 251.4634615384616 130.5 251.4634615384616zM115.4423076923077 65.25C79.4042307692308 65.25 50.1923076923077 94.4619230769231 50.1923076923077 130.5S79.4042307692308 195.75 115.4423076923077 195.75C133.5115384615385 195.75 149.8742307692308 188.4219230769231 161.6192307692308 176.5765384615385L147.465 162.4223076923077C139.2334615384615 170.5534615384615 127.89 175.6730769230769 115.4423076923077 175.6730769230769C99.7823076923077 175.6730769230769 86.0296153846154 167.7426923076923 77.8984615384615 155.5961538461539H124.0753846153846L103.9984615384615 135.5192307692308H70.5703846153846C70.3696153846154 133.9130769230769 70.2692307692308 132.2065384615385 70.2692307692308 130.5S70.3696153846154 127.0869230769231 70.5703846153846 125.4807692307692H124.0753846153846L103.9984615384615 105.4038461538462H77.8984615384615C86.0296153846154 93.2573076923077 99.7823076923077 85.3269230769231 115.4423076923077 85.3269230769231C127.9903846153846 85.3269230769231 139.2334615384615 90.4465384615385 147.465 98.6780769230769L161.6192307692308 84.5238461538462C149.7738461538461 72.5780769230769 133.5115384615385 65.25 115.4423076923077 65.25zM188.6226923076923 109.8207692307692L174.7696153846154 95.9676923076923L146.2603846153846 124.4769230769231L160.515 138.7315384615385L174.7696153846154 124.4769230769231L217.3326923076923 167.04L231.5873076923077 152.7853846153846L188.6226923076923 109.8207692307692z" />
    <glyph glyph-name="bed"
      unicode="&#xF127;"
      horiz-adv-x="261" d=" M237.9115384615385 131.1023076923077H229.8807692307693V228.8769230769231C229.8807692307693 235.5023076923077 224.46 240.923076923077 217.8346153846154 240.923076923077H41.1576923076923C34.5323076923077 240.923076923077 29.1115384615385 235.5023076923077 29.1115384615385 228.8769230769231V131.1023076923077H21.0807692307692C14.4553846153846 131.1023076923077 9.0346153846154 125.6815384615385 9.0346153846154 119.0561538461539V20.88H29.1115384615385V40.9569230769231H229.8807692307693V20.88H249.9576923076923V119.1565384615385C249.9576923076923 125.7819230769231 244.5369230769231 131.1023076923077 237.9115384615385 131.1023076923077zM209.8038461538462 158.6076923076923V131.1023076923077H138.0288461538462V170.6538461538462H197.7576923076923C204.3830769230769 170.6538461538462 209.8038461538462 165.2330769230769 209.8038461538462 158.6076923076923zM49.1884615384615 158.6076923076923C49.1884615384615 165.2330769230769 54.6092307692308 170.6538461538462 61.2346153846154 170.6538461538462H122.9711538461539V131.1023076923077H49.1884615384615V158.6076923076923zM229.8807692307693 61.0338461538462H29.1115384615385V111.0253846153846H229.8807692307693V61.0338461538462z" />
    <glyph glyph-name="behance-simple"
      unicode="&#xF128;"
      horiz-adv-x="261" d=" M130.0984615384615 122.67C125.8823076923077 128.8938461538462 119.4576923076923 133.2103846153846 110.925 135.72C117.1488461538462 138.7315384615384 121.8669230769231 142.6465384615385 125.0792307692308 147.3646153846154C128.2915384615385 152.0826923076923 129.8976923076923 157.905 129.8976923076923 165.0323076923077C129.8976923076923 171.6576923076923 128.7934615384616 177.1788461538461 126.6853846153846 181.5957692307692C124.5773076923077 186.1130769230769 121.5657692307692 189.6265384615385 117.6507692307692 192.3369230769231C113.7357692307692 195.0473076923077 109.0176923076923 196.9546153846154 103.5969230769231 198.1592307692308C98.1761538461538 199.3638461538462 92.1530769230769 199.9661538461538 85.5276923076923 199.9661538461538L20.0769230769231 199.8657692307692V59.3273076923077H87.3346153846154C93.4580769230769 59.3273076923077 99.5815384615385 60.1303846153846 105.5042307692308 61.7365384615385C111.4269230769231 63.3426923076923 116.6469230769231 65.7519230769231 121.2646153846154 69.0646153846154C125.8823076923077 72.2769230769231 129.5965384615385 76.493076923077 132.3069230769231 81.7130769230769C135.0173076923077 86.8326923076923 136.4226923076923 92.9561538461539 136.4226923076923 100.0834615384616C136.4226923076923 108.9173076923077 134.3146153846154 116.4461538461538 130.0984615384615 122.67zM50.5938461538462 175.9742307692308H79.2034615384615C81.9138461538462 175.9742307692308 84.5238461538462 175.7734615384615 87.1338461538462 175.2715384615385C89.6434615384616 174.7696153846154 91.9523076923077 173.9665384615385 93.8596153846154 172.7619230769231C95.8673076923077 171.5573076923077 97.3730769230769 169.9511538461538 98.5776923076923 167.8430769230769C99.6819230769231 165.735 100.2842307692308 163.125 100.2842307692308 159.8123076923077C100.2842307692308 153.99 98.5776923076923 149.6734615384616 95.0642307692308 147.0634615384615S87.0334615384616 143.1484615384615 81.6126923076923 143.1484615384615H50.5938461538462V175.9742307692308zM103.9984615384615 92.9561538461539C102.7938461538462 90.5469230769231 101.1876923076923 88.74 99.0796153846154 87.3346153846154C96.9715384615385 86.0296153846154 94.5623076923077 85.0257692307692 91.8519230769231 84.4234615384615C89.1415384615385 83.8211538461539 86.3307692307692 83.52 83.3192307692308 83.52H50.5938461538462V122.0676923076923H83.8211538461539C90.4465384615385 122.0676923076923 95.7669230769231 120.5619230769231 99.7823076923077 117.45S105.8053846153846 109.2184615384616 105.8053846153846 101.9907692307692C105.8053846153846 98.3769230769231 105.2030769230769 95.3653846153846 103.9984615384615 92.9561538461539z M238.7146153846154 128.8938461538462C236.9076923076923 136.1215384615385 233.9965384615385 142.5461538461539 229.8807692307693 148.1676923076923C225.765 153.7892307692308 220.545 158.3065384615385 214.2207692307692 161.6192307692308C207.8965384615385 164.9319230769231 200.3676923076923 166.6384615384616 191.835 166.6384615384616C184.2057692307692 166.6384615384616 177.2792307692308 165.2330769230769 170.955 162.5226923076923C164.6307692307692 159.7119230769231 159.21 155.9976923076923 154.6926923076923 151.1792307692308C150.075 146.3607692307693 146.6619230769231 140.6388461538462 144.1523076923077 134.1138461538462C141.6426923076923 127.4884615384616 140.4380769230769 120.4615384615385 140.4380769230769 112.8323076923077C140.4380769230769 104.9019230769231 141.6426923076923 97.6742307692308 144.0519230769231 91.1492307692308C146.4611538461539 84.5238461538462 149.8742307692308 78.9023076923078 154.2911538461538 74.1842307692308C158.7080769230769 69.4661538461539 164.1288461538462 65.7519230769231 170.4530769230769 63.2423076923077S183.9046153846154 59.4276923076923 191.835 59.4276923076923C203.2788461538462 59.4276923076923 213.0161538461538 62.0376923076923 221.0469230769231 67.2576923076923S235.0003846153846 81.2111538461539 238.9153846153846 93.458076923077H214.6223076923077C213.7188461538462 90.3461538461539 211.2092307692308 87.3346153846154 207.1938461538462 84.5238461538462S198.4603846153847 80.3076923076924 192.8388461538461 80.3076923076924C185.1092307692308 80.3076923076924 179.0861538461539 82.3153846153847 174.9703846153846 86.4311538461539C170.7542307692308 90.4465384615385 168.5457692307692 97.0719230769231 168.0438461538461 106.3073076923077H240.6219230769231C241.2242307692308 114.1373076923077 240.5215384615385 121.6661538461538 238.7146153846154 128.8938461538462zM168.0438461538462 123.6738461538462C168.2446153846154 125.6815384615385 168.6461538461539 127.89 169.3488461538462 130.3996153846154S171.3565384615385 135.3184615384615 173.0630769230769 137.5269230769231C174.87 139.7353846153846 177.1788461538462 141.6426923076923 180.09 143.1484615384615C183.1015384615385 144.6542307692307 186.7153846153846 145.4573076923077 191.1323076923077 145.4573076923077C197.8580769230769 145.4573076923077 202.8773076923077 143.6503846153846 206.19 139.9361538461538C209.5026923076923 136.3223076923077 211.8115384615385 130.9015384615385 213.0161538461539 123.6738461538461H168.0438461538462z M163.4261538461539 192.8388461538461H219.6415384615385V177.0784615384615H163.4261538461539V192.8388461538461z" />
    <glyph glyph-name="behance"
      unicode="&#xF129;"
      horiz-adv-x="261" d=" M114.6392307692308 124.3765384615385C111.9288461538462 126.4846153846154 108.315 127.4884615384615 103.7976923076923 127.4884615384615H81.3115384615385V101.2880769230769H103.4965384615385C105.5042307692308 101.2880769230769 107.4115384615385 101.4888461538461 109.3188461538461 101.8903846153846C111.2261538461538 102.2919230769231 112.8323076923077 102.9946153846154 114.2376923076923 103.8980769230769S116.7473076923077 106.1065384615385 117.6507692307692 107.7126923076923C118.4538461538462 109.3188461538462 118.8553846153846 111.3265384615385 118.8553846153846 113.8361538461539C118.755 118.755 117.3496153846154 122.2684615384616 114.6392307692308 124.3765384615385z M102.3923076923077 141.5423076923077C105.4038461538462 141.5423076923077 109.0176923076923 142.7469230769231 111.4269230769231 144.5538461538462S114.9403846153846 149.2719230769231 114.9403846153846 153.2873076923077C114.9403846153846 155.4957692307693 114.5388461538462 157.4030769230769 113.7357692307692 158.8084615384615C112.9326923076923 160.2138461538462 111.8284615384615 161.4184615384616 110.5234615384615 162.2215384615385C109.2184615384615 163.0246153846154 107.7126923076923 163.7273076923077 105.9057692307692 164.0284615384616C104.0988461538462 164.3296153846154 102.2919230769231 164.6307692307692 100.485 164.6307692307692H81.3115384615385V141.5423076923077H102.3923076923077z M176.8776923076923 143.55C173.8661538461538 143.55 171.3565384615384 143.0480769230769 169.3488461538462 142.0442307692308S165.735 139.7353846153846 164.5303846153846 138.2296153846154S162.5226923076923 134.9169230769231 162.0207692307692 133.3107692307692C161.5188461538462 131.6042307692308 161.2176923076923 130.6003846153846 161.1173076923077 128.5926923076923H191.7346153846154C190.8311538461538 133.6119230769231 189.3253846153846 137.2257692307692 187.0165384615385 139.7353846153846C184.9084615384615 142.1446153846154 181.395 143.55 176.8776923076923 143.55z M130.5 250.9615384615385C63.945 250.9615384615385 10.0384615384615 197.055 10.0384615384615 130.5S63.945 10.0384615384615 130.5 10.0384615384615S250.9615384615385 63.945 250.9615384615385 130.5S197.055 250.9615384615385 130.5 250.9615384615385zM157.6038461538462 175.6730769230769H196.7538461538462V164.6307692307692H157.6038461538462V175.6730769230769zM136.8242307692308 100.0834615384615C134.9169230769231 96.57 132.5076923076923 93.6588461538461 129.2953846153846 91.4503846153846C126.1834615384616 89.2419230769231 122.5696153846154 87.8365384615385 118.5542307692308 86.7323076923077C114.5388461538462 85.628076923077 110.3226923076923 85.3269230769231 106.1065384615385 85.3269230769231H60.2307692307692V180.6923076923077H104.8015384615385C109.3188461538462 180.6923076923077 113.4346153846154 180.2907692307692 117.1488461538462 179.4876923076923C120.8630769230769 178.6846153846154 124.0753846153846 177.3796153846154 126.6853846153846 175.5726923076923S131.4034615384616 171.2561538461538 132.8088461538462 168.2446153846154C134.3146153846154 165.2330769230769 135.0173076923077 161.4184615384616 135.0173076923077 157.0015384615385C135.0173076923077 152.1830769230769 133.9130769230769 148.1676923076923 131.805 144.9553846153846C129.5965384615385 141.7430769230769 126.3842307692308 139.1330769230769 122.168076923077 137.025C127.9903846153846 135.3184615384615 132.4073076923077 132.3069230769231 135.218076923077 128.0907692307693C138.1292307692308 123.8746153846154 139.5346153846154 118.755 139.5346153846154 112.7319230769231C139.635 107.8130769230769 138.6311538461538 103.5969230769231 136.8242307692308 100.0834615384615zM210.7073076923077 116.4461538461538H161.2176923076923C161.5188461538462 110.4230769230769 163.0246153846154 105.9057692307692 165.8353846153847 103.095S172.7619230769231 98.9792307692308 178.0823076923077 98.9792307692308C181.8969230769231 98.9792307692308 185.2096153846154 100.0834615384615 187.92 102.0911538461539C190.6303846153846 103.9984615384615 192.3369230769231 106.4076923076923 192.9392307692308 108.4153846153846H209.5026923076923C206.8926923076923 99.3807692307692 202.7769230769231 93.96 197.2557692307693 90.4465384615385C191.7346153846154 86.8326923076923 185.1092307692308 85.0257692307692 177.3796153846154 85.0257692307692C171.9588461538462 85.0257692307692 167.1403846153847 85.8288461538461 162.8238461538462 87.6357692307692C158.5073076923077 89.3423076923077 154.793076923077 91.851923076923 151.7815384615385 95.0642307692308S146.4611538461539 102.0911538461539 144.855 106.6084615384615C143.2488461538462 111.1257692307692 142.4457692307692 116.0446153846154 142.4457692307692 121.365C142.4457692307692 126.585 143.2488461538462 131.4034615384615 144.9553846153846 135.8203846153846C146.6619230769231 140.3376923076923 149.0711538461538 144.1523076923077 152.0826923076923 147.465C155.1946153846154 150.7776923076923 158.9088461538462 153.2873076923077 163.125 155.1946153846154C167.4415384615385 157.1019230769231 172.1596153846154 158.0053846153846 177.3796153846154 158.0053846153846C183.2019230769231 158.0053846153846 188.3215384615385 156.9011538461538 192.6380769230769 154.5923076923077S200.5684615384615 149.2719230769231 203.2788461538461 145.3569230769231C206.0896153846154 141.5423076923077 208.0973076923077 137.025 209.301923076923 132.1061538461538C210.6069230769231 127.0869230769231 211.0084615384615 122.4692307692308 210.7073076923077 116.4461538461538z" />
    <glyph glyph-name="behavioural-economics"
      unicode="&#xF12A;"
      horiz-adv-x="261" d=" M119.625 48.9375V150.075C112.0125 144.6375 102.225 141.375 92.4375 141.375C90.2625 141.375 89.175 141.375 87 141.375V163.125C89.175 163.125 90.2625 163.125 92.4375 163.125C107.6625 163.125 119.625 175.0875 119.625 190.3125V212.0625C119.625 220.7625 112.0125 228.375 103.3125 228.375S87 220.7625 87 212.0625V188.1375C87 185.9625 85.9125 184.875 83.7375 184.875C78.3 192.4875 72.8625 195.75 65.25 195.75C53.2875 195.75 43.5 185.9625 43.5 174C43.5 170.7375 45.675 165.3 48.9375 158.775C39.15 152.25 32.625 142.4625 32.625 130.5C32.625 120.7125 36.975 112.0125 44.5875 105.4875C52.2 114.1875 63.075 119.625 76.125 119.625C88.0875 119.625 98.9625 115.275 106.575 106.575L91.35 91.35C88.0875 95.7 82.65 97.875 76.125 97.875C64.1625 97.875 54.375 88.0875 54.375 76.125S64.1625 54.375 76.125 54.375H81.5625C84.825 54.375 87 52.2 87 48.9375C87 40.2375 94.6125 32.625 103.3125 32.625S119.625 40.2375 119.625 48.9375zM141.375 150.075V48.9375C141.375 40.2375 148.9875 32.625 157.6875 32.625S174 40.2375 174 48.9375C174 52.2 176.175 54.375 179.4375 54.375H184.875C196.8375 54.375 206.625 64.1625 206.625 76.125S196.8375 97.875 184.875 97.875C178.35 97.875 172.9125 95.7 169.65 91.35L154.425 106.575C162.0375 114.1875 172.9125 119.625 184.875 119.625C197.925 119.625 208.8 114.1875 216.4125 105.4875C222.9375 110.925 228.375 120.7125 228.375 130.5C228.375 142.4625 221.85 152.25 212.0625 158.775C215.325 165.3 217.5 170.7375 217.5 174C217.5 185.9625 207.7125 195.75 195.75 195.75C184.875 195.75 180.525 191.4 177.2625 184.875C175.0875 184.875 174 185.9625 174 188.1375V212.0625C174 220.7625 166.3875 228.375 157.6875 228.375S141.375 220.7625 141.375 212.0625V190.3125C141.375 175.0875 153.3375 163.125 168.5625 163.125C170.7375 163.125 171.825 163.125 174 163.125V141.375C171.825 141.375 170.7375 141.375 168.5625 141.375C158.775 141.375 148.9875 144.6375 141.375 150.075zM103.3125 10.875C88.0875 10.875 75.0375 19.575 68.5125 33.7125C47.85 36.975 32.625 54.375 32.625 76.125C32.625 79.3875 32.625 82.65 33.7125 85.9125C19.575 95.7 10.875 112.0125 10.875 130.5C10.875 143.55 15.225 155.5125 22.8375 164.2125C21.75 167.475 21.75 170.7375 21.75 174C21.75 197.925 41.325 217.5 65.25 217.5H65.25C67.425 235.9875 83.7375 250.125 103.3125 250.125C114.1875 250.125 123.975 245.775 130.5 238.1625C137.025 245.775 146.8125 250.125 157.6875 250.125C177.2625 250.125 192.4875 235.9875 195.75 217.5H195.75C219.675 217.5 239.25 197.925 239.25 174C239.25 170.7375 239.25 167.475 238.1625 164.2125C245.775 155.5125 250.125 143.55 250.125 130.5C250.125 112.0125 241.425 95.7 227.2875 85.9125C228.375 82.65 228.375 79.3875 228.375 76.125C228.375 54.375 213.15 36.975 192.4875 33.7125C187.05 20.6625 172.9125 10.875 157.6875 10.875C146.8125 10.875 137.025 15.225 130.5 22.8375C123.975 15.225 114.1875 10.875 103.3125 10.875z" />
    <glyph glyph-name="bicycle"
      unicode="&#xF12B;"
      horiz-adv-x="261" d=" M150.5769230769231 220.8461538461539C150.5769230769231 209.7579754072433 159.5656677149356 200.7692307692308 170.6538461538462 200.7692307692308C181.7420245927567 200.7692307692308 190.7307692307692 209.7579754072433 190.7307692307692 220.8461538461539C190.7307692307692 231.9343322850644 181.7420245927567 240.923076923077 170.6538461538462 240.923076923077C159.5656677149356 240.923076923077 150.5769230769231 231.9343322850644 150.5769230769231 220.8461538461539z M55.2115384615385 120.2607692307693C24.6946153846154 120.2607692307693 0 95.5661538461539 0 65.0492307692308S24.6946153846154 9.8376923076923 55.2115384615385 9.8376923076923S110.4230769230769 34.5323076923077 110.4230769230769 65.0492307692308S85.7284615384616 120.2607692307693 55.2115384615385 120.2607692307693zM55.2115384615385 29.9146153846154C35.8373076923077 29.9146153846154 20.0769230769231 45.675 20.0769230769231 65.0492307692308S35.8373076923077 100.1838461538462 55.2115384615385 100.1838461538462S90.3461538461538 84.4234615384616 90.3461538461538 65.0492307692308S74.5857692307692 29.9146153846154 55.2115384615385 29.9146153846154L55.2115384615385 29.9146153846154z M205.7884615384616 120.2607692307693C175.2715384615385 120.2607692307693 150.5769230769231 95.5661538461539 150.5769230769231 65.0492307692308S175.2715384615385 9.8376923076923 205.7884615384616 9.8376923076923S261 34.5323076923077 261 65.0492307692308S236.3053846153846 120.2607692307693 205.7884615384616 120.2607692307693zM205.7884615384616 29.9146153846154C186.4142307692308 29.9146153846154 170.6538461538462 45.675 170.6538461538462 65.0492307692308S186.4142307692308 100.1838461538462 205.7884615384616 100.1838461538462S240.9230769230769 84.4234615384616 240.9230769230769 65.0492307692308S225.1626923076923 29.9146153846154 205.7884615384616 29.9146153846154L205.7884615384616 29.9146153846154z M159.5111538461539 140.0365384615385H201.5723076923077C207.0934615384616 140.0365384615385 211.6107692307693 144.5538461538462 211.6107692307693 150.075S207.0934615384616 160.1134615384615 201.5723076923077 160.1134615384615H170.955L154.8934615384615 187.0165384615385L147.465 199.9661538461539C144.1523076923077 205.7884615384616 136.8242307692308 207.7961538461539 131.0019230769231 204.4834615384616C130.1988461538462 204.0819230769231 129.4961538461539 203.4796153846154 128.8938461538462 202.8773076923077L77.6976923076923 156.1984615384615C72.7788461538462 151.6811538461539 72.3773076923077 144.0519230769231 76.8946153846154 139.1330769230769C77.6976923076923 138.2296153846154 78.7015384615385 137.4265384615385 79.7053846153846 136.8242307692308L81.9138461538462 135.5192307692308L120.4615384615385 112.4307692307692V70.7711538461539C120.4615384615385 65.25 124.9788461538462 60.7326923076923 130.5 60.7326923076923C136.0211538461539 60.7326923076923 140.5384615384616 65.25 140.5384615384616 70.7711538461539V123.8746153846154L114.1373076923077 139.7353846153846L142.4457692307692 168.6461538461539L159.5111538461539 140.0365384615385z" />
    <glyph glyph-name="big-glass"
      unicode="&#xF12C;"
      horiz-adv-x="261" d=" M40.1538461538462 240.923076923077L68.4623076923077 30.015C69.4661538461539 24.2930769230769 74.4853846153846 20.1773076923077 80.3076923076923 20.0769230769231H180.6923076923077C186.5146153846154 20.0769230769231 191.5338461538462 24.1926923076923 192.5376923076923 30.015L220.8461538461539 240.923076923077H40.1538461538462zM87.3346153846154 40.1538461538462L84.6242307692308 60.2307692307692H176.2753846153846L173.6653846153846 40.1538461538462H87.3346153846154zM178.9857692307693 80.3076923076923H82.0142307692308L63.1419230769231 220.8461538461539H197.9584615384616L178.9857692307693 80.3076923076923z" />
    <glyph glyph-name="bizum"
      unicode="&#xF12D;"
      horiz-adv-x="261" d=" M187.2173076923077 209.4023076923077C178.5842307692308 215.7265384615385 166.5380769230769 213.8192307692308 160.2138461538461 205.0857692307693L69.4661538461539 78.1996153846154C63.1419230769231 69.4661538461539 65.1496153846154 57.2192307692308 73.7826923076923 50.7946153846154C82.4157692307692 44.4703846153846 94.4619230769231 46.3776923076923 100.7861538461539 55.1111538461539L191.6342307692308 181.9973076923077C197.7576923076923 190.8311538461538 195.8503846153846 203.0780769230769 187.2173076923077 209.4023076923077z M75.5896153846154 219.3403846153846C81.9138461538462 228.0738461538462 80.0065384615385 240.3207692307693 71.2730769230769 246.645S50.2926923076923 251.0619230769231 43.9684615384615 242.3284615384616S39.5515384615385 221.3480769230769 48.285 215.0238461538462S69.165 210.6069230769231 75.5896153846154 219.3403846153846z M83.6203846153846 164.7311538461539C92.2534615384615 158.4069230769231 104.2996153846154 160.3142307692308 110.6238461538462 169.0476923076923L133.3107692307693 200.7692307692308C139.5346153846154 209.5026923076923 137.6273076923077 221.7496153846154 129.0946153846154 228.1742307692308C120.4615384615385 234.4984615384616 108.4153846153846 232.5911538461539 102.0911538461539 223.8576923076923L79.4042307692308 192.1361538461538C73.08 183.3023076923077 74.9873076923077 171.0553846153847 83.6203846153846 164.7311538461539z M177.3796153846154 95.5661538461538C168.7465384615385 101.8903846153846 156.7003846153846 99.9830769230769 150.3761538461539 91.2496153846154L127.6892307692308 59.5280769230769C121.4653846153846 50.7946153846154 123.3726923076923 38.5476923076923 131.9053846153846 32.1230769230769C140.5384615384615 25.7988461538461 152.5846153846154 27.7061538461538 158.9088461538461 36.4396153846154L181.5957692307692 68.1611538461538C187.92 76.8946153846154 186.0126923076923 89.2419230769231 177.3796153846154 95.5661538461538z M211.8115384615385 45.9761538461539C203.0780769230769 52.3003846153846 190.8311538461538 50.3930769230769 184.5069230769231 41.6596153846154S180.09 20.6792307692308 188.8234615384616 14.355S209.8038461538462 9.9380769230769 216.1280769230769 18.6715384615385S220.545 39.5515384615385 211.8115384615385 45.9761538461539z" />
    <glyph glyph-name="blind-app"
      unicode="&#xF12E;"
      horiz-adv-x="261" d=" M170.6538461538462 70.2692307692308V50.1923076923077H50.1923076923077V230.8846153846154H170.6538461538462V210.8076923076923H190.7307692307692V240.923076923077C190.8311538461538 246.3438461538462 186.615 250.7607692307693 181.1942307692308 250.9615384615385C181.0938461538462 250.9615384615385 181.0938461538462 250.9615384615385 180.9934615384616 250.9615384615385H40.455C34.8334615384616 250.9615384615385 30.2157692307692 246.5446153846154 30.1153846153846 240.923076923077V20.0769230769231C30.3161538461539 14.4553846153846 34.8334615384616 10.0384615384615 40.455 10.0384615384615H180.9934615384616C186.4142307692308 10.0384615384615 190.7307692307692 14.4553846153846 190.7307692307692 19.8761538461539C190.7307692307692 19.9765384615385 190.7307692307692 20.0769230769231 190.7307692307692 20.0769230769231V70.2692307692308H170.6538461538462zM110.7242307692308 20.0769230769231C105.2030769230769 20.0769230769231 100.6857692307692 24.5942307692308 100.6857692307692 30.1153846153846S105.2030769230769 40.1538461538462 110.7242307692308 40.1538461538462S120.7626923076923 35.6365384615385 120.7626923076923 30.1153846153846S116.3457692307692 20.0769230769231 110.7242307692308 20.0769230769231z M199.7653846153846 136.5230769230769L174.87 112.1296153846154C188.5223076923077 112.0292307692308 199.665 122.9711538461539 199.7653846153846 136.5230769230769C199.7653846153846 136.5230769230769 199.7653846153846 136.5230769230769 199.7653846153846 136.5230769230769z M232.0892307692308 168.2446153846154L210.6069230769231 147.1638461538462C211.7111538461538 143.7507692307692 212.2130769230769 140.1369230769231 212.2130769230769 136.5230769230769C212.2130769230769 116.3457692307692 195.5492307692308 99.8826923076923 174.9703846153846 99.8826923076923C171.2561538461538 99.8826923076923 167.6423076923077 100.3846153846154 164.1288461538461 101.4888461538461L150.8780769230769 88.4388461538462C158.6076923076923 85.9292307692308 166.7388461538462 84.6242307692308 174.9703846153846 84.6242307692308C230.8846153846154 84.6242307692308 249.4557692307692 139.5346153846154 249.4557692307692 139.5346153846154C245.4403846153846 150.075 239.5176923076923 159.8123076923077 232.0892307692308 168.2446153846154z M211.8115384615385 185.0088461538462C200.5684615384616 191.3330769230769 187.8196153846154 194.6457692307692 174.87 194.5453846153846C119.0561538461538 194.445 100.3846153846154 139.5346153846154 100.3846153846154 139.5346153846154S107.7126923076923 117.8515384615385 127.0869230769231 101.6896153846154L112.8323076923077 87.6357692307693V69.3657692307693L144.9553846153846 100.8865384615385L151.8819230769231 107.7126923076924L186.7153846153846 141.9438461538462L195.3484615384615 150.4765384615385L213.5180769230769 168.345L222.7534615384615 177.48L230.8846153846154 185.4103846153847V203.58L211.8115384615385 185.0088461538462zM185.1092307692308 158.7080769230769C181.8969230769231 160.1134615384615 178.3834615384616 160.9165384615385 174.87 160.9165384615385C161.318076923077 161.0169230769231 150.1753846153847 150.1753846153846 150.075 136.5230769230769C150.075 133.0096153846154 150.7776923076923 129.5965384615385 152.2834615384616 126.4846153846154L143.1484615384616 117.45C139.5346153846154 123.1719230769231 137.7276923076923 129.7973076923077 137.7276923076923 136.5230769230769C137.7276923076923 156.7003846153846 154.3915384615385 173.1634615384616 174.9703846153846 173.1634615384616C181.7965384615385 173.1634615384616 188.5223076923077 171.3565384615385 194.3446153846154 167.8430769230769L185.1092307692308 158.7080769230769z" />
    <glyph glyph-name="block-card"
      unicode="&#xF12F;"
      horiz-adv-x="261" d=" M79.5046153846154 40.3546153846154H240.12C245.6411538461539 40.3546153846154 250.1584615384615 44.7715384615385 250.1584615384615 50.2926923076923V211.0084615384616L79.5046153846154 40.3546153846154zM199.9661538461539 80.5084615384615H159.8123076923077V100.5853846153846H220.0430769230769L199.9661538461539 80.5084615384615z M19.2738461538462 10.2392307692308L230.0815384615385 221.0469230769231V251.1623076923077L199.9661538461539 221.0469230769231H19.2738461538461C13.7526923076923 221.0469230769231 9.2353846153846 216.63 9.2353846153846 211.1088461538462V180.8930769230769H159.8123076923077L139.7353846153846 160.8161538461539H9.2353846153846V50.2926923076923C9.2353846153846 44.7715384615385 13.7526923076923 40.3546153846154 19.2738461538462 40.3546153846154L19.2738461538462 40.3546153846154V10.2392307692308z" />
    <glyph glyph-name="block"
      unicode="&#xF130;"
      horiz-adv-x="261" d=" M131.3030769230769 249.9576923076923C64.7480769230769 249.9576923076923 10.8415384615385 196.0511538461539 10.8415384615385 129.4961538461539S64.7480769230769 9.0346153846154 131.3030769230769 9.0346153846154S251.7646153846154 62.9411538461538 251.7646153846154 129.4961538461539S197.7576923076923 249.9576923076923 131.3030769230769 249.9576923076923zM40.9569230769231 129.4961538461539C40.9569230769231 179.3873076923077 81.4119230769231 219.8423076923077 131.3030769230769 219.8423076923077C151.0788461538462 219.8423076923077 169.4492307692308 213.4176923076923 184.3061538461539 202.5761538461538L58.1226923076923 76.4930769230769C47.2811538461539 91.35 40.9569230769231 109.7203846153846 40.9569230769231 129.4961538461539zM131.3030769230769 39.15C111.5273076923077 39.15 93.1569230769231 45.5746153846154 78.3 56.4161538461538L204.3830769230769 182.4992307692308C215.2246153846154 167.6423076923077 221.6492307692308 149.2719230769231 221.6492307692308 129.4961538461539C221.6492307692308 79.605 181.1942307692308 39.15 131.3030769230769 39.15z" />
    <glyph glyph-name="blog"
      unicode="&#xF131;"
      horiz-adv-x="261" d=" M130.5 250.9615384615385C63.945 250.9615384615385 10.0384615384615 197.055 10.0384615384615 130.5S63.945 10.0384615384615 130.5 10.0384615384615S250.9615384615385 63.945 250.9615384615385 130.5S197.055 250.9615384615385 130.5 250.9615384615385zM124.4769230769231 79.3038461538462H60.2307692307692V140.438076923077L90.5469230769231 179.6884615384615H119.3573076923077L88.5392307692308 139.5346153846154H124.4769230769231V79.3038461538462zM200.7692307692308 79.3038461538462H136.5230769230769V140.438076923077L166.7388461538462 179.6884615384615H195.4488461538462L164.7311538461538 139.5346153846154H200.7692307692308V79.3038461538462z" />
    <glyph glyph-name="bluetooth"
      unicode="&#xF132;"
      horiz-adv-x="261" d=" M188.1207692307693 178.0823076923077L105.0023076923077 250.6603846153847V154.1907692307692L57.6207692307692 195.2480769230769V166.5380769230769L100.7861538461539 129.4961538461539L57.6207692307692 91.35V65.25L105.0023076923077 106.3073076923077V9.8376923076923L188.1207692307693 82.5161538461539L132.8088461538462 130.2992307692308L188.1207692307693 178.0823076923077zM126.4846153846154 56.8176923076923V107.4115384615385L155.6965384615385 82.3153846153846L126.4846153846154 56.8176923076923zM155.7969230769231 178.0823076923077L126.4846153846154 152.2834615384616V203.6803846153846L155.7969230769231 178.0823076923077z" />
    <glyph glyph-name="boiler"
      unicode="&#xF133;"
      horiz-adv-x="261" d=" M40.1538461538462 238.9153846153846V22.0846153846154C40.1538461538462 15.4592307692308 45.5746153846154 10.0384615384615 52.2 10.0384615384615H70.0684615384615V17.5673076923077C70.0684615384615 24.1926923076923 75.4892307692308 29.6134615384615 82.1146153846154 29.6134615384615H178.6846153846154C185.31 29.6134615384615 190.7307692307692 24.1926923076923 190.7307692307692 17.5673076923077V10.0384615384615H208.8C215.4253846153846 10.0384615384615 220.8461538461539 15.4592307692308 220.8461538461539 22.0846153846154V238.9153846153846C220.8461538461539 245.5407692307693 215.4253846153846 250.9615384615385 208.8 250.9615384615385H52.2C45.5746153846154 250.9615384615385 40.1538461538462 245.5407692307693 40.1538461538462 238.9153846153846zM143.2488461538461 81.9138461538462C141.8434615384615 81.4119230769231 140.3376923076923 81.0103846153846 138.8319230769231 80.7092307692308C133.9130769230769 96.6703846153846 120.5619230769231 110.2223076923077 120.5619230769231 110.2223076923077S111.4269230769231 100.9869230769231 105.5042307692308 88.74C96.57 96.068076923077 90.7476923076923 107.1103846153847 90.4465384615384 119.5580769230769C90.6473076923077 128.7934615384615 93.8596153846154 137.2257692307692 99.2803846153846 143.9515384615385L110.5234615384615 128.7934615384615L125.5811538461538 160.515L130.6003846153846 170.955L135.6196153846154 160.515L150.6773076923077 128.7934615384615L161.9203846153846 143.9515384615384C167.2407692307692 137.2257692307692 170.5534615384615 128.7934615384615 170.7542307692307 119.5580769230769C170.3526923076923 102.0911538461539 158.9088461538462 87.2342307692308 143.2488461538461 81.9138461538462zM180.6923076923077 210.8076923076923H150.5769230769231V230.8846153846154H200.7692307692308L180.6923076923077 210.8076923076923z" />
    <glyph glyph-name="bonus-account"
      unicode="&#xF134;"
      horiz-adv-x="261" d=" M65.25 54.375H239.25V152.25L261 174V32.625H43.5L65.25 54.375zM0 217.5H217.5V76.125H0V217.5zM32.625 184.875V163.125H76.125L97.875 184.875H32.625zM152.25 123.975L178.35 106.575L169.65 135.9375L194.6625 154.425L163.125 155.5125L152.25 184.875L142.4625 155.5125L110.925 154.425L135.9375 135.9375L127.2375 106.575L152.25 123.975z" />
    <glyph glyph-name="bookstore"
      unicode="&#xF135;"
      horiz-adv-x="261" d=" M210.8076923076923 220.8461538461539V30.2157692307692C209.8038461538462 30.2157692307692 116.2453846153846 30.1153846153846 63.0415384615385 30.1153846153846C45.7753846153846 30.1153846153846 46.0765384615385 50.1923076923077 63.1419230769231 50.1923076923077H190.7307692307692V250.9615384615385H54.4084615384615C51.4973076923077 249.9576923076923 48.3853846153846 249.3553846153846 45.675 247.95C36.3392307692308 243.2319230769231 30.8180769230769 235.4019230769231 30.1153846153846 224.8615384615385C30.1153846153846 224.46 30.1153846153846 224.0584615384615 30.1153846153846 223.5565384615385C30.1153846153846 169.65 30.1153846153846 91.35 30.1153846153846 37.4434615384616C30.1153846153846 24.3934615384616 39.15 13.7526923076923 51.7984615384615 10.7411538461539C54.2076923076923 10.2392307692308 56.6169230769231 9.9380769230769 59.1265384615385 10.0384615384616C117.3496153846154 10.0384615384616 172.6615384615385 10.0384615384616 230.8846153846154 10.0384615384616V220.8461538461539H210.8076923076923zM70.2692307692308 210.8076923076923H150.5769230769231L130.5 190.7307692307692H70.2692307692308V210.8076923076923z" />
    <glyph glyph-name="branch"
      unicode="&#xF136;"
      horiz-adv-x="261" d=" M130.5 250.9615384615385C75.0876923076923 250.9615384615385 30.1153846153846 205.9892307692308 30.1153846153846 150.5769230769231C30.1153846153846 149.573076923077 30.1153846153846 148.5692307692308 30.1153846153846 147.5653846153846C32.1230769230769 58.9257692307692 122.0676923076923 2.3088461538462 122.0676923076923 2.3088461538462C126.6853846153846 -0.803076923077 134.1138461538462 -0.803076923077 138.6311538461538 2.2084615384615C138.6311538461538 2.2084615384615 228.7765384615384 58.9257692307692 230.7842307692308 147.5653846153846C230.7842307692308 148.5692307692308 230.7842307692308 149.573076923077 230.7842307692308 150.5769230769231C230.8846153846154 205.9892307692308 185.9123076923077 250.9615384615385 130.5 250.9615384615385zM180.6923076923077 76.2923076923077C180.6923076923077 72.9796153846154 177.9819230769231 70.2692307692308 174.6692307692308 70.2692307692308H150.5769230769231V100.3846153846154H110.4230769230769V70.2692307692308H86.3307692307692C83.0180769230769 70.2692307692308 80.3076923076923 72.9796153846154 80.3076923076923 76.2923076923077V200.7692307692308L180.6923076923077 210.8076923076923V76.2923076923077z M120.4615384615385 140.5384615384616H140.5384615384616V120.4615384615385H120.4615384615385V140.5384615384616z M120.4615384615385 171.0553846153847H140.5384615384616V150.5769230769231H120.4615384615385V171.0553846153847z M170.6538461538462 171.0553846153847L150.5769230769231 170.6538461538462L150.5769230769231 150.5769230769231L170.6538461538462 150.5769230769231z M150.5769230769231 140.5384615384616H170.6538461538462V120.4615384615385H150.5769230769231V140.5384615384616z M90.3461538461538 171.0553846153847H110.4230769230769V150.5769230769231H90.3461538461538V171.0553846153847z M90.3461538461538 140.5384615384616H110.4230769230769V120.4615384615385H90.3461538461538V140.5384615384616z" />
    <glyph glyph-name="building"
      unicode="&#xF137;"
      horiz-adv-x="261" d=" M40.1538461538462 240.923076923077V27.1038461538462C40.1538461538462 23.49 44.1692307692308 20.0769230769231 47.7830769230769 20.0769230769231H101.3884615384615V67.2576923076923H150.5769230769231V20.0769230769231H205.2865384615385C208.9003846153846 20.0769230769231 210.8076923076923 23.3896153846154 210.8076923076923 30.1153846153846V250.9615384615385L40.1538461538462 240.923076923077zM90.3461538461538 100.3846153846154H60.2307692307692V130.5H90.3461538461538V100.3846153846154zM90.3461538461538 151.5807692307693H60.2307692307692V180.6923076923077H90.3461538461538V151.5807692307693zM140.5384615384616 100.3846153846154H110.4230769230769V130.5H140.5384615384616V100.3846153846154zM140.5384615384616 151.5807692307693H110.4230769230769V180.6923076923077H140.5384615384616V151.5807692307693zM190.7307692307692 100.3846153846154H160.6153846153846V130.5H190.7307692307692V100.3846153846154zM190.7307692307692 151.5807692307693H160.6153846153846V180.6923076923077H190.7307692307692V151.5807692307693z" />
    <glyph glyph-name="built-land"
      unicode="&#xF138;"
      horiz-adv-x="261" d=" M228.8769230769231 240.923076923077H32.1230769230769C25.4976923076923 240.923076923077 20.0769230769231 235.5023076923077 20.0769230769231 228.8769230769231V32.1230769230769C20.0769230769231 25.4976923076923 25.4976923076923 20.0769230769231 32.1230769230769 20.0769230769231H228.8769230769231C235.5023076923077 20.0769230769231 240.9230769230769 25.4976923076923 240.9230769230769 32.1230769230769V228.8769230769231C240.9230769230769 235.5023076923077 235.5023076923077 240.923076923077 228.8769230769231 240.923076923077zM220.8461538461539 40.1538461538462H40.1538461538462V220.8461538461539H220.8461538461539V40.1538461538462z M133.6119230769231 103.9984615384615H122.5696153846154V139.5346153846154H122.4692307692308C121.7665384615385 135.6196153846154 120.7626923076923 131.7046153846154 119.5580769230769 127.89L111.7280769230769 103.9984615384615H101.5892307692308L93.8596153846154 127.89C92.5546153846154 131.9053846153846 91.5507692307692 135.9207692307692 90.8480769230769 140.0365384615385H90.6473076923077V103.9984615384615H80.5084615384616V155.9976923076923H95.6665384615385L107.3111538461538 117.7511538461539H107.4115384615384L118.2530769230769 155.9976923076923H133.7123076923077V103.9984615384615z M140.7392307692308 103.9984615384615V105.1026923076923C140.7392307692308 112.6315384615385 142.5461538461539 119.9596153846154 156.2988461538462 128.6930769230769C164.43 133.8126923076923 167.5419230769231 135.8203846153846 167.5419230769231 141.0403846153846C167.5419230769231 144.855 165.1326923076923 147.3646153846154 160.7157692307692 147.3646153846154C156.6 147.3646153846154 152.1830769230769 144.6542307692308 149.0711538461538 139.7353846153846L141.4419230769231 145.9592307692308C145.7584615384615 152.685 151.8819230769231 156.8007692307692 161.0169230769231 156.8007692307692C172.1596153846154 156.8007692307692 178.5842307692308 150.8780769230769 178.5842307692308 141.6426923076923C178.5842307692308 135.9207692307692 177.0784615384615 130.8011538461538 167.04 124.3765384615385C159.5111538461538 119.5580769230769 154.4919230769231 115.7434615384616 154.2911538461538 112.6315384615385H178.0823076923077L179.7888461538461 103.6973076923077H140.7392307692308z" />
    <glyph glyph-name="bulb"
      unicode="&#xF139;"
      horiz-adv-x="261" d=" M80.3076923076923 90.3461538461538H180.6923076923077V70.2692307692308H80.3076923076923V90.3461538461538z M80.3076923076923 60.2307692307692H180.6923076923077V40.1538461538462H80.3076923076923V60.2307692307692z M141.2411538461538 10.0384615384615L100.3846153846154 10.0384615384615L100.3846153846154 30.1153846153846L161.3180769230769 30.1153846153846z M130.5 250.9615384615385C86.13 250.9615384615385 50.1923076923077 214.9234615384616 50.1923076923077 170.5534615384615C50.1923076923077 163.8276923076923 51.0957692307692 157.1019230769231 52.7019230769231 150.5769230769231L80.3076923076923 100.3846153846154H180.6923076923077L208.2980769230769 150.5769230769231C219.3403846153846 193.5415384615385 193.4411538461539 237.4096153846154 150.4765384615385 248.4519230769231C143.9515384615385 250.0580769230769 137.2257692307692 250.9615384615385 130.5 250.9615384615385zM160.6153846153846 115.4423076923077H150.5769230769231L167.04 160.6153846153846H93.96L110.4230769230769 115.4423076923077H100.3846153846154L80.3076923076923 170.6538461538462H180.6923076923077L160.6153846153846 115.4423076923077z" />
    <glyph glyph-name="bullet"
      unicode="&#xF13A;"
      horiz-adv-x="261" d=" M195.75 87L65.25 87L104.4 174L195.75 174z" />
    <glyph glyph-name="bullet1"
      unicode="&#xF13B;"
      horiz-adv-x="261" d=" M261 87L0 87L41.325 174L261 174z" />
    </font>
</defs>
</svg>
