<?xml version="1.0" standalone="no"?> 
<!DOCTYPE svg PUBLIC "-//W3C//DTD SVG 1.1//EN" "http://www.w3.org/Graphics/SVG/1.1/DTD/svg11.dtd" >
<svg xmlns="http://www.w3.org/2000/svg">
<defs>
  <font id="bbva-lt-icons" horiz-adv-x="260">
    <font-face font-family="bbva-lt-icons"
      units-per-em="260" ascent="260"
      descent="0" />
    <missing-glyph horiz-adv-x="0" />
    <glyph glyph-name="letter-a"
      unicode="&#xF101;"
      horiz-adv-x="260" d=" M129.4 159.3L114.3 115.7L144.4 115.7L129.7 159.3z M228 240H32C25.4 240 20 234.6 20 228V32C20 25.4 25.4 20 32 20H228C234.6 20 240 25.4 240 32V228C240 234.6 234.6 240 228 240zM160.4 65L150.2 95.6H106.6L96.7 67H70.7L116.1 195.5H143L187.6 69L160.4 65z" />
    <glyph glyph-name="letter-b"
      unicode="&#xF102;"
      horiz-adv-x="260" d=" M128.5 121.4H107.4V87.5H128.2C128.2 87.5 152.6 87.3 152.6 104.1C152.6 121.1 128.5 121.4 128.5 121.4z M149.6 156.6C149.6 173.6 128.5 172.2 128.5 172.2H107.4V141.2H128.2C128.2 141.2 149.6 139.8 149.6 156.6z M228 240H32C25.4 240 20 234.6 20 228V32C20 25.4 25.4 20 32 20H228C234.6 20 240 25.4 240 32V228C240 234.6 234.6 240 228 240zM180.2 101.3C180.1 63.6 133.6 66 133.6 66H79.8V194H131C180.1 195.2 176.7 162.3 176.7 162.3C177 136.1 152.3 132.9 152.3 132.9V132.6C182.4 128.7 180.2 101.3 180.2 101.3z" />
    <glyph glyph-name="letter-c"
      unicode="&#xF103;"
      horiz-adv-x="260" d=" M228 240H32C25.4 240 20 234.6 20 228V32C20 25.4 25.4 20 32 20H228C234.6 20 240 25.4 240 32V228C240 234.6 234.6 240 228 240zM185.8 100.3C178.2 78.3 162.8 63.4 133.2 63.4C99.6 63.4 74.2 84.8 74.2 130C74.2 130 74.2 130.1 74.2 130.1C74.2 130.1 74.2 130.2 74.2 130.2C74.2 174.7 100 196.5 131.5 196.5C157.5 196.5 173 185.9 182.5 165.9L182.4 165.9C182.4 165.8 182.5 165.8 182.5 165.7L158.8 153.8C154.5 163.8 145.7 173 131.5 173C111.7 173 102.4 156.6 102.4 130.2C102.4 103.3 112.8 86.4 133.2 86.4C148.1 86.4 157.2 95.9 161.6 109.1L185.8 100.6C185.8 100.5 185.7 100.4 185.8 100.3L185.8 100.3z M133.2 63.6C99.6 63.6 74.2 85 74.2 130.1C74.2 130.1 74.2 130 74.2 130C74.2 84.8 99.6 63.4 133.2 63.4C162.8 63.4 178.2 78.3 185.8 100.3L185.7 100.3C178.1 78.3 162.7 63.6 133.2 63.6z M131.5 173.2C111.8 173.2 102.4 156.8 102.4 130.3C102.4 130.3 102.4 130.2 102.4 130.2C102.4 156.6 111.7 173 131.5 173C145.7 173 154.5 163.8 158.8 153.8L182.5 165.7C182.5 165.8 182.4 165.8 182.4 165.9L158.8 154C154.5 164 145.7 173.2 131.5 173.2z M131.5 196.3C157.3 196.3 172.9 185.9 182.4 165.9L182.5 165.9C173 185.9 157.5 196.5 131.5 196.5C100 196.5 74.2 174.7 74.2 130.2C74.2 130.2 74.2 130.1 74.2 130.1C74.2 174.5 100 196.3 131.5 196.3z M161.6 109.1C157.2 95.9 148.1 86.4 133.2 86.4C112.8 86.4 102.4 103.3 102.4 130.2C102.4 130.2 102.4 130.1 102.4 130.1C102.4 103.2 112.8 86.2 133.2 86.2C148.1 86.2 157.2 95.8 161.6 108.8L185.7 100.3C185.7 100.4 185.8 100.5 185.8 100.6L161.6 109.1z" />
    <glyph glyph-name="letter-d"
      unicode="&#xF104;"
      horiz-adv-x="260" d=" M116.8 170.5H104V88.8H117.2C145 88.8 155.6 101.3 155.6 130.3C155.6 157.7 144.9 170.5 116.8 170.5z M228 240H32C25.4 240 20 234.6 20 228V32C20 25.4 25.4 20 32 20H228C234.6 20 240 25.4 240 32V228C240 234.6 234.6 240 228 240zM115.3 66H76V194H115.3C154.4 194 183.8 177.4 183.8 130.7C183.8 82.6 153.9 66 115.3 66z" />
    <glyph glyph-name="letter-e"
      unicode="&#xF105;"
      horiz-adv-x="260" d=" M228 240H32C25.4 240 20 234.6 20 228V32C20 25.4 25.4 20 32 20H228C234.6 20 240 25.4 240 32V228C240 234.6 234.6 240 228 240zM175.1 66H84.8V194H172V170.5H113V143H158.9L163 120.7H113V88.9H175.1L175.1 66z" />
    <glyph glyph-name="letter-f"
      unicode="&#xF106;"
      horiz-adv-x="260" d=" M228 240H32C25.4 240 20 234.6 20 228V32C20 25.4 25.4 20 32 20H228C234.6 20 240 25.4 240 32V228C240 234.6 234.6 240 228 240zM172.3 170.5H115.9V139.4H157.4L161.6 117.1H115.9V66.1H87.7V194H172.3L172.3 170.5z" />
    <glyph glyph-name="letter-g"
      unicode="&#xF107;"
      horiz-adv-x="260" d=" M228 240H32C25.4 240 20 234.6 20 228V32C20 25.4 25.4 20 32 20H228C234.6 20 240 25.4 240 32V228C240 234.6 234.6 240 228 240zM186.2 66H163.5V80.2H163.1C157.9 70.7 145.3 63.6 129.2 63.6C91 63.6 73.7 92 73.7 130.6C73.7 170.7 96 196.5 131.5 196.5C150.9 196.5 171.8 188.5 182.9 165.9L159 155.2C154.2 165.9 145.3 173.2 132.9 173.2C121.5 173.2 102.1 167.1 102.1 131.2C102.1 95.4 119.4 86.4 133.1 86.4C147.1 86.4 156.8 95.2 159.4 109.4H139.1L134.9 130.3H186.1L186.2 66z" />
    <glyph glyph-name="letter-h"
      unicode="&#xF108;"
      horiz-adv-x="260" d=" M228 240H32C25.4 240 20 234.6 20 228V32C20 25.4 25.4 20 32 20H228C234.6 20 240 25.4 240 32V228C240 234.6 234.6 240 228 240zM183.4 66H155.2V120.7H104.9V66H76.6V194H104.8V144.3H155.1V194H183.3V66z" />
    <glyph glyph-name="letter-i"
      unicode="&#xF109;"
      horiz-adv-x="260" d=" M228 240H32C25.4 240 20 234.6 20 228V32C20 25.4 25.4 20 32 20H228C234.6 20 240 25.4 240 32V228C240 234.6 234.6 240 228 240zM144 66H116V194H144V66z" />
    <glyph glyph-name="letter-j"
      unicode="&#xF10A;"
      horiz-adv-x="260" d=" M228 240H32C25.4 240 20 234.6 20 228V32C20 25.4 25.4 20 32 20H228C234.6 20 240 25.4 240 32V228C240 234.6 234.6 240 228 240zM169.2 104.9C169.2 81 157.1 64.8 126.5 64.8C109.5 64.8 98.7 70.7 90.9 77.4L103 98C109.1 92.5 116.7 87.3 125.1 87.3C135.1 87.3 141 93.5 141 109.3V195.3H169.2L169.2 104.9z" />
    <glyph glyph-name="letter-k"
      unicode="&#xF10B;"
      horiz-adv-x="260" d=" M228 240H32C25.4 240 20 234.6 20 228V32C20 25.4 25.4 20 32 20H228C234.6 20 240 25.4 240 32V228C240 234.6 234.6 240 228 240zM155.1 65L117.7 123.8L103.7 108V67H75.5V195H103.7V142.1L146.6 195H179.5L136.1 145L184.5 69.1L155.1 65z" />
    <glyph glyph-name="letter-l"
      unicode="&#xF10C;"
      horiz-adv-x="260" d=" M228 240H32C25.4 240 20 234.6 20 228V32C20 25.4 25.4 20 32 20H228C234.6 20 240 25.4 240 32V228C240 234.6 234.6 240 228 240zM86.7 66V194H114.9V88.8H169.2L173.4 66H86.7z" />
    <glyph glyph-name="letter-m"
      unicode="&#xF10D;"
      horiz-adv-x="260" d=" M228 240H32C25.4 240 20 234.6 20 228V32C20 25.4 25.4 20 32 20H228C234.6 20 240 25.4 240 32V228C240 234.6 234.6 240 228 240zM195.4 66H168.2V153.4H167.8C165.9 142.3 163.5 134.2 160.7 124.8L141.6 66H116.7L97.7 124.8C94.5 134.6 92.1 144.6 90.3 154.7H90V66H64.6V194H101.8L130.4 99.9H130.8L157.3 194H195.4V66z" />
    <glyph glyph-name="letter-n"
      unicode="&#xF10E;"
      horiz-adv-x="260" d=" M228 240H32C25.4 240 20 234.6 20 228V32C20 25.4 25.4 20 32 20H228C234.6 20 240 25.4 240 32V228C240 234.6 234.6 240 228 240zM184.1 66H158.1L102.2 148.3H101.9V66H75.9V194H104L157.6 112.3H158V194H184L184.1 66z" />
    <glyph glyph-name="letter-nn"
      unicode="&#xF10F;"
      horiz-adv-x="260" d=" M228 240H32C25.4 240 20 234.6 20 228V32C20 25.4 25.4 20 32 20H228C234.6 20 240 25.4 240 32V228C240 234.6 234.6 240 228 240zM116.8 210.4C129.4 210.4 134.5 200.7 142.1 200.7C146.6 200.7 149.2 203.6 148.9 211.2L163.8 208.8C163.8 191.7 155.8 182.5 143.4 182.5C130.8 182.5 125.7 192.2 118.1 192.2C113.6 192.2 111 189.3 111.3 181.6L96.2 184C96.3 201.4 104.4 210.4 116.8 210.4zM184.1 48.8H158.1L102.2 131.1H101.9V48.7H75.9V176.7H104L157.6 95H158V176.8H184L184.1 48.8z" />
    <glyph glyph-name="letter-o"
      unicode="&#xF110;"
      horiz-adv-x="260" d=" M130.1 173.1C110.2 173.1 97.9 156.8 97.9 130S110.2 86.2 130.1 86.2C149.8 86.2 162.3 103.2 162.3 130S149.8 173.1 130.1 173.1z M228 240H32C25.4 240 20 234.6 20 228V32C20 25.4 25.4 20 32 20H228C234.6 20 240 25.4 240 32V228C240 234.6 234.6 240 228 240zM130.1 63.6C99.1 63.6 69.7 85 69.7 130S99.1 196.4 130.1 196.4C160.9 196.4 190.3 174.9 190.3 130S160.9 63.6 130.1 63.6z" />
    <glyph glyph-name="letter-p"
      unicode="&#xF111;"
      horiz-adv-x="260" d=" M127.8 171H108.6V133.3H127.8C145.3 133.3 151.8 140.1 151.8 152.3C151.9 164.2 145.5 171 127.8 171z M228 240H32C25.4 240 20 234.6 20 228V32C20 25.4 25.4 20 32 20H228C234.6 20 240 25.4 240 32V228C240 234.6 234.6 240 228 240zM126.8 111.5H108.6V66H80.6V194H127.1C154.4 194 179.3 186.7 179.3 153C179.4 118.6 152.4 111.5 126.8 111.5z" />
    <glyph glyph-name="letter-q"
      unicode="&#xF112;"
      horiz-adv-x="260" d=" M130.1 189C110.2 189 97.8 172.7 97.8 145.9S110.3 102.1 130.1 102.1C149.8 102.1 162.1 119.1 162.1 145.9S149.8 189 130.1 189z M228 240H32C25.4 240 20 234.6 20 228V32C20 25.4 25.4 20 32 20H228C234.6 20 240 25.4 240 32V228C240 234.6 234.6 240 228 240zM169.4 70H180.3L176.2 47.7H156.3C130.3 47.7 115 62.1 114.3 81.6C89.6 87.3 69.8 108.9 69.8 146C69.8 191 99.2 212.4 130.2 212.4C161 212.4 190.4 190.9 190.4 146C190.4 107.4 168.8000000000001 85.8 142.8000000000001 80.9C146.2 70.5 156.4 70 169.4 70z" />
    <glyph glyph-name="letter-r"
      unicode="&#xF113;"
      horiz-adv-x="260" d=" M126.3 172L107.1 171.9L107.3 137L126.5 137.1C142.8 137.2 150.5 141.9 150.5 154.9C150.3 167.4 142.5 172.1 126.3 172z M239.5 228.5C239.5 235.1 234.1 240.5 227.4 240.4C227.4 240.4 227.4 240.4 227.4 240.4L31.4 239.5C24.8 239.5 19.4 234.1 19.5 227.5L20.4 31.5C20.4 24.9 25.8 19.5 32.5 19.6C32.5 19.6 32.5 19.6 32.5 19.6L228.5 20.5C235.1 20.5 240.5 25.9 240.4 32.6C240.4 32.6 240.4 32.6 240.4 32.6L239.5 228.5zM153.4 65L123.6 115.2L107.3 115.1L107.5 66.8L79.8 66.7L79.2 194.7L127.3 195C158.8 195.2 177.7 184 177.8 155.6C177.9 135.4 168.4 124.2 151.3 119L180.6 69.3L153.4 65z" />
    <glyph glyph-name="letter-s"
      unicode="&#xF114;"
      horiz-adv-x="260" d=" M228 240H32C25.4 240 20 234.6 20 228V32C20 25.4 25.4 20 32 20H228C234.6 20 240 25.4 240 32V228C240 234.6 234.6 240 228 240zM133 63.6C108.8 63.6 90.1 74.3 77.1 86.4L91.8 105.3C101.1 95.6 117.8 85.9 132.1 85.9C145.6 85.9 155.3 90.7 155.3 100.6C155.3 110.3 146.1 114.4 129.3 119.1C106.5 125.5 82.6 131.4 82.6 158.2C82.6 182.1 101.6 196.4 128.8 196.4C148.5 196.4 166 187.8 178.3 177.9L165.3 157.8C156.1 165.8 141.6 173.4 129.5 173.4C117 173.4 110.1 168.2 110.1 160.6C110.1 150.4 119.6 146.8 136.4 142.1C158.9 136 182.8 129 182.8 102.5C182.9 81.9 166.9 63.6 133 63.6z" />
    <glyph glyph-name="letter-t"
      unicode="&#xF115;"
      horiz-adv-x="260" d=" M228 240H32C25.4 240 20 234.6 20 228V32C20 25.4 25.4 20 32 20H228C234.6 20 240 25.4 240 32V228C240 234.6 234.6 240 228 240zM143 170.5V66H114.8V170.5H76.7V194H179.1L183.2 170.5L143 170.5z" />
    <glyph glyph-name="letter-u"
      unicode="&#xF116;"
      horiz-adv-x="260" d=" M228 240H32C25.4 240 20 234.6 20 228V32C20 25.4 25.4 20 32 20H228C234.6 20 240 25.4 240 32V228C240 234.6 234.6 240 228 240zM181.6 116.2C181.6 84.7 165.7 65 130 65S78.3 84.7 78.3 116V195H106.5V116.6C106.5 98.1 113.6 87.7 130.4 87.7C147 87.7 154 98 154 116.6V195H181.7L181.6 116.2z" />
    <glyph glyph-name="letter-v"
      unicode="&#xF117;"
      horiz-adv-x="260" d=" M228 241.6H32C25.4 241.6 20 236.2 20 229.6V33.6C20 27 25.4 21.6 32 21.6H228C234.6 21.6 240 27 240 33.6V229.6C240 236.3 234.6 241.6 228 241.6zM143 64.6H116.3L72.9 191.2L100.1 195.4L130 101.8H130.4L160.7 193.3H187.2L143 64.6z" />
    <glyph glyph-name="letter-w"
      unicode="&#xF118;"
      horiz-adv-x="260" d=" M228 240H32C25.4 240 20 234.6 20 228V32C20 25.4 25.4 20 32 20H228C234.6 20 240 25.4 240 32V228C240 234.6 234.6 240 228 240zM175.4 65H151.4L131.1 154H130.7L109.1 65H84.8L51.2 190.9L78.5 195L92.5 134.6C95.1 125.4 97.1 116 98.7 106.6H99C100.5 116 102.5 125.3 104.9 134.5L118 193H144L157.8 134.2C160.2 124 162.1 118.1 163.9 106.7H164.3C166 118.3 167.6 123.5 170 133.9L183 193H209L175.4 65z" />
    <glyph glyph-name="letter-x"
      unicode="&#xF119;"
      horiz-adv-x="260" d=" M228 240H32C25.4 240 20 234.6 20 228V32C20 25.4 25.4 20 32 20H228C234.6 20 240 25.4 240 32V228C240 234.6 234.6 240 228 240zM157.9 63.9L129.6 111L103.1 66H73.4L114.4 133.6L78.3 191.9L107.9 196.1L131.8 155.4L153.5 194H182.7L146.2 133.4L186.5 68L157.9 63.9z" />
    <glyph glyph-name="letter-y"
      unicode="&#xF11A;"
      horiz-adv-x="260" d=" M228 240H32C25.4 240 20 234.6 20 228V32C20 25.4 25.4 20 32 20H228C234.6 20 240 25.4 240 32V228C240 234.6 234.6 240 228 240zM143.3 119.3V65H115.3V119.3L72.4 190.9L99 195L129.4 143.1L158.9 193H187.6L143.3 119.3z" />
    <glyph glyph-name="letter-z"
      unicode="&#xF11B;"
      horiz-adv-x="260" d=" M228 240H32C25.4 240 20 234.6 20 228V32C20 25.4 25.4 20 32 20H228C234.6 20 240 25.4 240 32V228C240 234.6 234.6 240 228 240zM77.8 66V85.4L144.6 170.7H84.2L80.1 194H180.1V173.9L114.7 88.8H178L182.2 66H77.8z" />
  </font>
</defs>
</svg>
